<svg width="842" height="320" viewBox="0 0 842 320" fill="none" xmlns="http://www.w3.org/2000/svg">
<path d="M2.1084 98.9414C2.1084 44.5414 46.2084 0.441406 100.608 0.441406C155.008 0.441406 199.108 44.5414 199.108 98.9414V317.441H2.1084V98.9414Z" fill="#8F8F57"/>
<path d="M2.3084 98.9414L2.1084 101.541L2.6084 102.341L2.3084 98.9414Z" fill="#9D9D6C"/>
<path d="M0.808594 111.342L1.00859 115.842C2.20859 113.242 1.80859 116.742 2.70859 109.742C2.50859 107.242 2.10859 101.842 1.60859 102.542C1.60859 104.342 2.10859 106.842 2.00859 109.542C1.70859 108.442 1.70859 105.642 1.20859 104.342C0.808594 108.542 1.50859 107.042 1.30859 111.642L0.808594 111.342Z" fill="#9D9D6C"/>
<path d="M2.00918 116.642C1.80918 116.242 1.60918 115.842 1.40918 115.842C1.60918 116.242 1.90918 118.442 2.00918 116.642Z" fill="#9D9D6C"/>
<path d="M2.1084 119.342C2.1084 122.142 1.7084 119.342 1.6084 119.542L2.4084 122.742L2.1084 119.342Z" fill="#9D9D6C"/>
<path d="M2.1084 131.041C2.1084 131.541 2.1084 131.941 2.2084 132.341C2.3084 131.941 2.2084 131.541 2.1084 131.041Z" fill="#9D9D6C"/>
<path d="M2.20904 136.842C2.50904 135.642 2.30904 134.242 2.20904 132.342C2.20904 132.442 2.20904 132.442 2.20904 132.542C2.00904 134.142 1.40904 132.642 1.60904 130.042C1.50904 127.342 2.00904 127.542 1.70904 125.142L1.30904 128.342C1.10904 132.742 1.90904 135.142 2.20904 136.842Z" fill="#9D9D6C"/>
<path d="M2.10863 131.041C2.10863 130.541 2.10863 130.041 2.10863 129.541C1.90863 130.241 2.00863 130.641 2.10863 131.041Z" fill="#9D9D6C"/>
<path d="M2.10859 125.141L2.00859 123.741L1.80859 124.041L2.10859 125.141Z" fill="#9D9D6C"/>
<path d="M2.20859 146.442C1.50859 145.742 2.30859 139.542 1.70859 138.842C1.70859 142.642 1.20859 145.642 0.808594 144.842L1.00859 149.042C1.30859 150.442 1.80859 148.642 2.20859 146.442Z" fill="#9D9D6C"/>
<path d="M0.308594 154.741C0.408594 155.041 0.408594 155.341 0.408594 155.741C0.408594 155.241 0.408594 154.841 0.308594 154.741Z" fill="#9D9D6C"/>
<path d="M1.60869 175.942L0.808692 166.142C1.00869 167.042 1.30869 166.742 1.40869 168.942C1.50869 164.542 1.00869 164.042 1.10869 160.442C1.80869 159.342 1.20869 166.742 1.80869 164.742C1.80869 162.242 1.70869 158.442 1.20869 156.342L1.70869 152.342L0.908692 153.742C0.708692 155.342 1.50869 157.042 1.00869 158.042C0.708692 158.542 0.608692 156.942 0.508692 155.742C0.708692 158.342 -0.0913083 162.842 0.00869168 168.042C0.00869168 173.642 1.20869 172.342 1.60869 175.942Z" fill="#9D9D6C"/>
<path d="M0.808789 176.342L0.508789 177.042L0.90879 176.542L0.808789 176.342Z" fill="#9D9D6C"/>
<path d="M1.70831 187.041L1.20831 181.941C1.30831 181.341 1.40831 181.041 1.60831 180.741C1.40831 180.941 1.10831 179.541 1.00831 179.741C0.308312 182.041 1.20831 186.041 1.30831 188.741C1.00831 196.041 0.908313 188.441 0.308313 191.241C0.308313 189.241 0.508312 189.141 0.508312 186.341C-0.291688 190.741 0.408313 196.341 0.608313 199.241C0.708313 198.441 0.908313 198.241 0.808313 196.641L1.00831 199.641C1.70831 196.541 1.80831 193.941 1.70831 187.041Z" fill="#9D9D6C"/>
<path d="M1.7084 177.941C1.8084 179.841 1.7084 180.541 1.6084 180.741C1.8084 180.241 2.0084 179.541 1.7084 177.941Z" fill="#9D9D6C"/>
<path d="M1.50918 197.842L1.40918 201.442L1.70918 200.042C1.70918 199.542 1.70918 197.742 1.50918 197.842Z" fill="#9D9D6C"/>
<path d="M19.609 319.041C19.309 318.741 18.009 318.641 15.209 318.641C15.509 318.241 19.109 318.341 20.809 318.141C17.109 317.941 20.909 317.741 19.909 317.341C15.809 317.341 14.009 317.841 9.60898 317.741C9.80898 317.641 9.70898 317.441 9.20898 317.341C8.20898 317.341 7.10898 317.441 5.90898 317.441C4.60898 317.441 3.30898 317.541 1.90898 317.541C1.80898 315.141 1.80898 312.941 1.80898 310.841C1.80898 308.741 1.80898 306.741 1.90898 305.141C2.00898 300.241 1.90898 296.541 1.70898 291.141C1.90898 273.241 1.50898 254.641 1.90898 235.441L1.20898 232.741C1.60898 231.841 1.20898 228.141 1.70898 228.741C1.60898 229.741 1.70898 230.741 1.70898 232.041C2.30898 227.941 1.60898 221.141 1.90898 216.241C1.80898 216.841 1.10898 217.641 1.00898 216.141C1.80898 216.541 1.00898 210.341 1.90898 208.841C2.10898 203.941 1.20898 208.641 1.30898 203.541C0.808984 203.041 1.10898 208.441 0.708984 209.341C0.308984 207.741 0.908984 204.741 0.408984 204.941C0.208984 213.141 1.20898 228.441 1.40898 241.041L1.00898 239.741C1.30898 246.141 1.30898 256.641 0.608984 261.741C1.00898 260.541 0.408984 271.241 1.30898 270.241C1.10898 271.841 1.10898 272.341 1.00898 274.641L1.30898 275.241C1.30898 278.541 0.808984 278.041 0.808984 281.741C1.20898 279.241 1.30898 282.041 1.70898 283.141C1.20898 287.441 0.808984 292.541 0.408984 296.441C0.508984 296.141 0.708984 295.741 0.908984 294.441C0.808984 297.041 1.20898 296.641 1.30898 297.341C1.30898 299.841 0.808984 299.641 0.508984 299.441C0.308984 304.041 1.40898 306.141 1.00898 309.641L1.40898 308.441C1.40898 309.941 1.40898 311.441 1.40898 312.841C1.40898 313.541 1.30898 314.241 1.30898 315.041C1.30898 316.041 1.20898 317.041 1.20898 318.041C2.30898 318.041 3.40898 318.041 4.50898 318.141C5.40898 318.141 6.30898 318.141 7.20898 318.141C8.30898 318.341 7.70898 318.541 6.40898 318.641C5.80898 318.641 5.00898 318.741 4.20898 318.741C2.90898 318.741 1.60898 318.841 0.408984 318.841C0.408984 318.041 0.308984 317.341 0.308984 316.741C0.308984 317.341 0.208984 318.141 0.208984 319.041C1.10898 319.041 2.10898 319.141 3.00898 319.141C3.20898 319.141 3.40898 319.141 3.70898 319.141C3.90898 319.141 4.10898 319.141 4.20898 319.141C4.40898 319.141 4.60898 319.241 4.70898 319.241C7.00898 318.941 10.709 318.541 13.509 318.241C11.109 319.041 17.809 319.041 19.609 319.041Z" fill="#9D9D6C"/>
<path d="M4.90879 319.342C4.50879 319.442 3.10879 319.542 2.50879 319.542C3.00879 319.542 3.50879 319.542 4.10879 319.542C4.30879 319.542 4.50879 319.542 4.70879 319.542C4.90879 319.542 5.00879 319.542 5.20879 319.542C5.20879 319.442 5.10879 319.442 4.90879 319.342Z" fill="#9D9D6C"/>
<path d="M19.6084 319.041C19.6084 319.041 19.7084 319.041 19.7084 319.141C20.2084 319.141 20.1084 319.041 19.6084 319.041Z" fill="#9D9D6C"/>
<path d="M0.00878906 300.642C0.108789 299.642 0.308789 298.242 0.508789 296.642C0.308789 297.042 0.108789 297.442 0.00878906 300.642Z" fill="#9D9D6C"/>
<path d="M0.508984 268.442C0.408984 267.442 0.308984 268.042 0.208984 267.342C0.208984 269.342 0.308984 270.042 0.508984 268.442Z" fill="#9D9D6C"/>
<path d="M10.709 319.441L14.709 319.341L16.209 319.241L10.709 319.441Z" fill="#9D9D6C"/>
<path d="M92.0088 317.241C88.5088 316.741 83.3088 317.041 78.9088 316.941C70.9088 317.241 77.9088 318.041 70.3088 318.141L71.6088 317.041C64.0088 317.141 53.2088 316.841 46.8088 317.841C46.2088 317.741 44.9088 317.541 46.9088 317.441C41.8088 317.441 44.3088 318.941 37.5088 318.641C43.8088 317.941 35.4088 318.041 37.2088 317.341L38.2088 317.241C33.9088 317.341 28.2088 317.641 25.4088 317.641C25.3088 317.941 27.7088 318.341 24.0088 318.341C25.5088 318.441 24.9088 318.741 24.8088 318.941C28.7088 318.641 30.9088 318.841 33.2088 318.441C35.4088 318.841 31.7088 318.541 33.9088 318.941L37.1088 318.641C39.4088 318.741 34.7088 319.041 38.3088 319.041C38.7088 318.841 41.6088 318.641 44.5088 318.641L43.7088 318.741C45.9088 318.641 48.9088 318.741 47.9088 318.141L50.4088 318.741L50.0088 318.341C55.9088 318.541 58.1088 319.441 65.8088 318.941C64.0088 318.841 65.6088 318.641 66.6088 318.541C63.4088 318.241 62.7088 318.841 59.7088 318.941C59.3088 318.541 64.4088 318.041 60.7088 317.841C64.7088 318.341 68.3088 317.741 70.0088 318.741C74.8088 318.841 76.7088 318.341 81.6088 318.541L81.5088 318.641C82.4088 317.941 85.5088 318.941 89.2088 318.241L86.6088 318.141C86.7088 317.841 88.0088 317.841 89.7088 317.841C89.5088 317.941 89.5088 317.941 90.1088 318.041C90.6088 317.541 96.2088 317.441 96.9088 317.341C94.6088 317.241 91.7088 317.641 89.0088 317.741C90.1088 317.541 89.7088 317.141 92.0088 317.241Z" fill="#9D9D6C"/>
<path d="M42.0088 318.941L43.6088 318.741C42.9088 318.841 42.3088 318.841 42.0088 318.941Z" fill="#9D9D6C"/>
<path d="M114.008 318.042C117.108 318.142 113.208 318.442 116.108 318.642C119.208 318.342 112.508 317.942 115.608 317.442C117.508 317.742 120.608 317.242 121.808 317.242C120.408 317.542 121.208 318.142 121.808 318.242C123.008 318.042 125.708 318.342 127.708 318.442C122.708 318.042 131.908 318.242 127.408 317.742C127.708 317.342 132.508 317.142 134.408 317.342C134.308 317.642 132.708 317.542 131.408 317.542C130.408 318.042 134.608 317.842 135.308 318.242C140.108 317.542 155.308 317.542 151.008 316.442C149.408 316.242 148.008 316.542 146.208 316.542C151.208 316.742 146.208 317.142 145.808 317.342C143.708 317.142 140.108 317.542 140.908 317.142L144.308 316.742C133.508 316.542 118.808 316.642 106.508 316.742H111.908C111.308 317.042 108.708 317.042 106.808 317.242L109.408 318.042C107.908 317.942 106.408 318.142 106.508 317.842C104.608 318.142 105.508 318.342 106.608 318.642C102.608 318.742 102.008 318.442 98.9082 318.942C105.508 319.542 104.508 318.442 112.108 318.942L114.008 318.042Z" fill="#9D9D6C"/>
<path d="M99.4084 318.542L101.008 318.142L98.6084 318.342L99.4084 318.542Z" fill="#9D9D6C"/>
<path d="M102.008 316.842C102.108 317.042 101.108 317.042 101.208 317.242C104.208 317.342 103.908 317.142 102.008 316.842Z" fill="#9D9D6C"/>
<path d="M139.309 318.441L143.309 318.341L140.709 318.241C140.809 318.341 139.809 318.441 139.309 318.441Z" fill="#9D9D6C"/>
<path d="M167.309 316.541C161.709 316.641 159.409 316.941 153.109 316.541C150.009 317.041 154.509 317.441 153.209 317.941C156.309 318.041 155.909 317.241 159.209 317.041C160.409 317.441 163.909 316.941 167.009 317.041C166.609 316.841 166.609 316.641 167.309 316.541Z" fill="#9D9D6C"/>
<path d="M186.509 318.142C189.009 318.142 191.609 317.842 193.609 318.042C193.309 318.342 191.809 318.442 190.309 318.342C191.309 318.942 193.109 318.242 195.809 318.642C195.609 318.542 194.609 318.442 195.309 318.342C196.209 318.342 196.909 318.342 197.909 318.342C198.809 318.342 199.409 318.342 200.009 318.342C200.009 317.542 199.909 316.942 199.909 316.342C199.909 315.842 199.809 315.342 199.809 314.642C199.709 313.542 199.709 311.842 199.909 308.642C199.709 307.342 199.709 306.142 199.309 306.342C199.809 301.342 199.809 303.842 200.309 297.842C200.109 298.042 199.509 300.042 199.009 300.042C199.709 291.542 198.909 291.342 199.409 285.842C199.409 286.442 199.609 287.142 199.509 288.642C200.209 287.942 199.409 284.042 199.509 281.042L200.109 281.342C200.009 278.542 199.609 273.742 200.009 270.142L200.309 270.942C199.809 263.742 200.109 255.442 199.809 249.342L200.209 246.042C199.709 237.642 200.009 254.342 199.109 248.242C200.209 247.342 198.709 243.942 199.209 239.142C199.609 236.842 199.409 243.942 199.909 241.442C199.309 240.342 199.709 238.942 199.609 236.342C200.109 236.942 199.709 231.042 200.309 232.642L199.309 223.642C199.609 222.242 199.609 219.642 199.509 217.642C199.509 222.442 198.709 216.342 198.509 221.742C198.809 229.642 198.909 242.842 198.709 252.742C199.409 253.842 198.709 259.042 199.309 260.642C199.109 260.842 198.909 261.642 198.609 261.842C198.809 268.242 199.009 260.342 199.309 261.942C199.409 264.742 199.009 266.942 198.709 266.742C198.709 271.342 198.909 267.242 199.309 269.542L198.509 272.542C198.609 279.042 198.809 286.542 198.909 294.242C199.009 298.142 199.009 302.042 199.009 305.942C199.009 307.942 199.009 309.842 199.009 311.742C199.009 313.542 199.009 315.342 198.909 317.142C197.609 317.142 196.309 317.042 195.009 317.042L196.209 317.542C188.909 317.242 183.909 318.642 177.409 317.542L175.209 317.942C176.409 317.742 173.909 317.142 175.809 316.842C173.809 317.042 171.709 316.842 169.609 316.942L173.309 317.142C170.709 317.542 167.909 317.342 167.109 316.942C161.609 317.442 170.409 317.842 171.609 318.242C179.309 317.342 179.409 319.142 186.809 318.742C191.209 318.542 186.209 318.442 186.509 318.142Z" fill="#9D9D6C"/>
<path d="M176.909 316.741C176.409 316.741 176.109 316.841 175.809 316.841C176.209 316.841 176.609 316.841 176.909 316.741Z" fill="#9D9D6C"/>
<path d="M199.509 217.641C199.509 217.041 199.509 216.441 199.509 215.541C199.309 214.741 199.409 215.841 199.509 217.641Z" fill="#9D9D6C"/>
<path d="M163.309 318.241L165.409 318.341L165.009 318.041L163.309 318.241Z" fill="#9D9D6C"/>
<path d="M200.109 195.941H199.809C199.909 196.141 200.009 196.241 200.109 195.941Z" fill="#9D9D6C"/>
<path d="M151.109 13.6414C147.709 11.8414 143.109 9.64136 140.309 8.94136L140.709 8.84136C140.209 8.64136 139.509 8.34136 138.709 8.14136C137.909 7.94136 137.009 7.64136 136.409 7.44136C135.109 7.14136 134.409 7.14136 136.309 8.14136L137.309 8.34136C138.509 8.64136 139.209 8.94136 139.809 9.24136C140.309 9.54136 140.709 9.74136 141.009 9.94136C141.609 10.4414 142.109 10.8414 143.709 11.7414C145.709 12.7414 147.509 13.2414 149.009 13.9414C149.809 14.2414 150.609 14.6414 151.409 14.9414C152.209 15.3414 153.009 15.8414 153.809 16.4414C155.309 17.3414 154.909 17.4414 154.409 17.3414C157.709 19.6414 159.409 19.9414 161.709 21.6414C161.609 22.2414 162.209 22.9414 163.209 23.8414C164.109 24.7414 165.509 25.7414 166.909 26.9414C169.809 29.3414 173.109 32.1414 174.509 34.8414C177.109 37.5414 180.109 41.6414 183.009 45.4414C181.209 43.5414 185.409 49.2414 184.309 48.7414C185.109 49.0414 186.809 52.0414 188.209 55.1414C189.009 56.6414 189.609 58.2414 190.209 59.3414C190.809 60.5414 191.309 61.3414 191.709 61.3414C192.709 64.4414 192.809 64.5414 192.909 64.6414C193.009 64.8414 193.209 65.1414 194.209 68.7414C194.009 68.7414 193.609 67.5414 193.409 67.1414C194.109 70.0414 195.409 71.3414 195.409 73.9414C196.709 79.8414 196.009 74.8414 197.209 78.2414C198.209 84.5414 197.709 82.7414 197.609 86.3414C198.009 86.5414 198.209 87.6414 198.409 89.0414C198.609 90.4414 198.709 92.1414 199.009 93.6414C199.009 92.8414 198.809 88.5414 199.309 91.3414C199.409 92.2414 199.409 93.0414 199.509 93.7414C199.509 94.4414 199.609 95.0414 199.609 95.5414C199.709 96.5414 199.809 97.2414 199.809 97.9414C200.009 99.3414 200.209 100.741 200.309 104.141C199.509 107.641 200.309 97.3414 199.709 103.341C199.409 99.0414 199.309 95.6414 198.609 93.4414C198.709 96.3414 198.809 99.5414 198.809 102.841C198.909 106.141 199.009 109.541 199.109 112.741C199.009 116.241 198.709 110.941 198.709 113.741C198.409 120.041 199.509 123.441 199.109 128.441L198.709 127.441C199.209 130.541 198.609 138.541 198.909 144.441C199.109 143.641 199.209 143.241 199.409 143.941C198.409 143.841 199.909 152.041 199.209 157.841C199.809 157.341 200.209 163.041 200.309 166.541C200.109 167.841 199.909 167.541 199.709 167.541C200.109 161.741 199.009 161.941 198.709 157.341C199.009 161.141 198.709 167.541 199.209 170.841L198.709 169.541C198.609 174.841 199.809 174.141 199.409 179.741L199.009 179.141C199.109 190.341 198.409 203.441 199.209 212.341C199.509 213.141 200.209 208.641 200.409 208.341C200.109 203.041 199.609 199.941 199.309 195.841L199.909 195.941C199.509 195.041 199.309 190.141 199.009 192.841C198.709 189.541 199.509 190.341 199.209 186.541C199.809 186.841 199.909 189.141 200.409 189.141L200.109 185.841C200.309 186.941 200.309 183.841 200.509 184.841C199.809 178.641 200.809 176.241 200.509 169.841L200.409 173.341C200.109 173.341 200.109 171.241 200.009 169.741C200.509 168.041 200.409 166.941 200.609 163.741C200.309 160.941 199.709 159.341 199.709 155.541C200.309 156.341 200.009 149.241 200.609 148.541C200.009 147.741 200.409 141.141 200.009 140.641C199.909 138.641 199.909 135.841 200.309 135.841C200.309 136.141 200.409 136.741 200.409 137.341V135.341C200.509 135.541 200.509 135.441 200.509 135.741C200.509 133.941 200.109 133.941 200.409 131.541C200.609 131.541 200.609 132.841 200.609 133.841C200.709 129.041 199.609 125.341 200.209 121.341C199.909 120.541 199.909 114.941 199.209 116.141C199.409 114.641 200.009 115.241 199.909 111.141C199.309 108.841 200.109 106.641 199.709 103.541C200.309 107.641 199.909 103.541 200.409 107.141C200.509 105.741 200.409 104.041 200.209 102.041C200.109 101.041 200.009 100.041 200.009 98.9414C199.909 97.8414 199.909 96.6414 199.909 95.4414C200.009 94.9414 200.209 94.9414 200.309 94.4414C200.009 92.6414 199.409 90.6414 199.709 88.8414L199.309 89.1414C199.209 87.5414 199.009 85.5414 198.809 83.5414C198.509 81.5414 198.309 79.5414 198.109 77.7414C197.509 76.4414 197.009 75.1414 196.409 73.8414C196.209 72.4414 195.909 70.9414 195.509 69.4414C195.009 67.9414 194.509 66.4414 193.909 65.0414C193.309 63.6414 192.609 62.2414 191.909 61.0414C191.209 59.8414 190.509 58.7414 189.909 57.8414C189.709 57.3414 189.509 56.8414 189.309 56.3414C189.109 55.8414 188.809 55.3414 188.609 54.8414C188.209 53.9414 187.909 53.2414 188.009 53.1414C188.309 53.5414 188.709 54.1414 189.309 54.9414C188.609 53.6414 188.009 52.0414 187.309 50.7414C186.609 49.4414 185.909 48.2414 185.209 47.7414C183.409 45.2414 184.409 45.6414 183.209 43.6414C182.109 42.4414 181.009 40.9414 179.809 39.3414C178.509 37.7414 177.309 35.9414 176.009 34.4414C175.409 33.6414 174.709 32.9414 174.109 32.2414C173.509 31.5414 172.909 30.9414 172.309 30.4414C171.209 29.4414 170.309 28.7414 169.709 28.6414C170.609 29.5414 171.809 30.9414 173.209 32.4414C173.909 33.2414 174.609 34.1414 175.409 35.0414C175.809 35.4414 176.209 35.9414 176.509 36.3414C176.909 36.8414 177.209 37.2414 177.609 37.7414C176.709 36.8414 177.109 37.7414 176.009 36.4414C174.409 34.6414 173.309 33.1414 172.109 31.8414C171.509 31.1414 170.909 30.4414 170.209 29.7414C169.509 29.0414 168.709 28.3414 167.809 27.5414L168.809 27.3414C166.109 24.1414 162.809 21.8414 159.709 19.7414C158.109 18.7414 156.609 17.7414 155.109 16.8414C153.709 15.8414 152.409 14.7414 151.109 13.6414Z" fill="#9D9D6C"/>
<path d="M191.609 59.6412L190.509 56.2412L190.309 56.7412C190.809 57.6412 191.309 58.6412 191.609 59.6412Z" fill="#9D9D6C"/>
<path d="M190.309 56.7414C190.009 56.1414 189.609 55.5414 189.209 54.9414C189.609 55.6414 189.909 56.2414 190.209 56.8414L190.309 56.7414Z" fill="#9D9D6C"/>
<path d="M138.508 7.5416C137.808 7.2416 136.408 6.6416 134.908 6.1416C135.808 6.5416 137.708 7.3416 138.508 7.5416Z" fill="#9D9D6C"/>
<path d="M134.608 6.24121L136.208 7.04121H136.508L134.608 6.24121Z" fill="#9D9D6C"/>
<path d="M38.3085 23.3414C37.0085 24.7414 35.7085 26.0414 34.5085 27.4414C34.1085 27.6414 32.7085 28.9414 31.7085 29.9414C30.7085 30.9414 29.9085 31.7414 30.5085 30.8414C28.6085 33.5414 23.6085 38.7414 25.9085 37.2414C28.5085 34.1414 31.4085 30.7414 34.9085 27.6414C38.4085 24.4414 42.2085 21.4414 46.3085 18.5414C50.5085 15.7414 54.9085 13.2414 59.4085 11.0414C63.9085 8.84142 68.5085 7.04142 73.0085 5.44142C72.1085 5.84142 71.1085 6.24142 70.2085 6.74142C70.8085 6.54142 71.3085 6.24142 71.8085 6.04142C72.3085 5.84142 72.9085 5.74142 73.4085 5.54142C74.4085 5.24142 75.3085 4.94142 76.2085 4.74142C78.0085 4.34142 79.6085 4.04142 81.1085 3.74142C82.6085 3.54142 84.1085 3.24142 85.7085 2.94142C87.3085 2.64142 88.9085 2.24142 90.9085 1.64142C90.6085 1.94142 90.2085 2.24142 89.9085 2.54142C91.0085 2.44142 92.1085 2.34142 93.2085 2.14142C94.3085 2.04142 95.3085 1.74142 96.4085 1.64142C98.6085 1.44142 100.809 1.14142 103.109 1.64142L102.709 1.34142C103.909 1.34142 104.409 1.54142 105.709 1.54142L105.209 1.44142C108.509 1.34142 110.509 1.54142 113.709 2.14142C113.909 2.44142 112.209 2.04142 111.209 1.94142C112.609 2.44142 115.209 2.14142 117.709 2.64142C119.609 3.24142 117.609 2.94142 117.309 3.04142C118.209 3.14142 119.109 3.34142 119.909 3.44142C120.709 3.54142 121.509 3.74142 122.209 3.94142C123.609 4.24142 124.909 4.54142 126.109 4.94142C127.309 5.24142 128.409 5.54142 129.609 5.84142C130.809 6.14142 132.009 6.34142 133.309 6.54142C133.909 6.54142 131.609 5.54142 134.209 6.34142C131.909 5.34142 129.709 4.64142 127.509 4.14142C125.309 3.54142 123.209 3.34142 120.909 2.94142L122.109 3.24142C120.209 3.34142 119.609 3.14142 118.609 2.84142C118.109 2.64142 117.609 2.54142 116.809 2.34142C116.409 2.24142 116.009 2.14142 115.409 2.04142C114.909 1.94142 114.209 1.94142 113.509 1.94142C115.109 1.64142 117.609 2.14142 118.609 2.14142C115.309 1.04142 112.909 1.04142 110.809 0.841421C109.709 0.741421 108.709 0.841421 107.709 0.641421C106.709 0.541421 105.709 0.341421 104.609 0.0414215H105.109C104.109 -0.0585785 102.309 0.0414209 100.809 0.141421C101.309 0.241421 102.809 0.441421 103.809 0.541421C102.209 0.641421 101.509 1.04142 100.909 1.24142C99.2085 0.741421 98.6085 1.54142 95.9085 1.34142C94.9085 0.941421 98.2085 0.841421 99.2085 0.641421L95.9085 1.04142C92.9085 1.24142 92.9085 0.741421 91.4085 0.641421C88.9085 1.14142 92.9085 0.741421 90.9085 1.34142C89.3085 1.24142 85.0085 1.64142 80.4085 2.54142C75.8085 3.54142 70.9085 5.14142 67.9085 6.44142C70.0085 5.64142 68.5085 5.74142 71.2085 4.94142C70.2085 5.14142 66.9085 6.54142 67.0085 6.84142C62.8085 8.64142 57.5085 10.8414 53.6085 12.6414C54.0085 12.5414 54.4085 12.4414 54.9085 12.3414C52.0085 14.5414 46.8085 16.3414 41.9085 20.4414L42.0085 20.3414C41.2085 21.0414 40.6085 21.7414 39.8085 22.6414C39.0085 23.4414 38.1085 24.5414 36.6085 25.6414C37.2085 24.8414 38.7085 23.5414 38.3085 23.3414Z" fill="#9D9D6C"/>
<path d="M23.5084 39.8414L24.4084 37.9414C23.7084 38.8414 23.0084 39.8414 22.5084 40.7414C22.1084 41.6414 22.0084 42.2414 22.2084 42.1414C23.0084 40.8414 24.4084 39.4414 24.3084 39.0414C24.2084 39.1414 24.1084 38.9414 23.5084 39.8414Z" fill="#9D9D6C"/>
<path d="M5.90918 77.5412C5.80918 78.3412 6.00918 78.1412 6.10918 78.5412C7.00918 74.2412 8.40918 69.4412 9.80918 65.4412C11.3092 61.4412 12.9092 58.1412 13.8092 56.6412C15.3092 54.0412 14.8092 53.2412 16.6092 49.8412L17.9092 48.6412C18.3092 47.7412 19.5092 46.0412 20.3092 44.7412C21.2092 43.5412 21.7092 42.6412 20.8092 43.3412C20.6092 43.4412 20.1092 44.9412 19.0092 46.3412L18.9092 45.9412C18.2092 47.1412 17.5092 48.2412 16.9092 49.4412C17.0092 49.0412 17.1092 48.5412 17.3092 48.1412C14.1092 52.6412 16.1092 51.9412 12.9092 57.8412L12.3092 57.5412C11.4092 59.6412 10.7092 61.1412 10.1092 62.6412C9.50918 64.1412 8.90918 65.5412 8.10918 67.4412C8.10918 67.4412 8.40918 67.5412 8.50918 66.8412C8.80918 66.1412 9.30918 65.3412 9.40918 65.8412C7.70918 72.4412 9.40918 64.7412 7.60918 69.1412C7.20918 70.5412 6.90918 72.3412 6.50918 74.1412C6.10918 76.0412 5.70918 78.0412 5.40918 79.9412C5.10918 81.8412 4.70918 83.6412 4.50918 85.2412C4.30918 86.8412 4.00918 88.0412 3.80918 88.8412C4.20918 87.5412 4.30918 87.8412 4.40918 88.9412C4.50918 90.0412 4.40918 91.8412 4.30918 93.4412C4.00918 94.9412 4.00918 92.4412 3.80918 91.8412C3.70918 92.6412 3.60918 93.2412 3.50918 93.9412C3.40918 94.6412 3.40918 95.3412 3.40918 96.0412C3.80918 94.1412 4.30918 95.4412 4.40918 98.8412C4.60918 96.9412 4.60918 95.1412 4.60918 93.3412C4.70918 91.5412 4.70918 89.8412 4.70918 88.1412C4.80918 84.8412 5.00918 81.3412 5.90918 77.5412Z" fill="#9D9D6C"/>
<path d="M6.00879 79.9416C6.10879 79.1416 6.20879 78.8416 6.10879 78.6416C5.80879 79.6416 5.70879 80.7416 5.50879 81.6416L6.00879 79.9416Z" fill="#9D9D6C"/>
<path d="M42.9082 233.899C45.8082 215.699 56.9082 196.399 63.9082 184.399C63.9082 207.399 81.1082 209.499 87.9082 229.399C93.3082 245.399 82.4082 267.399 67.4082 267.399C52.4082 267.399 40.4082 249.399 42.9082 233.899Z" fill="white"/>
<path d="M43.0082 233.899L42.9082 234.499L43.1082 234.699L43.0082 233.899Z" fill="#9D9D6C"/>
<path d="M41.8086 236.5C41.8086 236.8 41.8086 237.2 41.9086 237.5C42.7086 237 42.4086 237.7 43.0086 236.2C42.9086 235.7 42.8086 234.5 42.5086 234.6C42.5086 235 42.7086 235.6 42.6086 236.1C42.4086 235.8 42.5086 235.2 42.2086 234.9C41.9086 235.8 42.3086 235.5 42.1086 236.5H41.8086Z" fill="#9D9D6C"/>
<path d="M42.5084 237.699C42.4084 237.599 42.2084 237.499 42.1084 237.499C42.3084 237.599 42.4084 238.099 42.5084 237.699Z" fill="#9D9D6C"/>
<path d="M42.6086 238.199C42.6086 238.799 42.3086 238.199 42.3086 238.299L42.8086 238.999L42.6086 238.199Z" fill="#9D9D6C"/>
<path d="M42.709 240.799C42.709 240.899 42.709 240.999 42.809 241.099C42.809 240.899 42.709 240.899 42.709 240.799Z" fill="#9D9D6C"/>
<path d="M42.9084 241.999C43.0084 241.699 42.9084 241.399 42.8084 241.099C42.7084 241.499 42.3084 241.199 42.4084 240.599C42.3084 239.999 42.6084 239.999 42.4084 239.499C42.3084 239.699 42.2084 239.999 42.2084 240.199C42.1084 241.199 42.7084 241.599 42.9084 241.999Z" fill="#9D9D6C"/>
<path d="M42.7088 240.799C42.7088 240.699 42.7088 240.599 42.7088 240.499C42.6088 240.599 42.6088 240.699 42.7088 240.799Z" fill="#9D9D6C"/>
<path d="M42.6082 239.499L42.5082 239.199L42.4082 239.299L42.6082 239.499Z" fill="#9D9D6C"/>
<path d="M43.2086 243.999C42.7086 243.899 43.0086 242.499 42.6086 242.399C42.7086 243.199 42.5086 243.899 42.3086 243.799C42.4086 244.099 42.5086 244.399 42.6086 244.699C42.9086 244.999 43.1086 244.499 43.2086 243.999Z" fill="#9D9D6C"/>
<path d="M42.5088 245.999C42.6088 245.999 42.6088 246.099 42.6088 246.199C42.6088 246.099 42.5088 245.999 42.5088 245.999Z" fill="#9D9D6C"/>
<path d="M44.7084 250.099C44.3084 249.499 43.9084 248.899 43.5084 248.299C43.7084 248.399 43.8084 248.299 44.0084 248.799C43.8084 247.899 43.4084 247.899 43.2084 247.099C43.5084 246.799 43.7084 248.399 43.9084 247.899C43.7084 247.399 43.5084 246.599 43.0084 246.299C43.0084 245.999 43.0084 245.699 43.1084 245.399L42.7084 245.799C42.7084 246.199 43.3084 246.399 43.0084 246.699C42.8084 246.899 42.7084 246.499 42.6084 246.299C42.8084 246.799 42.7084 247.899 43.1084 248.999C43.7084 249.999 44.2084 249.499 44.7084 250.099Z" fill="#9D9D6C"/>
<path d="M44.309 250.399L44.209 250.599L44.409 250.399H44.309Z" fill="#9D9D6C"/>
<path d="M45.8084 252.299L45.0084 251.399C45.0084 251.299 45.1084 251.199 45.1084 251.099C45.0084 251.199 44.7084 250.999 44.7084 251.099C44.5084 251.799 45.4084 252.299 45.7084 252.799C46.3084 254.299 45.5084 252.799 45.4084 253.599C45.2084 253.199 45.3084 253.099 45.0084 252.599C45.0084 253.699 46.0084 254.599 46.4084 254.999C46.3084 254.799 46.4084 254.699 46.2084 254.399L46.7084 254.899C46.8084 254.099 46.5084 253.599 45.8084 252.299Z" fill="#9D9D6C"/>
<path d="M45.0088 250.499C45.2088 250.899 45.2088 250.999 45.2088 251.099C45.2088 250.899 45.3088 250.799 45.0088 250.499Z" fill="#9D9D6C"/>
<path d="M46.7088 255.199C46.7088 255.099 46.6088 254.999 46.5088 254.899C46.6088 254.999 46.6088 255.099 46.7088 255.199Z" fill="#9D9D6C"/>
<path d="M46.8086 254.399L47.2086 255.099V254.699C47.1086 254.599 46.9086 254.299 46.8086 254.399Z" fill="#9D9D6C"/>
<path d="M71.609 267.799C71.509 267.599 71.209 267.599 70.609 267.799C70.609 267.599 71.409 267.399 71.709 267.199C70.909 267.299 71.609 266.899 71.409 266.799C70.609 266.999 70.209 267.399 69.309 267.399C69.309 267.299 69.309 267.199 69.209 267.199C68.109 267.499 66.209 267.699 65.109 267.299C64.109 267.099 63.309 266.999 62.109 266.799C58.409 265.599 54.809 263.599 52.009 260.599L51.309 260.499C51.309 260.199 50.609 259.799 50.909 259.699C51.009 259.899 51.209 259.999 51.409 260.199C51.109 259.299 49.809 258.499 49.309 257.499C49.309 257.599 49.109 257.999 48.909 257.799C49.409 257.599 48.109 256.799 48.409 256.199C47.909 255.199 48.009 256.399 47.509 255.399C47.209 255.499 48.009 256.399 47.909 256.699C47.509 256.499 47.409 255.799 47.209 255.999C48.109 257.599 50.609 259.899 52.809 261.599H52.409C53.609 262.399 55.309 263.799 56.109 264.799C56.009 264.499 57.809 265.999 58.009 265.399C58.209 265.699 58.409 265.699 58.809 265.999L59.009 265.899C59.609 266.199 59.409 266.399 60.209 266.699C59.809 266.299 60.409 266.399 60.709 266.299C61.109 266.599 61.509 266.899 62.009 267.199C62.509 267.499 62.909 267.699 63.309 267.899C63.309 267.799 63.209 267.699 62.909 267.499C63.409 267.699 63.409 267.499 63.609 267.399C64.109 267.499 64.009 267.799 64.009 267.999C65.009 268.299 65.609 267.699 66.309 267.999L66.109 267.699C66.609 267.699 67.109 267.799 67.609 267.899C68.109 267.999 68.609 267.999 69.209 267.899C69.809 268.199 68.309 268.299 67.809 268.399C68.009 268.499 68.609 268.499 68.709 268.599C69.209 268.399 70.009 267.999 70.609 267.799C69.709 268.299 71.209 267.899 71.609 267.799Z" fill="#9D9D6C"/>
<path d="M68.3088 268.6C68.2088 268.7 68.0088 268.7 68.0088 268.8C68.1088 268.8 68.2088 268.7 68.4088 268.8C68.4088 268.6 68.4088 268.6 68.3088 268.6Z" fill="#9D9D6C"/>
<path d="M71.6084 267.799C71.6084 267.899 71.7084 267.899 71.6084 267.799C71.8084 267.799 71.7084 267.799 71.6084 267.799Z" fill="#9D9D6C"/>
<path d="M63.9084 268.399C63.7084 268.299 63.4084 268.099 63.1084 267.999C63.1084 268.099 63.2084 268.199 63.9084 268.399Z" fill="#9D9D6C"/>
<path d="M57.2082 265.599C57.0082 265.499 57.1082 265.699 56.9082 265.699C57.2082 265.899 57.4082 265.899 57.2082 265.599Z" fill="#9D9D6C"/>
<path d="M69.709 268.499C70.009 268.399 70.309 268.399 70.609 268.299L70.909 268.199C70.509 268.299 70.109 268.399 69.709 268.499Z" fill="#9D9D6C"/>
<path d="M83.3088 257.499C82.6088 257.899 82.1088 258.899 81.5088 259.599C80.5088 260.999 81.9088 260.199 80.8088 261.499L80.5088 260.799C79.4088 261.999 77.6088 263.399 76.8088 264.599C76.7088 264.599 76.4088 264.699 76.7088 264.399C75.8088 264.999 76.7088 265.499 75.3088 266.099C76.3088 265.099 74.7088 265.999 74.9088 265.399L75.1088 265.299C74.3088 265.799 73.3088 266.399 72.7088 266.599C72.7088 266.799 73.3088 266.799 72.5088 267.099C72.8088 266.999 72.8088 267.199 72.8088 267.399C73.6088 266.999 74.0088 266.799 74.4088 266.399C74.9088 266.399 74.1088 266.599 74.7088 266.599L75.2088 266.099C75.7088 265.899 74.8088 266.499 75.6088 266.199C75.6088 266.099 76.1088 265.599 76.7088 265.299L76.6088 265.499C77.0088 265.199 77.6088 264.899 77.2088 264.699H77.9088L77.7088 264.599C78.3088 264.299 78.7088 264.099 79.2088 263.899C79.7088 263.699 80.1088 263.399 80.6088 262.699C80.3088 262.899 80.4088 262.599 80.6088 262.399C80.0088 262.699 80.1088 263.099 79.6088 263.599C79.4088 263.499 80.0088 262.499 79.3088 262.899C80.2088 262.499 80.5088 261.799 81.2088 261.899C82.0088 261.199 82.0088 260.599 82.8088 259.899L82.9088 259.999C82.7088 259.599 83.6088 259.399 83.7088 258.499C83.6088 258.599 83.4088 258.799 83.3088 258.899C83.2088 258.799 83.3088 258.599 83.5088 258.199C83.5088 258.299 83.5088 258.299 83.7088 258.199C83.5088 257.899 84.2088 256.899 84.2088 256.699C83.9088 257.099 83.7088 257.699 83.5088 258.299C83.2088 257.999 82.9088 257.899 83.3088 257.499Z" fill="#9D9D6C"/>
<path d="M76.209 265.799L76.409 265.499C76.409 265.599 76.309 265.699 76.209 265.799Z" fill="#9D9D6C"/>
<path d="M86.109 253.699C86.509 253.099 86.209 253.999 86.609 253.499C86.709 252.799 85.909 253.999 85.909 253.299C86.309 252.999 86.209 252.299 86.309 251.999C86.309 252.299 86.809 252.299 86.909 252.299C86.909 251.999 87.309 251.599 87.509 251.099C86.909 251.999 87.709 250.199 87.109 250.999C86.909 250.799 87.109 249.899 87.409 249.499C87.509 249.599 87.409 249.899 87.309 250.099C87.509 250.399 87.709 249.499 88.009 249.499C88.009 248.899 88.209 247.899 88.309 246.999C88.409 246.199 88.309 245.599 87.909 245.899C87.709 246.199 87.809 246.499 87.709 246.899C88.109 245.899 88.109 246.999 88.209 247.099C88.009 247.499 88.009 248.299 87.809 248.099L87.709 247.299C87.009 249.499 85.909 252.399 84.709 254.699C84.909 254.399 85.109 253.999 85.209 253.699C85.309 253.899 85.109 254.399 85.009 254.799L85.709 254.499C85.509 254.799 85.409 255.099 85.309 254.999C85.309 255.499 85.509 255.399 85.709 255.199C85.409 255.999 85.109 255.999 85.009 256.799C85.609 256.299 85.609 255.999 85.709 255.599C85.809 255.299 85.909 254.899 86.409 254.199L86.109 253.699Z" fill="#9D9D6C"/>
<path d="M84.8084 256.599V256.199L84.6084 256.699L84.8084 256.599Z" fill="#9D9D6C"/>
<path d="M84.209 255.6C84.309 255.6 84.209 255.8 84.309 255.9C84.709 255.4 84.509 255.4 84.209 255.6Z" fill="#9D9D6C"/>
<path d="M88.3086 248.699L88.5086 247.799L88.3086 248.299C88.4086 248.399 88.3086 248.599 88.3086 248.699Z" fill="#9D9D6C"/>
<path d="M88.4082 242.6C88.3082 243.8 88.4082 244.3 87.9082 245.5C88.0082 246.2 88.5082 245.3 88.7082 245.7C88.9082 245.1 88.4082 245 88.4082 244.3C88.7082 244.1 88.5082 243.3 88.7082 242.7C88.6082 242.8 88.5082 242.8 88.4082 242.6Z" fill="#9D9D6C"/>
<path d="M89.7089 238.599C89.7089 237.999 89.509 237.499 89.609 237.099C89.809 237.199 89.8089 237.499 89.8089 237.799C90.2089 237.599 89.709 237.199 89.909 236.599C89.909 236.699 89.8089 236.899 89.7089 236.699C89.7089 235.199 89.4089 235.899 89.3089 233.999C89.1089 233.699 89.109 233.499 88.909 233.599C89.009 232.499 89.209 232.999 89.109 231.699C89.009 231.799 88.709 232.299 88.409 232.299C88.409 230.399 87.9089 230.499 87.8089 229.299C87.9089 229.399 88.009 229.499 88.009 229.899C88.409 229.599 87.609 228.999 87.409 228.399L87.8089 228.299C87.5089 227.799 86.909 226.899 86.909 226.099L87.109 226.199C86.709 225.499 86.209 224.799 85.909 224.099C85.509 223.399 85.2089 222.699 84.8089 222.199L84.609 221.499C83.409 220.099 85.4089 223.099 84.3089 222.299C84.8089 221.799 83.6089 221.599 83.3089 220.599C83.3089 219.999 84.009 221.399 83.909 220.799C83.509 220.799 83.5089 220.399 83.2089 219.999C83.5089 219.899 82.609 218.999 83.109 219.099L81.509 217.899C81.509 217.499 81.1089 217.099 80.8089 216.799C81.4089 217.599 80.2089 216.899 80.8089 217.899C81.3089 218.499 82.1089 219.399 82.8089 220.299C83.4089 221.299 84.109 222.299 84.509 223.299C85.009 223.299 85.109 224.499 85.609 224.599C85.509 224.699 85.5089 224.899 85.3089 224.999C86.0089 226.199 85.4089 224.599 85.7089 224.799C86.0089 225.299 86.0089 225.899 85.8089 225.899C86.2089 226.799 86.009 225.899 86.409 226.299L86.2089 227.099C86.8089 228.499 87.609 229.999 88.109 231.799C88.609 233.499 88.9089 235.399 88.8089 237.099L89.109 236.799C89.009 238.399 89.909 239.399 89.109 240.799L89.3089 241.299C89.2089 240.999 88.809 241.499 88.609 241.099C88.709 241.499 88.509 241.999 88.609 242.399L88.8089 241.599C89.0089 242.199 88.809 242.799 88.509 242.899C88.609 244.099 89.109 242.299 89.409 241.999C89.009 240.299 90.109 240.399 89.909 238.699C90.009 237.599 89.9089 238.699 89.7089 238.599Z" fill="#9D9D6C"/>
<path d="M88.8086 240.6C88.8086 240.7 88.8086 240.8 88.9086 240.8C88.8086 240.8 88.8086 240.7 88.8086 240.6Z" fill="#9D9D6C"/>
<path d="M81.0084 216.5C80.9084 216.4 80.8084 216.3 80.7084 216.2C80.5084 216 80.7084 216.2 81.0084 216.5Z" fill="#9D9D6C"/>
<path d="M89.4086 243.599L89.5086 243.199H89.3086L89.4086 243.599Z" fill="#9D9D6C"/>
<path d="M78.309 212.699L78.209 212.799C78.209 212.799 78.309 212.699 78.309 212.699Z" fill="#9D9D6C"/>
<path d="M70.3086 203.1L70.5086 203.3C70.4086 203.2 70.4086 203.2 70.3086 203.1Z" fill="#9D9D6C"/>
<path d="M58.7084 192.699C58.4084 193.499 57.9084 194.499 57.9084 195.099L57.8084 194.999C57.7084 195.399 57.2084 196.799 57.9084 196.099V195.799C58.2084 194.799 58.5084 195.299 59.0084 194.599C59.4084 193.699 59.1084 192.899 59.7084 192.199C59.9084 191.899 60.0084 191.999 60.0084 192.199C60.5084 191.499 60.2084 190.899 60.5084 190.399C61.1084 190.599 61.4084 189.999 61.6084 189.199C61.7084 188.799 61.9084 188.399 62.0084 188.099C62.2084 187.799 62.4084 187.499 62.5084 187.699C62.6084 187.399 62.8084 187.099 63.0084 186.799C63.2084 186.499 63.4084 186.099 63.7084 185.299C63.6084 185.699 63.6084 185.799 63.6084 185.799C63.6084 185.899 63.6084 185.899 63.6084 185.999C63.6084 186.199 63.6084 186.499 63.4084 186.899C63.7084 185.899 63.7084 186.799 63.6084 187.399C63.6084 187.999 63.6084 188.399 64.0084 188.299C63.9084 189.699 64.1084 188.299 64.1084 189.999C64.0084 189.999 64.0084 189.699 63.9084 189.599C63.8084 190.299 64.4084 190.499 64.1084 191.099C64.2084 192.399 64.4084 191.299 64.7084 191.999C64.9084 193.299 64.7084 192.999 64.5084 193.799C65.0084 193.799 65.0084 194.599 65.3084 195.199C65.3084 194.999 65.1084 194.099 65.4084 194.699C65.5084 195.499 65.8084 195.699 66.0084 195.999C66.2084 196.199 66.4084 196.499 66.7084 197.099C66.5084 197.999 66.2084 195.799 66.3084 197.099C65.8084 196.299 65.5084 195.699 65.0084 195.299C65.2084 195.899 65.5084 196.499 65.8084 197.199C66.1084 197.799 66.4084 198.499 66.8084 199.099C67.1084 199.799 66.4084 198.899 66.7084 199.399C67.2084 200.699 68.1084 200.999 68.5084 201.999L68.2084 201.899C68.8084 202.299 69.4084 203.999 70.4084 204.799C70.4084 204.599 70.4084 204.499 70.6084 204.499C70.1084 204.899 71.9084 205.699 72.4084 206.899C72.6084 206.599 73.6084 207.299 74.1084 207.899C74.2084 208.199 74.0084 208.199 74.0084 208.299C73.4084 207.199 72.9084 207.699 72.1084 206.999C72.8084 207.499 73.5084 208.699 74.2084 208.999H73.8084C74.5084 209.899 75.0084 209.299 75.6084 210.399L75.4084 210.499C77.0084 212.299 78.6084 214.599 80.2084 215.799C80.5084 215.799 80.2084 214.799 80.3084 214.599C79.4084 213.799 78.7084 213.499 78.0084 212.999L78.3084 212.799C78.0084 212.799 77.2084 212.099 77.4084 212.699C76.8084 212.299 77.3084 212.099 76.6084 211.599C76.9084 211.399 77.3084 211.699 77.5084 211.499L76.9084 211.099C77.2084 211.199 76.7084 210.699 77.0084 210.799C75.8084 210.099 75.9084 209.299 74.8084 208.399L75.3084 208.999C75.1084 209.099 74.9084 208.799 74.6084 208.599C74.6084 208.099 74.4084 207.999 74.0084 207.399C73.5084 207.099 73.0084 206.999 72.5084 206.399C72.9084 206.299 71.8084 205.199 72.0084 204.899C71.6084 204.999 71.0084 203.699 70.7084 203.799C70.4084 203.499 70.1084 202.999 70.2084 202.899C70.2084 202.899 70.3084 202.999 70.4084 203.099L70.2084 202.699C70.3084 202.699 70.3084 202.699 70.3084 202.699C70.1084 202.399 69.9084 202.499 69.8084 201.999C69.9084 201.899 70.0084 202.199 70.2084 202.299C69.7084 201.399 68.7084 201.099 68.6084 200.199C68.4084 200.099 67.8084 199.099 67.5084 199.499C67.5084 199.099 67.8084 199.099 67.4084 198.399C66.8084 198.099 67.1084 197.499 66.7084 196.999C67.4084 197.699 66.8084 196.999 67.4084 197.499C67.3084 196.899 66.6084 196.299 66.3084 195.299C66.3084 195.199 66.4084 195.099 66.5084 194.999C66.3084 194.699 65.9084 194.299 66.1084 193.899L65.9084 193.999C65.9084 193.299 65.5084 192.399 65.6084 191.599L65.0084 190.799C65.2084 190.199 65.1084 189.499 64.9084 188.899C64.8084 188.599 64.7084 188.199 64.6084 187.899C64.5084 187.599 64.4084 187.399 64.3084 187.299C64.3084 186.899 64.3084 186.099 64.4084 185.899C64.4084 185.899 64.5084 185.999 64.6084 186.099C64.6084 185.699 64.6084 185.099 64.6084 184.699C64.6084 184.199 64.6084 183.899 64.4084 184.299C64.3084 184.099 64.4084 183.799 64.4084 183.399C64.4084 183.299 64.4084 183.199 64.5084 183.099C64.5084 182.999 64.5084 182.999 64.5084 182.899C64.5084 182.799 64.5084 182.799 64.4084 182.899C63.8084 184.499 63.3084 185.099 62.7084 185.999C62.1084 186.799 61.5084 187.799 61.8084 188.199C61.9084 187.999 62.2084 187.599 62.4084 187.299C62.6084 186.899 62.9084 186.599 63.1084 186.099C63.0084 186.499 63.1084 186.699 62.9084 186.999C62.6084 187.699 62.2084 187.699 61.7084 188.699L61.3084 188.299C59.8084 189.799 60.1084 191.799 58.7084 192.699Z" fill="#9D9D6C"/>
<path d="M64.4082 187.599C64.5082 187.199 64.5082 186.799 64.6082 186.299L64.4082 186.699C64.5082 186.999 64.5082 187.299 64.4082 187.599Z" fill="#9D9D6C"/>
<path d="M64.4086 186.699C64.4086 186.499 64.3086 186.399 64.3086 186.299C64.3086 186.499 64.3086 186.699 64.4086 186.799V186.699Z" fill="#9D9D6C"/>
<path d="M57.4088 195.299C57.3088 195.399 57.1088 195.699 57.0088 195.999C57.2088 195.899 57.4088 195.499 57.4088 195.299Z" fill="#9D9D6C"/>
<path d="M57.1084 196.199L57.4084 195.899L57.3084 195.799L57.1084 196.199Z" fill="#9D9D6C"/>
<path d="M48.3088 216.199C48.3088 216.599 48.2088 216.999 48.2088 217.399C48.0088 217.499 47.7088 218.899 47.6088 218.399C47.7088 219.199 46.8088 220.499 47.6088 220.199C48.5088 216.799 50.7088 212.499 51.9088 208.599L51.8088 209.299C52.3088 207.199 53.5088 206.899 53.4088 204.999L53.7088 205.399C54.2088 204.599 53.9088 203.399 54.8088 202.699H54.6088C54.7088 202.499 54.8088 202.399 55.0088 202.199L54.9088 202.299C55.1088 201.599 55.3088 201.199 55.7088 200.599C55.9088 200.599 55.6088 200.899 55.5088 201.099C55.8088 200.899 55.8088 200.299 56.0088 199.799C56.3088 199.499 56.2088 199.899 56.2088 199.999C56.8088 198.499 57.5088 197.999 57.5088 196.699C57.4088 196.499 57.1088 196.999 57.3088 196.399C56.6088 197.199 56.4088 198.099 56.1088 199.099L56.2088 198.899C56.4088 199.899 55.8088 199.399 55.5088 200.599C55.4088 200.199 55.7088 199.699 55.6088 199.399C54.5088 200.499 55.0088 201.399 54.0088 201.999V201.899C53.8088 202.099 53.8088 202.499 53.7088 202.799C53.8088 202.699 54.0088 202.499 54.2088 202.299C54.1088 202.599 54.3088 202.899 54.4088 203.099C54.0088 203.299 54.3088 203.599 53.9088 204.099C53.6088 204.199 53.9088 203.499 53.9088 203.299L53.7088 203.999C53.4088 204.599 53.2088 204.399 52.9088 204.699C52.9088 205.299 53.2088 204.499 53.2088 204.999C52.6088 205.499 51.4088 208.199 51.1088 209.599C51.3088 209.099 50.9088 209.299 51.2088 208.799C51.1088 208.999 50.9088 209.699 51.1088 209.799C50.9088 210.799 50.3088 211.899 49.7088 212.599L50.0088 212.399C50.0088 213.199 49.0088 214.099 48.7088 215.399C48.6088 215.799 48.9088 216.399 48.5088 217.099C48.3088 216.599 48.5088 216.199 48.3088 216.199Z" fill="#9D9D6C"/>
<path d="M47.1086 220.799L47.0086 220.299C46.8086 220.699 47.0086 221.399 47.2086 221.399C47.2086 221.099 47.5086 220.699 47.4086 220.599C47.2086 220.599 47.1086 220.599 47.1086 220.799Z" fill="#9D9D6C"/>
<path d="M44.7086 229.499C44.7086 229.699 44.8086 229.699 44.9086 229.799C45.1086 228.899 45.3086 227.799 45.5086 226.899C45.7086 225.999 46.0086 225.299 46.2086 224.899C46.5086 224.299 46.1086 224.099 46.2086 223.299L46.6086 222.999C46.6086 222.499 47.3086 221.399 46.7086 221.699C46.6086 221.699 46.8086 222.099 46.6086 222.499L46.5086 222.399L46.3086 223.199L46.2086 222.899C45.6086 223.899 46.5086 223.899 46.0086 225.199L45.6086 225.099C45.3086 225.999 45.3086 226.499 44.8086 227.299C44.8086 227.299 45.0086 227.399 45.0086 227.199C45.1086 226.999 45.3086 226.899 45.4086 226.999C45.4086 228.499 45.2086 226.699 44.8086 227.699C44.8086 228.999 44.5086 231.299 44.1086 231.999C44.5086 231.499 44.6086 232.399 44.4086 233.099C44.2086 233.399 44.2086 232.799 44.1086 232.699C44.0086 232.999 43.8086 233.199 43.8086 233.599C44.1086 233.199 44.4086 233.499 44.4086 234.299C44.8086 232.599 44.2086 231.099 44.7086 229.499Z" fill="#9D9D6C"/>
<path d="M44.9086 230.099C44.9086 229.899 44.9086 229.899 44.9086 229.799C44.9086 229.999 44.8086 230.199 44.8086 230.399L44.9086 230.099Z" fill="#9D9D6C"/>
<path d="M102.409 94.2004C76.3092 114.7 67.7092 156.3 66.9092 175.8C75.9092 151.7 114.009 151.2 135.309 133.2C148.809 121.8 157.809 99.1004 158.509 83.1004C145.609 78.1004 122.909 78.1004 102.409 94.2004Z" fill="white"/>
<path d="M102.309 94.1004L103.009 93.7004L103.109 93.4004L102.309 94.1004Z" fill="#9D9D6C"/>
<path d="M105.908 92.6005C106.308 92.3005 106.608 92.0005 107.008 91.7005C105.908 91.5005 106.908 91.1005 104.908 91.9005C104.408 92.4005 103.208 93.6005 103.508 93.7005C103.908 93.4005 104.408 92.7005 105.108 92.3005C104.908 92.7005 104.208 93.2005 104.108 93.6005C105.308 93.0005 104.608 93.0005 105.908 92.2005V92.6005Z" fill="#9D9D6C"/>
<path d="M106.809 91.1004C106.809 91.3004 106.709 91.4004 106.809 91.5004C106.909 91.3004 107.409 90.8004 106.809 91.1004Z" fill="#9D9D6C"/>
<path d="M107.509 90.6004C108.209 90.2004 107.609 90.8004 107.709 90.8004L108.309 89.9004L107.509 90.6004Z" fill="#9D9D6C"/>
<path d="M110.608 88.7C110.708 88.6 110.808 88.5 110.908 88.5C110.808 88.5 110.708 88.6 110.608 88.7Z" fill="#9D9D6C"/>
<path d="M112.109 87.7998C111.709 87.7998 111.409 88.0998 110.909 88.4998C110.909 88.4998 110.909 88.4998 111.009 88.4998C111.509 88.3998 111.309 88.8998 110.509 89.1998C109.809 89.6998 109.709 89.3998 109.209 89.9998L110.209 89.6998C111.309 88.8998 111.709 88.1998 112.109 87.7998Z" fill="#9D9D6C"/>
<path d="M110.609 88.7002C110.509 88.8002 110.309 88.9002 110.209 88.9002C110.409 88.9002 110.509 88.8002 110.609 88.7002Z" fill="#9D9D6C"/>
<path d="M109.009 89.5996L108.709 89.8996L108.809 89.9996L109.009 89.5996Z" fill="#9D9D6C"/>
<path d="M114.709 86.4003C114.709 86.9003 112.809 87.3003 112.809 87.8003C113.809 87.2003 114.809 87.1003 114.709 87.5003L115.809 86.8003C116.109 86.4003 115.409 86.3003 114.709 86.4003Z" fill="#9D9D6C"/>
<path d="M117.509 86.4002C117.609 86.3002 117.609 86.3002 117.709 86.2002C117.609 86.3002 117.509 86.4002 117.509 86.4002Z" fill="#9D9D6C"/>
<path d="M123.308 83.4004C122.808 83.6004 122.408 83.8004 121.908 84.1004L120.608 84.9004C120.808 84.7004 120.708 84.6004 121.308 84.3004C120.008 84.7004 120.008 85.1004 118.908 85.4004C118.408 85.1004 120.708 84.7004 120.008 84.5004C119.308 84.8004 118.208 85.2004 117.808 85.8004L116.608 86.0004L117.208 86.3004C117.708 86.2004 118.008 85.5004 118.408 85.7004C118.608 85.8004 118.208 86.1004 117.908 86.3004C118.608 85.8004 120.008 85.9004 121.508 85.2004C122.908 84.5004 122.308 84.0004 123.308 83.4004Z" fill="#9D9D6C"/>
<path d="M123.509 83.8998L123.809 83.9998L123.609 83.7998L123.509 83.8998Z" fill="#9D9D6C"/>
<path d="M126.508 82.3005C126.008 82.5005 125.508 82.7005 125.108 83.0005C124.908 83.0005 124.808 82.9005 124.708 82.9005C124.808 83.0005 124.408 83.3005 124.508 83.4005C124.908 83.5005 125.308 83.3005 125.808 83.1005C126.208 82.9005 126.708 82.6005 127.108 82.5005C129.308 82.2005 127.108 82.7005 128.008 82.9005C127.408 83.0005 127.408 82.9005 126.508 83.1005C127.908 83.3005 129.408 82.4005 130.308 82.1005C130.008 82.1005 130.008 82.0005 129.508 82.1005C129.808 82.0005 130.108 81.9005 130.408 81.8005C129.308 81.7005 128.508 81.8005 126.508 82.3005Z" fill="#9D9D6C"/>
<path d="M123.809 83.0998C124.309 82.8998 124.609 82.8998 124.609 82.8998C124.509 82.8998 124.309 82.7998 123.809 83.0998Z" fill="#9D9D6C"/>
<path d="M130.709 82.0996C130.609 82.0996 130.409 82.0996 130.209 82.1996C130.409 82.0996 130.509 82.0996 130.709 82.0996Z" fill="#9D9D6C"/>
<path d="M129.709 81.7L130.809 81.6L130.309 81.5C130.209 81.5 129.709 81.6 129.709 81.7Z" fill="#9D9D6C"/>
<path d="M155.609 95.6C155.809 95.5 156.009 95.2 156.109 94.3C156.309 94.4 156.009 95.5 156.009 96C156.409 94.9 156.309 96.1 156.509 95.9C156.809 94.7 156.609 94.1 157.009 92.8C157.009 92.9 157.209 92.9 157.309 92.7C157.409 91.9 157.509 90.8 157.609 89.7C157.709 88.6 157.809 87.6 158.009 86.8C158.209 86.1 158.209 85.4 158.209 84.7C158.209 84.4 158.209 84 158.209 83.7C158.209 83.5 158.209 83.4 158.209 83.2C158.109 83.1 157.909 83.1 157.709 83C157.109 82.8 156.509 82.5 155.809 82.3C155.109 82.1 154.509 81.9 153.809 81.7C153.109 81.5 152.409 81.4 151.709 81.2C151.009 81.1 150.309 80.9 149.609 80.8C148.209 80.6 146.809 80.4 145.309 80.3C143.909 80.1 142.409 80.1 140.909 80C140.609 80.2 140.309 80.3 140.109 80.4C139.809 80.2 138.709 80.5 138.909 80.2C139.209 80.2 139.509 80.2 139.909 80.2C138.609 79.9 136.609 80.4 135.109 80.4C135.309 80.5 135.609 80.8 135.109 80.9C135.209 80.4 133.309 81.1 132.809 80.6C131.309 80.7 132.809 81 131.309 81.2C131.209 81.5 132.809 81.1 133.109 81.3C132.709 81.6 131.709 81.4 131.809 81.7C133.009 81.5 134.809 81.2 136.709 80.9C137.709 80.8 138.709 80.6 139.709 80.5C140.709 80.4 141.709 80.4 142.709 80.3L142.309 80.6C142.809 80.6 143.409 80.5 144.009 80.5C144.609 80.5 145.209 80.6 145.809 80.6C147.009 80.7 148.209 81 148.909 81.3C148.709 81.2 149.409 81.3 150.209 81.4C150.909 81.5 151.609 81.6 151.609 81.3C152.109 81.5 152.209 81.5 152.909 81.7L153.109 81.6C154.109 81.9 153.809 82.1 154.909 82.4C154.209 82 155.109 82.1 155.509 82C155.809 82.1 156.109 82.3 156.409 82.5L156.909 82.8C157.009 82.9 157.209 83 157.309 83C157.409 83.1 157.409 83.1 157.509 83.2C157.509 83.3 157.609 83.3 157.609 83.4C157.509 83.6 157.509 83.7 157.409 83.8C157.509 83.7 157.609 83.7 157.709 83.5C157.609 83.9 157.809 83.9 157.909 84.1C157.909 84.9 157.509 84.8 157.409 84.7C157.209 86.1 157.709 86.8 157.409 87.8L157.709 87.5C157.609 89 157.109 90.1 156.909 91.7C156.409 92.4 156.809 90.3 156.809 89.7C156.709 90 156.509 90.7 156.409 90.9C156.409 91.3 156.509 91.7 156.509 92.2C156.509 92.7 156.509 93.2 156.509 93.6C156.109 93 155.709 95 155.609 95.6Z" fill="#9D9D6C"/>
<path d="M156.308 91.2002C156.308 91.0002 156.308 90.8002 156.208 90.7002C156.208 90.9002 156.208 91.0002 156.108 91.2002C156.208 91.3002 156.308 91.2002 156.308 91.2002Z" fill="#9D9D6C"/>
<path d="M155.609 95.5996C155.509 95.5996 155.509 95.5996 155.609 95.5996C155.509 95.6996 155.509 95.6996 155.609 95.5996Z" fill="#9D9D6C"/>
<path d="M158.109 86.5996C158.109 86.6996 158.109 86.6996 158.009 86.7996C158.009 86.8996 158.009 86.9996 158.009 87.0996L158.109 86.5996Z" fill="#9D9D6C"/>
<path d="M157.009 85.2996C157.109 84.9996 157.209 84.5996 157.409 84.0996C157.309 84.2996 157.209 84.3996 157.009 85.2996Z" fill="#9D9D6C"/>
<path d="M151.008 82C150.708 82 150.908 82.1 150.608 82.1C151.308 82.3 151.508 82.3 151.008 82Z" fill="#9D9D6C"/>
<path d="M155.909 92.9004L155.709 94.1004V94.5004L155.909 92.9004Z" fill="#9D9D6C"/>
<path d="M148.509 116.5C149.309 115.7 149.909 114.2 150.509 113C151.409 110.7 150.009 112.4 151.009 110.3L151.409 110.9C152.409 108.8 153.709 105.7 153.809 103.7C153.909 103.6 154.209 103.2 154.009 103.8C154.509 102.3 153.409 102.7 154.209 100.8C154.009 102.8 154.809 100.3 155.009 100.9V101.2C155.409 99.9004 155.709 98.2004 155.909 97.4004C155.709 97.3004 155.309 98.0004 155.609 96.9004C155.409 97.3004 155.309 97.1004 155.209 97.0004C155.109 98.2004 154.809 98.8004 154.809 99.6004C154.409 100.2 154.909 99.2004 154.509 99.7004L154.409 100.7C154.109 101.4 154.409 99.9004 154.009 101C154.109 101.2 153.909 102.1 153.609 102.9V102.6C153.509 103.2 153.009 104.1 153.509 103.9L152.909 104.5H153.209C152.509 106.2 151.709 106.6 151.109 108.8C151.409 108.3 151.309 108.8 151.209 109.1C151.709 108.3 151.509 107.9 151.809 107.1C152.109 107.1 151.809 108.6 152.309 107.6C151.509 108.6 151.509 109.8 150.609 110C149.909 111.3 150.009 112 149.209 113.2L149.109 113.1C149.309 113.5 148.409 114.1 148.209 115.3L148.609 114.6C148.709 114.7 148.609 115.1 148.309 115.5C148.309 115.4 148.309 115.4 148.109 115.5C148.309 115.8 147.509 117.3 147.509 117.5C147.909 116.9 148.109 116 148.409 115.2C148.609 115.9 148.909 115.9 148.509 116.5Z" fill="#9D9D6C"/>
<path d="M144.609 122C144.009 122.8 144.509 121.6 143.909 122.3C143.509 123.2 144.909 121.6 144.609 122.6C144.109 123 143.809 123.9 143.609 124.2C143.709 123.7 143.209 123.7 143.109 123.8C143.009 124.2 142.309 124.7 142.009 125.2C143.109 124.1 141.309 126.3 142.409 125.4C142.509 125.6 141.709 126.8 141.209 127.2C141.109 127.1 141.409 126.7 141.709 126.4C141.709 126 140.909 127 140.609 127C140.409 127.3 140.209 127.8 139.809 128.4C139.409 128.9 139.009 129.4 138.609 129.9C137.909 130.9 137.409 131.6 138.109 131.4C138.609 131.1 138.709 130.7 139.109 130.3C137.909 131.3 138.809 130 138.809 129.9C139.309 129.5 139.909 128.5 139.909 128.9L139.409 129.8C141.809 127.5 144.609 123.8 146.509 120.5L145.609 121.9C145.509 121.6 146.009 121 146.209 120.4L145.409 120.8C145.709 120.4 145.909 120 146.009 120.1C146.109 119.5 145.909 119.7 145.609 119.9C146.209 118.8 146.409 118.7 146.609 117.8C145.309 119.3 146.009 119.4 144.509 121.2L144.609 122Z" fill="#9D9D6C"/>
<path d="M146.709 118.1V118.7L147.009 117.9L146.709 118.1Z" fill="#9D9D6C"/>
<path d="M147.209 119.3C147.109 119.3 147.209 119 147.109 118.9C146.609 119.8 146.809 119.7 147.209 119.3Z" fill="#9D9D6C"/>
<path d="M139.709 128L138.909 128.9L139.509 128.4C139.409 128.3 139.609 128.1 139.709 128Z" fill="#9D9D6C"/>
<path d="M134.308 134.8C135.608 133.7 136.008 133 137.608 131.9C138.108 131 136.908 131.8 137.008 131.3C136.308 131.9 136.708 132.2 136.008 132.9C135.608 133 134.908 133.9 134.108 134.4C134.308 134.5 134.408 134.6 134.308 134.8Z" fill="#9D9D6C"/>
<path d="M128.909 137.3C128.209 137.7 127.709 138.3 127.109 138.5C127.109 138.3 127.509 138 127.909 137.8C127.509 137.6 127.209 138.3 126.409 138.5C126.509 138.5 126.809 138.4 126.609 138.6C124.709 139.5 125.709 139.5 123.209 140.5C122.909 140.8 122.609 140.9 122.709 141.1C121.209 141.5 121.909 141.2 120.109 141.7C120.209 141.8 120.909 141.8 121.009 142.1C118.409 142.8 118.609 143.3 116.909 143.7C117.109 143.6 117.209 143.4 117.709 143.3C117.309 143 116.509 144 115.609 144.2L115.509 143.8C114.709 144.2 113.509 145 112.409 145.2L112.609 144.9C110.709 146 108.209 146.8 106.609 147.6L105.609 147.7C103.309 148.9 108.009 146.9 106.509 148.1C106.009 147.6 105.309 148.8 103.909 149.1C103.209 149.1 105.209 148.4 104.409 148.4C104.209 148.8 103.709 148.8 103.009 149.2C103.009 148.8 101.509 149.7 101.809 149.2L99.5086 150.8C99.0086 150.8 98.3086 151.1 97.8086 151.4C99.2086 150.9 97.6086 152 99.2086 151.5C101.409 150.5 105.109 148.9 108.009 148C108.109 147.5 109.809 147.3 110.109 146.8C110.209 146.9 110.509 146.9 110.609 147C112.409 146.2 110.109 146.9 110.509 146.6C111.309 146.2 112.009 146.2 112.009 146.4C113.309 145.9 112.109 146.2 112.709 145.7L113.709 145.8C117.709 144 122.809 141.3 127.309 139L126.809 138.9C128.809 137.9 129.609 136.4 131.709 135.8L132.109 135.2C131.909 135.5 132.709 135.4 132.309 135.9C132.709 135.4 133.309 135.2 133.809 134.7C133.509 134.9 133.109 135.1 132.809 135.2C133.309 134.5 134.109 134.1 134.409 134.1C135.509 132.8 133.309 134.3 132.809 134.3C131.209 136.2 130.609 135.2 128.809 136.6C127.509 137.9 128.909 137.2 128.909 137.3Z" fill="#9D9D6C"/>
<path d="M131.809 136.4C131.909 136.3 132.009 136.2 132.009 136.1C131.909 136.2 131.909 136.3 131.809 136.4Z" fill="#9D9D6C"/>
<path d="M97.5083 151.6C97.3083 151.7 97.1083 151.7 96.9083 151.9C96.7083 152 97.0083 151.8 97.5083 151.6Z" fill="#9D9D6C"/>
<path d="M134.509 133.1L134.009 133.5L134.209 133.6L134.509 133.1Z" fill="#9D9D6C"/>
<path d="M91.209 153.8L91.309 154C91.309 153.9 91.309 153.8 91.209 153.8Z" fill="#9D9D6C"/>
<path d="M75.5088 162.8L75.8088 162.6C75.7088 162.7 75.6088 162.8 75.5088 162.8Z" fill="#9D9D6C"/>
<path d="M71.5088 148.6C71.7088 147.4 72.0088 145.9 72.0088 145L72.1088 145.1C72.2088 144.5 72.5088 142.4 71.8088 143.6L71.9088 143.9C71.7088 145.4 71.3088 144.9 70.9088 146C70.6088 147.4 71.0088 148.3 70.6088 149.5C70.5088 150 70.3088 149.9 70.3088 149.7C70.0088 150.9 70.3088 151.5 70.2088 152.3C68.9088 152.4 69.7088 156.1 68.6088 157.8C68.5088 159 68.1088 160.5 68.1088 162C67.9088 161.2 67.9088 163.4 67.6088 163C68.2088 163.5 66.7088 167.2 67.6088 167.6C67.1088 169.6 67.6088 167.7 67.2088 170C67.1088 170 67.1088 169.6 67.1088 169.4C66.8088 170.3 67.4088 170.9 66.9088 171.6C66.7088 173.5 67.1088 171.9 67.3088 173.1C67.1088 175 67.0088 174.5 66.5088 175.5C66.6088 175.5 66.6088 175.6 66.7088 175.7L67.2088 175.8C67.2088 175.4 67.6088 174.6 67.8088 173.8C67.7088 174 67.1088 175.2 67.3088 174.3C67.8088 173.3 67.9088 172.8 68.1088 172.4C68.2088 172 68.3088 171.5 68.8088 170.6C69.3088 170.3 69.0088 170.7 68.8088 171.1C68.6088 171.5 68.4088 171.7 69.0088 171C68.7088 171.6 68.5088 172.2 68.3088 172.7C68.1088 173.2 68.0088 173.6 68.0088 174C68.4088 173.2 68.8088 172.3 69.3088 171.4C69.8088 170.5 70.3088 169.6 70.8088 168.8C71.5088 168 70.6088 169.4 71.2088 168.7C71.8088 168 72.3088 167.4 72.6088 166.8C73.0088 166.2 73.3088 165.6 74.0088 165.2L73.9088 165.6C74.3088 164.7 76.4088 163.3 77.8088 162.1C77.5088 162.1 77.4088 162.2 77.5088 162C77.8088 162.5 79.3088 160.2 81.1088 159.7C80.8088 159.4 82.1088 158.3 83.1088 157.8C83.5088 157.7 83.5088 157.9 83.5088 158C81.8088 158.7 82.2088 159.2 81.1088 160.1C82.0088 159.3 83.8088 158.5 84.5088 157.8L84.3088 158.3C85.7088 157.6 85.2088 157 86.9088 156.5V156.8C90.0088 155.2 93.8088 154 96.2088 152.5C96.4088 152.2 94.9088 152.4 94.8088 152.2C93.3088 153 92.6088 153.7 91.5088 154.3L91.4088 154C91.2088 154.3 89.9088 155.1 90.8088 154.9C90.0088 155.5 90.0088 154.9 89.0088 155.6C88.9088 155.2 89.5088 154.9 89.4088 154.6L88.6088 155.2C88.8088 154.9 88.0088 155.4 88.2088 155.1C86.7088 156.3 85.7088 156.1 84.1088 157.2C84.4088 157 84.8088 156.9 85.1088 156.7C85.2088 156.9 84.6088 157.2 84.2088 157.4C83.6088 157.4 83.3088 157.6 82.4088 158C81.7088 158.6 81.5088 159.2 80.5088 159.8C80.5088 159.3 78.8088 160.7 78.4088 160.6C78.4088 161 76.6088 162.1 76.6088 162.4C76.1088 162.8 75.5088 163.4 75.3088 163.2C75.4088 163.1 75.5088 163 75.6088 162.8L75.1088 163.2C75.1088 163.1 75.1088 163.1 75.1088 163.1C74.7088 163.5 74.8088 163.7 74.2088 164C74.1088 163.9 74.4088 163.7 74.6088 163.4C74.0088 163.9 73.6088 164.5 73.3088 165C72.9088 165.5 72.6088 166 72.0088 166.4C72.0088 166.7 70.8088 168 71.4088 168C71.0088 168.3 70.8088 167.9 70.1088 169C69.9088 169.8 69.2088 170.1 68.9088 171C69.3088 169.7 68.8088 170.9 69.1088 169.8C68.8088 170.1 68.6088 170.6 68.3088 171.2C68.1088 171.8 67.9088 172.5 67.5088 173.1C67.4088 173.2 67.3088 173.1 67.1088 173.3C67.0088 173.9 67.0088 174.6 66.5088 175H66.8088C66.7088 175.2 66.6088 175.4 66.5088 175.7L67.5088 175.9C67.6088 175 67.6088 174 67.9088 173.2L67.5088 171.9C68.1088 170.3 67.9088 168 67.7088 166.6C67.8088 166 68.0088 165.1 68.1088 165.1C68.1088 165.2 68.1088 165.5 68.2088 165.8C68.3088 164.9 68.8088 163.8 68.5088 163.3C68.5088 162.4 68.9088 162.7 69.1088 162C68.8088 160 70.5088 156.6 69.8088 155.9C69.6088 156.7 69.2088 158.1 69.0088 159.5C69.0088 159.1 68.8088 159.4 68.8088 158.8C69.0088 157.3 69.5088 156.6 69.6088 155.2L70.1088 155.5C71.0088 152.9 70.3088 150.4 71.5088 148.6Z" fill="#9D9D6C"/>
<path d="M68.0088 167.2L68.4088 166.2L68.2088 166.3C68.1088 166.6 68.1088 167 68.0088 167.2Z" fill="#9D9D6C"/>
<path d="M72.5088 144.5C72.6088 144.3 72.8088 143.8 72.8088 143.4C72.7088 143.6 72.5088 144.2 72.5088 144.5Z" fill="#9D9D6C"/>
<path d="M72.7088 143.2L72.5088 143.7V143.8L72.7088 143.2Z" fill="#9D9D6C"/>
<path d="M84.809 114.1L85.409 112.4C85.709 112.2 86.609 110.5 86.509 111.2C86.709 110.1 88.409 108.5 87.409 108.8C84.609 113.1 80.809 119.1 78.809 124.7L79.009 123.7C78.109 126.7 76.809 127.4 76.709 130L76.409 129.5C75.809 130.8 76.009 132.2 75.109 133.4L75.309 133.3C75.209 133.7 75.009 133.8 74.909 134.1L75.009 134C74.809 135 74.609 135.6 74.109 136.5C73.909 136.5 74.209 136 74.309 135.7C74.009 136.1 74.009 136.9 73.809 137.7C73.509 138.2 73.609 137.6 73.609 137.5C73.109 139.8 72.309 140.7 72.509 142.5C72.609 142.7 72.909 142 72.709 142.8C73.309 141.4 73.509 140.1 73.709 138.7L73.609 139.1C73.309 137.8 74.009 138.3 74.309 136.5C74.409 137 74.109 137.8 74.209 138.1C75.409 136.3 74.809 135.1 75.909 134.1V134.3C76.109 134 76.109 133.5 76.209 133C76.109 133.1 75.909 133.5 75.709 133.8C75.809 133.3 75.609 133 75.609 132.8C76.109 132.4 75.709 132.1 76.209 131.3C76.609 131.1 76.209 132.1 76.209 132.4L76.409 131.4C76.709 130.5 77.009 130.7 77.309 130.3C77.409 129.5 77.009 130.7 77.009 130C77.709 129.2 79.309 125.2 79.909 123.3C79.609 124 80.109 123.6 79.709 124.4C79.909 124.1 80.209 123.1 80.009 123C80.509 121.6 81.409 120.1 82.209 119L81.809 119.2C82.009 118 83.409 116.9 84.209 115.1C84.509 114.5 84.309 113.8 85.009 112.9C84.909 113.5 84.509 114.1 84.809 114.1Z" fill="#9D9D6C"/>
<path d="M88.2086 108.1L88.1086 108.8C88.6086 108.3 88.8086 107.3 88.5086 107.3C88.3086 107.7 87.8086 108.2 87.9086 108.3C87.9086 108.3 88.0086 108.4 88.2086 108.1Z" fill="#9D9D6C"/>
<path d="M96.7085 98.0002C96.8085 97.8002 96.7085 97.7002 96.7085 97.6002C94.7085 99.6002 92.5085 102.2 91.6085 103C90.9085 103.7 91.1085 104.1 90.5085 105.1L89.9085 105.3C89.7085 105.9 88.2085 107.3 89.0085 107C89.1085 107 89.2085 106.4 89.6085 106L89.7085 106.2L90.4085 105.2L90.3085 105.6C91.6085 104.4 90.6085 104.3 92.1085 102.8L92.4085 103.1C93.3085 102 93.7085 101.4 94.7085 100.7C94.7085 100.7 94.6085 100.6 94.5085 100.8C94.3085 101 94.0085 101.1 94.0085 100.9C95.2085 99.1002 94.0085 101.3 95.1085 100.3C95.6085 99.6002 96.5085 98.5002 97.3085 97.6002C98.2085 96.7002 99.0085 96.0002 99.5085 95.8002C98.7085 96.2002 99.5085 95.1002 100.308 94.5002C100.808 94.3002 100.208 94.9002 100.208 95.1002C100.608 94.8002 101.008 94.7002 101.308 94.3002C100.708 94.5002 100.808 94.0002 101.608 93.2002C100.608 93.9002 99.8085 94.7002 99.1085 95.5002C98.3085 96.3002 97.6085 97.2002 96.7085 98.0002Z" fill="#9D9D6C"/>
<path d="M97.0086 97.2004C96.8086 97.4004 96.8086 97.5004 96.8086 97.6004C97.0086 97.4004 97.3086 97.1004 97.5086 96.9004L97.0086 97.2004Z" fill="#9D9D6C"/>
<mask id="path-133-outside-1_151:320" maskUnits="userSpaceOnUse" x="264" y="79" width="578" height="191" fill="black">
<rect fill="white" x="264" y="79" width="578" height="191"/>
<path d="M268.556 266.614C266.641 255.139 265.547 242.024 265.547 227.269C265.547 221.532 265.821 213.062 266.368 201.859L266.915 176.449C265.547 173.99 265 171.804 265 170.165C266.915 167.159 267.736 158.963 267.736 145.028C267.736 111.968 267.188 94.2078 266.368 92.022C268.009 87.3771 269.377 85.1913 270.198 85.1913H282.234C284.149 85.1913 287.158 86.2842 290.714 88.1968C294.544 90.1094 297.827 92.022 300.289 94.2078C304.939 98.3063 307.128 109.235 307.128 126.449C307.128 135.738 306.854 142.842 306.307 147.76C306.034 151.312 305.213 154.045 304.392 155.957C303.572 157.87 302.477 160.329 300.836 162.788C298.101 166.886 293.45 170.711 286.885 173.717C284.149 175.083 280.319 176.722 275.395 178.089V210.603C275.395 215.248 275.942 223.991 276.763 237.379L277.31 246.122L277.857 263.882C277.857 267.161 276.216 268.8 272.66 268.8L268.556 266.614ZM277.31 168.799C282.508 168.799 287.158 166.34 290.714 161.422C292.082 159.509 293.176 157.05 294.271 154.045C295.365 151.039 296.186 148.034 296.459 145.028C297.553 139.837 298.101 133.553 298.101 126.722V119.345C298.101 116.886 298.101 114.427 297.827 111.968C297.553 109.509 297.28 107.323 296.733 105.137C295.912 102.678 295.091 100.765 293.724 99.3991C292.629 97.7598 290.988 96.3936 289.073 95.3007C286.885 94.2078 284.149 93.6614 281.14 93.6614C278.951 93.6614 277.31 94.2078 276.489 95.3007C275.669 96.3936 275.122 98.3063 275.122 101.039C275.122 105.41 275.395 111.968 275.942 120.711L276.489 140.383C276.489 145.028 276.216 149.4 275.942 153.225L275.395 166.067L277.31 168.799ZM341.596 266.887C339.134 266.887 337.493 264.702 336.946 260.603C337.219 259.51 337.493 256.505 337.493 251.587C337.493 234.92 337.766 210.056 338.314 176.996C338.861 144.208 339.134 120.438 339.134 105.957L339.681 96.1204L340.502 87.9236C340.502 86.5574 341.049 86.011 342.417 86.011C343.238 86.011 344.605 86.2842 346.247 86.8307L347.067 87.1039C347.067 91.2023 347.067 94.7543 346.794 98.033V108.689V138.471C347.067 147.214 347.067 157.05 347.067 168.252C346.794 169.072 346.794 171.258 346.794 174.263L346.52 180.001C346.247 183.553 346.247 187.378 346.247 191.203C346.247 195.302 346.247 199.127 346.52 202.679L346.794 214.428L345.973 216.614L346.247 216.34C346.247 216.887 346.247 217.16 345.973 217.433V218.526C345.973 219.892 346.247 221.258 346.794 222.351L345.973 248.581V250.221C345.973 253.226 345.973 255.139 346.247 255.685C346.247 256.505 346.794 257.051 347.615 257.051L361.84 257.598C365.943 257.598 368.952 257.598 370.32 257.871C371.961 257.871 373.055 257.871 373.329 257.871H374.15C374.97 257.871 376.065 258.417 376.885 259.51C377.706 260.33 378.253 261.423 378.253 262.516C378.253 264.702 376.885 265.795 373.876 266.068C370.867 265.795 363.207 265.794 351.171 265.794L351.718 266.068C349.803 266.068 348.162 266.068 346.52 266.341C344.879 266.614 343.238 266.887 341.596 266.887ZM458.679 265.794C455.944 265.794 454.302 265.521 453.482 264.702C452.661 264.155 452.114 262.516 451.84 259.784C450.199 246.395 449.105 238.199 448.831 234.92L447.463 223.991C443.36 223.171 438.983 222.625 433.785 222.625L423.937 222.078C419.56 221.532 416.278 221.258 414.363 221.258C413.269 221.258 412.721 221.805 412.448 222.625C412.448 223.171 412.448 223.444 412.174 223.444L411.627 228.909C411.354 232.188 410.533 238.745 408.618 248.581C407.797 253.499 406.703 257.324 405.335 260.057C403.968 263.062 402.6 264.702 401.232 264.702C400.138 264.702 399.044 264.155 397.676 263.335C396.308 262.243 395.761 261.15 395.761 260.057L396.034 259.237L396.308 258.417C399.591 245.576 402.326 232.734 404.515 219.892L407.797 202.952L411.08 182.187C411.08 182.187 412.174 176.176 414.089 164.154C414.91 159.236 416.551 151.312 419.013 140.383C421.475 128.088 423.117 119.618 423.664 114.973C423.937 114.427 424.211 111.148 424.758 104.864C425.579 98.033 426.126 92.8417 426.673 89.563C427.22 84.9181 427.767 82.1858 428.314 81.3661H430.229C430.776 81.6394 431.323 81.6394 432.144 81.6394C434.333 81.6394 435.974 81.0929 437.068 80C438.436 80 439.53 80.5465 440.351 81.3661C441.445 82.1858 441.992 83.0055 441.992 84.0984C441.992 92.8417 442.539 102.951 443.907 114.153C444.728 119.891 445.275 124.809 445.548 128.634C447.463 152.132 452.661 196.122 460.868 260.876V261.696C460.868 263.609 460.047 264.975 458.679 265.794ZM446.096 216.614C444.181 190.384 440.898 151.586 435.7 100.492L420.928 173.444C416.825 194.482 414.636 207.597 414.636 213.062C414.636 213.881 418.193 214.701 425.032 215.521C431.871 216.34 438.162 216.614 443.36 216.614H446.096ZM560.169 264.428C558.801 264.428 557.707 263.882 556.887 262.789C556.339 261.696 555.792 260.057 555.245 257.871C554.972 256.505 554.698 255.139 554.151 254.046L554.425 253.226C553.057 244.756 549.774 234.1 545.124 221.805L540.2 207.597C539.926 207.324 538.011 202.679 535.002 193.663L532.813 187.105C516.4 136.558 506.005 108.962 501.901 104.864C500.534 109.782 499.713 116.066 499.713 123.99C499.713 128.088 499.713 131.913 499.986 134.919L500.26 145.575L499.986 152.132C499.713 154.045 499.713 156.23 499.713 158.689C499.713 162.788 499.986 166.067 500.26 169.072C500.534 174.81 500.807 177.815 500.807 177.815H499.986C499.986 208.144 500.534 225.084 501.901 228.089V252.68C502.722 254.046 502.996 255.958 502.996 258.417C502.996 259.784 502.449 261.15 501.354 262.243C500.534 263.335 499.166 263.882 497.798 263.882C493.968 263.882 492.053 258.964 492.053 249.128L492.6 240.384C492.874 237.652 493.148 234.647 493.148 231.368C493.148 222.625 492.874 209.51 492.327 192.023C491.78 174.537 491.506 161.422 491.506 152.678C491.506 147.487 491.78 139.29 492.327 128.361C492.874 117.705 493.148 109.509 493.148 104.317V100.765C493.148 91.7488 494.789 86.011 498.072 83.2788L498.892 84.0984L501.628 83.552C502.449 83.8252 503.269 84.3716 504.09 85.1913C504.911 86.011 505.184 86.8307 505.184 87.6504L505.731 89.2897C505.731 89.5629 505.731 90.1095 505.731 90.3827C506.005 90.6559 506.005 90.6558 506.005 90.6558C509.014 103.498 515.579 121.804 525.701 145.028C536.096 169.619 542.662 186.012 545.124 193.936C547.039 200.22 548.406 205.958 549.501 210.876C553.057 226.45 557.16 238.199 561.811 246.669L562.358 245.849C566.461 205.411 568.65 155.684 568.65 96.9401L568.376 93.6614C568.102 92.8417 568.102 91.4756 568.102 90.1094C568.102 86.2843 569.47 84.3717 571.932 84.3717C573.574 84.3717 574.941 85.1913 576.036 86.8307C577.403 88.47 577.951 90.3826 577.951 92.2952V110.601L576.583 112.787C576.583 130.001 575.489 158.416 573.574 198.034C571.659 237.652 569.744 258.964 567.829 262.516L563.178 263.609V263.882L562.905 263.609L560.169 264.428ZM634.304 259.51L634.03 249.401C633.756 246.395 633.756 243.117 633.756 239.565C633.756 237.652 633.756 236.286 634.03 234.92L634.304 230.002C634.304 228.089 634.03 225.903 633.209 223.444C633.209 211.149 632.389 188.471 630.474 155.411C628.559 123.443 627.738 101.585 627.465 90.1094C616.249 90.1094 608.589 89.8362 604.759 89.2897C601.203 88.47 599.288 86.8307 599.288 84.9181C600.109 83.0055 602.024 81.9126 604.486 81.9126C609.957 81.9126 617.89 82.1858 628.285 83.0055C637.86 83.8252 645.793 84.3717 652.085 84.3717H657.83L663.574 84.0984C666.857 84.0984 668.498 85.1914 668.498 87.6504C668.498 88.7433 667.951 89.563 666.583 90.3827C665.489 90.9291 664.121 91.2023 662.48 91.2023C658.924 91.2023 655.094 90.9291 650.991 90.6558L639.228 90.1094C638.407 90.1094 638.133 90.3826 638.133 90.9291C637.86 91.4755 637.86 93.1149 637.86 96.1204C637.86 113.88 638.954 140.656 641.143 176.449C643.057 213.608 644.152 240.384 644.152 256.505C644.152 257.871 643.331 258.964 641.69 260.057C640.322 261.15 638.681 261.696 637.313 261.696L634.304 259.51ZM725.946 268.527C704.608 268.527 693.939 234.92 693.939 167.979V158.416C693.939 107.596 700.505 82.1859 713.635 82.1859C714.456 82.1859 715.824 82.4591 717.465 83.0055C723.21 84.9181 728.955 86.2842 734.699 86.8307C738.256 87.6504 741.538 91.2023 745.095 97.4865C748.924 104.044 751.66 112.787 753.575 123.443C755.49 134.099 756.584 145.301 756.584 156.504L756.037 157.87C756.037 163.881 756.037 169.345 756.311 173.99L756.584 190.384C756.584 199.673 756.311 208.144 755.49 215.521C754.396 226.723 752.481 236.559 750.019 244.756C748.377 249.674 746.462 253.773 744.274 257.051C742.359 260.33 739.623 263.062 736.614 265.248C733.605 267.434 730.049 268.527 725.946 268.527ZM724.851 260.603C731.964 260.603 737.161 255.685 740.718 245.576C744.274 235.466 746.189 225.084 747.01 214.428C747.83 203.499 748.104 194.755 748.104 188.198C748.104 180.821 747.557 170.165 746.462 155.957C745.642 140.11 745.095 129.454 745.095 123.716L744 121.531L744.548 120.164C744.548 112.241 742.359 105.137 737.709 99.3991C733.332 93.6614 727.86 90.6558 721.569 90.6558C713.088 90.6558 708.164 94.7543 706.523 102.678C706.249 105.41 705.702 109.235 705.429 114.427C705.429 127.815 704.882 137.105 703.787 142.023C703.787 144.755 703.514 149.126 702.967 154.864L702.42 167.706C702.42 171.804 702.42 175.356 702.693 178.362L702.967 189.291C702.967 197.761 703.787 207.597 705.155 218.799C706.249 226.996 707.617 233.827 708.985 239.565C710.353 245.302 712.541 249.947 715.277 254.046C718.012 258.417 721.295 260.603 724.851 260.603ZM834.001 266.614C831.813 264.155 829.351 257.871 826.889 247.761C824.427 237.652 821.965 226.177 819.776 213.335C818.408 202.952 816.22 192.57 813.484 182.46C811.296 173.444 809.107 168.799 807.192 168.799H806.372C802.268 168.799 800.353 170.165 800.353 172.624C800.353 185.739 801.174 205.685 802.542 232.461C803.363 248.854 804.183 258.417 805.004 261.15L802.815 265.794H798.986L796.797 263.609C793.788 179.455 792.42 122.077 792.42 91.4756C792.42 89.563 792.42 87.9236 792.694 86.5574C792.967 85.1913 793.788 84.0984 794.609 83.0055C795.429 81.6394 796.524 81.0929 798.439 81.0929C807.74 81.0929 815.126 83.2787 820.87 87.9236C826.615 92.5684 829.351 99.1259 829.351 107.596V127.542C829.351 131.093 828.256 135.738 825.794 141.476C823.606 147.214 821.144 152.678 818.408 157.597L814.852 164.427C816.767 173.717 820.87 190.384 826.615 214.701C832.633 238.745 835.916 251.587 836.463 252.953C836.737 253.226 836.737 253.499 837.01 254.319C837.284 255.139 838.104 256.232 838.925 257.598C840.293 260.057 840.84 262.243 840.84 264.155C840.84 266.614 839.746 267.98 837.831 267.98L834.001 266.614ZM801.721 161.968C805.277 161.968 808.287 160.329 811.022 156.777C813.758 153.225 815.946 148.853 817.588 143.389C820.597 132.186 821.964 123.443 821.964 116.886C821.964 112.787 821.691 109.235 821.144 106.503C820.87 103.771 820.05 100.765 818.955 97.7598C816.767 91.4755 811.569 88.1968 803.363 88.1968C802.542 88.1968 801.721 89.0165 801.174 90.6558C800.627 92.022 800.353 93.6614 800.353 95.3007C800.353 107.596 800.627 118.525 800.901 128.361C801.174 138.197 801.174 149.127 801.174 161.422L801.721 161.968Z"/>
</mask>
<path d="M268.556 266.614C266.641 255.139 265.547 242.024 265.547 227.269C265.547 221.532 265.821 213.062 266.368 201.859L266.915 176.449C265.547 173.99 265 171.804 265 170.165C266.915 167.159 267.736 158.963 267.736 145.028C267.736 111.968 267.188 94.2078 266.368 92.022C268.009 87.3771 269.377 85.1913 270.198 85.1913H282.234C284.149 85.1913 287.158 86.2842 290.714 88.1968C294.544 90.1094 297.827 92.022 300.289 94.2078C304.939 98.3063 307.128 109.235 307.128 126.449C307.128 135.738 306.854 142.842 306.307 147.76C306.034 151.312 305.213 154.045 304.392 155.957C303.572 157.87 302.477 160.329 300.836 162.788C298.101 166.886 293.45 170.711 286.885 173.717C284.149 175.083 280.319 176.722 275.395 178.089V210.603C275.395 215.248 275.942 223.991 276.763 237.379L277.31 246.122L277.857 263.882C277.857 267.161 276.216 268.8 272.66 268.8L268.556 266.614ZM277.31 168.799C282.508 168.799 287.158 166.34 290.714 161.422C292.082 159.509 293.176 157.05 294.271 154.045C295.365 151.039 296.186 148.034 296.459 145.028C297.553 139.837 298.101 133.553 298.101 126.722V119.345C298.101 116.886 298.101 114.427 297.827 111.968C297.553 109.509 297.28 107.323 296.733 105.137C295.912 102.678 295.091 100.765 293.724 99.3991C292.629 97.7598 290.988 96.3936 289.073 95.3007C286.885 94.2078 284.149 93.6614 281.14 93.6614C278.951 93.6614 277.31 94.2078 276.489 95.3007C275.669 96.3936 275.122 98.3063 275.122 101.039C275.122 105.41 275.395 111.968 275.942 120.711L276.489 140.383C276.489 145.028 276.216 149.4 275.942 153.225L275.395 166.067L277.31 168.799ZM341.596 266.887C339.134 266.887 337.493 264.702 336.946 260.603C337.219 259.51 337.493 256.505 337.493 251.587C337.493 234.92 337.766 210.056 338.314 176.996C338.861 144.208 339.134 120.438 339.134 105.957L339.681 96.1204L340.502 87.9236C340.502 86.5574 341.049 86.011 342.417 86.011C343.238 86.011 344.605 86.2842 346.247 86.8307L347.067 87.1039C347.067 91.2023 347.067 94.7543 346.794 98.033V108.689V138.471C347.067 147.214 347.067 157.05 347.067 168.252C346.794 169.072 346.794 171.258 346.794 174.263L346.52 180.001C346.247 183.553 346.247 187.378 346.247 191.203C346.247 195.302 346.247 199.127 346.52 202.679L346.794 214.428L345.973 216.614L346.247 216.34C346.247 216.887 346.247 217.16 345.973 217.433V218.526C345.973 219.892 346.247 221.258 346.794 222.351L345.973 248.581V250.221C345.973 253.226 345.973 255.139 346.247 255.685C346.247 256.505 346.794 257.051 347.615 257.051L361.84 257.598C365.943 257.598 368.952 257.598 370.32 257.871C371.961 257.871 373.055 257.871 373.329 257.871H374.15C374.97 257.871 376.065 258.417 376.885 259.51C377.706 260.33 378.253 261.423 378.253 262.516C378.253 264.702 376.885 265.795 373.876 266.068C370.867 265.795 363.207 265.794 351.171 265.794L351.718 266.068C349.803 266.068 348.162 266.068 346.52 266.341C344.879 266.614 343.238 266.887 341.596 266.887ZM458.679 265.794C455.944 265.794 454.302 265.521 453.482 264.702C452.661 264.155 452.114 262.516 451.84 259.784C450.199 246.395 449.105 238.199 448.831 234.92L447.463 223.991C443.36 223.171 438.983 222.625 433.785 222.625L423.937 222.078C419.56 221.532 416.278 221.258 414.363 221.258C413.269 221.258 412.721 221.805 412.448 222.625C412.448 223.171 412.448 223.444 412.174 223.444L411.627 228.909C411.354 232.188 410.533 238.745 408.618 248.581C407.797 253.499 406.703 257.324 405.335 260.057C403.968 263.062 402.6 264.702 401.232 264.702C400.138 264.702 399.044 264.155 397.676 263.335C396.308 262.243 395.761 261.15 395.761 260.057L396.034 259.237L396.308 258.417C399.591 245.576 402.326 232.734 404.515 219.892L407.797 202.952L411.08 182.187C411.08 182.187 412.174 176.176 414.089 164.154C414.91 159.236 416.551 151.312 419.013 140.383C421.475 128.088 423.117 119.618 423.664 114.973C423.937 114.427 424.211 111.148 424.758 104.864C425.579 98.033 426.126 92.8417 426.673 89.563C427.22 84.9181 427.767 82.1858 428.314 81.3661H430.229C430.776 81.6394 431.323 81.6394 432.144 81.6394C434.333 81.6394 435.974 81.0929 437.068 80C438.436 80 439.53 80.5465 440.351 81.3661C441.445 82.1858 441.992 83.0055 441.992 84.0984C441.992 92.8417 442.539 102.951 443.907 114.153C444.728 119.891 445.275 124.809 445.548 128.634C447.463 152.132 452.661 196.122 460.868 260.876V261.696C460.868 263.609 460.047 264.975 458.679 265.794ZM446.096 216.614C444.181 190.384 440.898 151.586 435.7 100.492L420.928 173.444C416.825 194.482 414.636 207.597 414.636 213.062C414.636 213.881 418.193 214.701 425.032 215.521C431.871 216.34 438.162 216.614 443.36 216.614H446.096ZM560.169 264.428C558.801 264.428 557.707 263.882 556.887 262.789C556.339 261.696 555.792 260.057 555.245 257.871C554.972 256.505 554.698 255.139 554.151 254.046L554.425 253.226C553.057 244.756 549.774 234.1 545.124 221.805L540.2 207.597C539.926 207.324 538.011 202.679 535.002 193.663L532.813 187.105C516.4 136.558 506.005 108.962 501.901 104.864C500.534 109.782 499.713 116.066 499.713 123.99C499.713 128.088 499.713 131.913 499.986 134.919L500.26 145.575L499.986 152.132C499.713 154.045 499.713 156.23 499.713 158.689C499.713 162.788 499.986 166.067 500.26 169.072C500.534 174.81 500.807 177.815 500.807 177.815H499.986C499.986 208.144 500.534 225.084 501.901 228.089V252.68C502.722 254.046 502.996 255.958 502.996 258.417C502.996 259.784 502.449 261.15 501.354 262.243C500.534 263.335 499.166 263.882 497.798 263.882C493.968 263.882 492.053 258.964 492.053 249.128L492.6 240.384C492.874 237.652 493.148 234.647 493.148 231.368C493.148 222.625 492.874 209.51 492.327 192.023C491.78 174.537 491.506 161.422 491.506 152.678C491.506 147.487 491.78 139.29 492.327 128.361C492.874 117.705 493.148 109.509 493.148 104.317V100.765C493.148 91.7488 494.789 86.011 498.072 83.2788L498.892 84.0984L501.628 83.552C502.449 83.8252 503.269 84.3716 504.09 85.1913C504.911 86.011 505.184 86.8307 505.184 87.6504L505.731 89.2897C505.731 89.5629 505.731 90.1095 505.731 90.3827C506.005 90.6559 506.005 90.6558 506.005 90.6558C509.014 103.498 515.579 121.804 525.701 145.028C536.096 169.619 542.662 186.012 545.124 193.936C547.039 200.22 548.406 205.958 549.501 210.876C553.057 226.45 557.16 238.199 561.811 246.669L562.358 245.849C566.461 205.411 568.65 155.684 568.65 96.9401L568.376 93.6614C568.102 92.8417 568.102 91.4756 568.102 90.1094C568.102 86.2843 569.47 84.3717 571.932 84.3717C573.574 84.3717 574.941 85.1913 576.036 86.8307C577.403 88.47 577.951 90.3826 577.951 92.2952V110.601L576.583 112.787C576.583 130.001 575.489 158.416 573.574 198.034C571.659 237.652 569.744 258.964 567.829 262.516L563.178 263.609V263.882L562.905 263.609L560.169 264.428ZM634.304 259.51L634.03 249.401C633.756 246.395 633.756 243.117 633.756 239.565C633.756 237.652 633.756 236.286 634.03 234.92L634.304 230.002C634.304 228.089 634.03 225.903 633.209 223.444C633.209 211.149 632.389 188.471 630.474 155.411C628.559 123.443 627.738 101.585 627.465 90.1094C616.249 90.1094 608.589 89.8362 604.759 89.2897C601.203 88.47 599.288 86.8307 599.288 84.9181C600.109 83.0055 602.024 81.9126 604.486 81.9126C609.957 81.9126 617.89 82.1858 628.285 83.0055C637.86 83.8252 645.793 84.3717 652.085 84.3717H657.83L663.574 84.0984C666.857 84.0984 668.498 85.1914 668.498 87.6504C668.498 88.7433 667.951 89.563 666.583 90.3827C665.489 90.9291 664.121 91.2023 662.48 91.2023C658.924 91.2023 655.094 90.9291 650.991 90.6558L639.228 90.1094C638.407 90.1094 638.133 90.3826 638.133 90.9291C637.86 91.4755 637.86 93.1149 637.86 96.1204C637.86 113.88 638.954 140.656 641.143 176.449C643.057 213.608 644.152 240.384 644.152 256.505C644.152 257.871 643.331 258.964 641.69 260.057C640.322 261.15 638.681 261.696 637.313 261.696L634.304 259.51ZM725.946 268.527C704.608 268.527 693.939 234.92 693.939 167.979V158.416C693.939 107.596 700.505 82.1859 713.635 82.1859C714.456 82.1859 715.824 82.4591 717.465 83.0055C723.21 84.9181 728.955 86.2842 734.699 86.8307C738.256 87.6504 741.538 91.2023 745.095 97.4865C748.924 104.044 751.66 112.787 753.575 123.443C755.49 134.099 756.584 145.301 756.584 156.504L756.037 157.87C756.037 163.881 756.037 169.345 756.311 173.99L756.584 190.384C756.584 199.673 756.311 208.144 755.49 215.521C754.396 226.723 752.481 236.559 750.019 244.756C748.377 249.674 746.462 253.773 744.274 257.051C742.359 260.33 739.623 263.062 736.614 265.248C733.605 267.434 730.049 268.527 725.946 268.527ZM724.851 260.603C731.964 260.603 737.161 255.685 740.718 245.576C744.274 235.466 746.189 225.084 747.01 214.428C747.83 203.499 748.104 194.755 748.104 188.198C748.104 180.821 747.557 170.165 746.462 155.957C745.642 140.11 745.095 129.454 745.095 123.716L744 121.531L744.548 120.164C744.548 112.241 742.359 105.137 737.709 99.3991C733.332 93.6614 727.86 90.6558 721.569 90.6558C713.088 90.6558 708.164 94.7543 706.523 102.678C706.249 105.41 705.702 109.235 705.429 114.427C705.429 127.815 704.882 137.105 703.787 142.023C703.787 144.755 703.514 149.126 702.967 154.864L702.42 167.706C702.42 171.804 702.42 175.356 702.693 178.362L702.967 189.291C702.967 197.761 703.787 207.597 705.155 218.799C706.249 226.996 707.617 233.827 708.985 239.565C710.353 245.302 712.541 249.947 715.277 254.046C718.012 258.417 721.295 260.603 724.851 260.603ZM834.001 266.614C831.813 264.155 829.351 257.871 826.889 247.761C824.427 237.652 821.965 226.177 819.776 213.335C818.408 202.952 816.22 192.57 813.484 182.46C811.296 173.444 809.107 168.799 807.192 168.799H806.372C802.268 168.799 800.353 170.165 800.353 172.624C800.353 185.739 801.174 205.685 802.542 232.461C803.363 248.854 804.183 258.417 805.004 261.15L802.815 265.794H798.986L796.797 263.609C793.788 179.455 792.42 122.077 792.42 91.4756C792.42 89.563 792.42 87.9236 792.694 86.5574C792.967 85.1913 793.788 84.0984 794.609 83.0055C795.429 81.6394 796.524 81.0929 798.439 81.0929C807.74 81.0929 815.126 83.2787 820.87 87.9236C826.615 92.5684 829.351 99.1259 829.351 107.596V127.542C829.351 131.093 828.256 135.738 825.794 141.476C823.606 147.214 821.144 152.678 818.408 157.597L814.852 164.427C816.767 173.717 820.87 190.384 826.615 214.701C832.633 238.745 835.916 251.587 836.463 252.953C836.737 253.226 836.737 253.499 837.01 254.319C837.284 255.139 838.104 256.232 838.925 257.598C840.293 260.057 840.84 262.243 840.84 264.155C840.84 266.614 839.746 267.98 837.831 267.98L834.001 266.614ZM801.721 161.968C805.277 161.968 808.287 160.329 811.022 156.777C813.758 153.225 815.946 148.853 817.588 143.389C820.597 132.186 821.964 123.443 821.964 116.886C821.964 112.787 821.691 109.235 821.144 106.503C820.87 103.771 820.05 100.765 818.955 97.7598C816.767 91.4755 811.569 88.1968 803.363 88.1968C802.542 88.1968 801.721 89.0165 801.174 90.6558C800.627 92.022 800.353 93.6614 800.353 95.3007C800.353 107.596 800.627 118.525 800.901 128.361C801.174 138.197 801.174 149.127 801.174 161.422L801.721 161.968Z" fill="#8F8F57"/>
<path d="M268.556 266.614C266.641 255.139 265.547 242.024 265.547 227.269C265.547 221.532 265.821 213.062 266.368 201.859L266.915 176.449C265.547 173.99 265 171.804 265 170.165C266.915 167.159 267.736 158.963 267.736 145.028C267.736 111.968 267.188 94.2078 266.368 92.022C268.009 87.3771 269.377 85.1913 270.198 85.1913H282.234C284.149 85.1913 287.158 86.2842 290.714 88.1968C294.544 90.1094 297.827 92.022 300.289 94.2078C304.939 98.3063 307.128 109.235 307.128 126.449C307.128 135.738 306.854 142.842 306.307 147.76C306.034 151.312 305.213 154.045 304.392 155.957C303.572 157.87 302.477 160.329 300.836 162.788C298.101 166.886 293.45 170.711 286.885 173.717C284.149 175.083 280.319 176.722 275.395 178.089V210.603C275.395 215.248 275.942 223.991 276.763 237.379L277.31 246.122L277.857 263.882C277.857 267.161 276.216 268.8 272.66 268.8L268.556 266.614ZM277.31 168.799C282.508 168.799 287.158 166.34 290.714 161.422C292.082 159.509 293.176 157.05 294.271 154.045C295.365 151.039 296.186 148.034 296.459 145.028C297.553 139.837 298.101 133.553 298.101 126.722V119.345C298.101 116.886 298.101 114.427 297.827 111.968C297.553 109.509 297.28 107.323 296.733 105.137C295.912 102.678 295.091 100.765 293.724 99.3991C292.629 97.7598 290.988 96.3936 289.073 95.3007C286.885 94.2078 284.149 93.6614 281.14 93.6614C278.951 93.6614 277.31 94.2078 276.489 95.3007C275.669 96.3936 275.122 98.3063 275.122 101.039C275.122 105.41 275.395 111.968 275.942 120.711L276.489 140.383C276.489 145.028 276.216 149.4 275.942 153.225L275.395 166.067L277.31 168.799ZM341.596 266.887C339.134 266.887 337.493 264.702 336.946 260.603C337.219 259.51 337.493 256.505 337.493 251.587C337.493 234.92 337.766 210.056 338.314 176.996C338.861 144.208 339.134 120.438 339.134 105.957L339.681 96.1204L340.502 87.9236C340.502 86.5574 341.049 86.011 342.417 86.011C343.238 86.011 344.605 86.2842 346.247 86.8307L347.067 87.1039C347.067 91.2023 347.067 94.7543 346.794 98.033V108.689V138.471C347.067 147.214 347.067 157.05 347.067 168.252C346.794 169.072 346.794 171.258 346.794 174.263L346.52 180.001C346.247 183.553 346.247 187.378 346.247 191.203C346.247 195.302 346.247 199.127 346.52 202.679L346.794 214.428L345.973 216.614L346.247 216.34C346.247 216.887 346.247 217.16 345.973 217.433V218.526C345.973 219.892 346.247 221.258 346.794 222.351L345.973 248.581V250.221C345.973 253.226 345.973 255.139 346.247 255.685C346.247 256.505 346.794 257.051 347.615 257.051L361.84 257.598C365.943 257.598 368.952 257.598 370.32 257.871C371.961 257.871 373.055 257.871 373.329 257.871H374.15C374.97 257.871 376.065 258.417 376.885 259.51C377.706 260.33 378.253 261.423 378.253 262.516C378.253 264.702 376.885 265.795 373.876 266.068C370.867 265.795 363.207 265.794 351.171 265.794L351.718 266.068C349.803 266.068 348.162 266.068 346.52 266.341C344.879 266.614 343.238 266.887 341.596 266.887ZM458.679 265.794C455.944 265.794 454.302 265.521 453.482 264.702C452.661 264.155 452.114 262.516 451.84 259.784C450.199 246.395 449.105 238.199 448.831 234.92L447.463 223.991C443.36 223.171 438.983 222.625 433.785 222.625L423.937 222.078C419.56 221.532 416.278 221.258 414.363 221.258C413.269 221.258 412.721 221.805 412.448 222.625C412.448 223.171 412.448 223.444 412.174 223.444L411.627 228.909C411.354 232.188 410.533 238.745 408.618 248.581C407.797 253.499 406.703 257.324 405.335 260.057C403.968 263.062 402.6 264.702 401.232 264.702C400.138 264.702 399.044 264.155 397.676 263.335C396.308 262.243 395.761 261.15 395.761 260.057L396.034 259.237L396.308 258.417C399.591 245.576 402.326 232.734 404.515 219.892L407.797 202.952L411.08 182.187C411.08 182.187 412.174 176.176 414.089 164.154C414.91 159.236 416.551 151.312 419.013 140.383C421.475 128.088 423.117 119.618 423.664 114.973C423.937 114.427 424.211 111.148 424.758 104.864C425.579 98.033 426.126 92.8417 426.673 89.563C427.22 84.9181 427.767 82.1858 428.314 81.3661H430.229C430.776 81.6394 431.323 81.6394 432.144 81.6394C434.333 81.6394 435.974 81.0929 437.068 80C438.436 80 439.53 80.5465 440.351 81.3661C441.445 82.1858 441.992 83.0055 441.992 84.0984C441.992 92.8417 442.539 102.951 443.907 114.153C444.728 119.891 445.275 124.809 445.548 128.634C447.463 152.132 452.661 196.122 460.868 260.876V261.696C460.868 263.609 460.047 264.975 458.679 265.794ZM446.096 216.614C444.181 190.384 440.898 151.586 435.7 100.492L420.928 173.444C416.825 194.482 414.636 207.597 414.636 213.062C414.636 213.881 418.193 214.701 425.032 215.521C431.871 216.34 438.162 216.614 443.36 216.614H446.096ZM560.169 264.428C558.801 264.428 557.707 263.882 556.887 262.789C556.339 261.696 555.792 260.057 555.245 257.871C554.972 256.505 554.698 255.139 554.151 254.046L554.425 253.226C553.057 244.756 549.774 234.1 545.124 221.805L540.2 207.597C539.926 207.324 538.011 202.679 535.002 193.663L532.813 187.105C516.4 136.558 506.005 108.962 501.901 104.864C500.534 109.782 499.713 116.066 499.713 123.99C499.713 128.088 499.713 131.913 499.986 134.919L500.26 145.575L499.986 152.132C499.713 154.045 499.713 156.23 499.713 158.689C499.713 162.788 499.986 166.067 500.26 169.072C500.534 174.81 500.807 177.815 500.807 177.815H499.986C499.986 208.144 500.534 225.084 501.901 228.089V252.68C502.722 254.046 502.996 255.958 502.996 258.417C502.996 259.784 502.449 261.15 501.354 262.243C500.534 263.335 499.166 263.882 497.798 263.882C493.968 263.882 492.053 258.964 492.053 249.128L492.6 240.384C492.874 237.652 493.148 234.647 493.148 231.368C493.148 222.625 492.874 209.51 492.327 192.023C491.78 174.537 491.506 161.422 491.506 152.678C491.506 147.487 491.78 139.29 492.327 128.361C492.874 117.705 493.148 109.509 493.148 104.317V100.765C493.148 91.7488 494.789 86.011 498.072 83.2788L498.892 84.0984L501.628 83.552C502.449 83.8252 503.269 84.3716 504.09 85.1913C504.911 86.011 505.184 86.8307 505.184 87.6504L505.731 89.2897C505.731 89.5629 505.731 90.1095 505.731 90.3827C506.005 90.6559 506.005 90.6558 506.005 90.6558C509.014 103.498 515.579 121.804 525.701 145.028C536.096 169.619 542.662 186.012 545.124 193.936C547.039 200.22 548.406 205.958 549.501 210.876C553.057 226.45 557.16 238.199 561.811 246.669L562.358 245.849C566.461 205.411 568.65 155.684 568.65 96.9401L568.376 93.6614C568.102 92.8417 568.102 91.4756 568.102 90.1094C568.102 86.2843 569.47 84.3717 571.932 84.3717C573.574 84.3717 574.941 85.1913 576.036 86.8307C577.403 88.47 577.951 90.3826 577.951 92.2952V110.601L576.583 112.787C576.583 130.001 575.489 158.416 573.574 198.034C571.659 237.652 569.744 258.964 567.829 262.516L563.178 263.609V263.882L562.905 263.609L560.169 264.428ZM634.304 259.51L634.03 249.401C633.756 246.395 633.756 243.117 633.756 239.565C633.756 237.652 633.756 236.286 634.03 234.92L634.304 230.002C634.304 228.089 634.03 225.903 633.209 223.444C633.209 211.149 632.389 188.471 630.474 155.411C628.559 123.443 627.738 101.585 627.465 90.1094C616.249 90.1094 608.589 89.8362 604.759 89.2897C601.203 88.47 599.288 86.8307 599.288 84.9181C600.109 83.0055 602.024 81.9126 604.486 81.9126C609.957 81.9126 617.89 82.1858 628.285 83.0055C637.86 83.8252 645.793 84.3717 652.085 84.3717H657.83L663.574 84.0984C666.857 84.0984 668.498 85.1914 668.498 87.6504C668.498 88.7433 667.951 89.563 666.583 90.3827C665.489 90.9291 664.121 91.2023 662.48 91.2023C658.924 91.2023 655.094 90.9291 650.991 90.6558L639.228 90.1094C638.407 90.1094 638.133 90.3826 638.133 90.9291C637.86 91.4755 637.86 93.1149 637.86 96.1204C637.86 113.88 638.954 140.656 641.143 176.449C643.057 213.608 644.152 240.384 644.152 256.505C644.152 257.871 643.331 258.964 641.69 260.057C640.322 261.15 638.681 261.696 637.313 261.696L634.304 259.51ZM725.946 268.527C704.608 268.527 693.939 234.92 693.939 167.979V158.416C693.939 107.596 700.505 82.1859 713.635 82.1859C714.456 82.1859 715.824 82.4591 717.465 83.0055C723.21 84.9181 728.955 86.2842 734.699 86.8307C738.256 87.6504 741.538 91.2023 745.095 97.4865C748.924 104.044 751.66 112.787 753.575 123.443C755.49 134.099 756.584 145.301 756.584 156.504L756.037 157.87C756.037 163.881 756.037 169.345 756.311 173.99L756.584 190.384C756.584 199.673 756.311 208.144 755.49 215.521C754.396 226.723 752.481 236.559 750.019 244.756C748.377 249.674 746.462 253.773 744.274 257.051C742.359 260.33 739.623 263.062 736.614 265.248C733.605 267.434 730.049 268.527 725.946 268.527ZM724.851 260.603C731.964 260.603 737.161 255.685 740.718 245.576C744.274 235.466 746.189 225.084 747.01 214.428C747.83 203.499 748.104 194.755 748.104 188.198C748.104 180.821 747.557 170.165 746.462 155.957C745.642 140.11 745.095 129.454 745.095 123.716L744 121.531L744.548 120.164C744.548 112.241 742.359 105.137 737.709 99.3991C733.332 93.6614 727.86 90.6558 721.569 90.6558C713.088 90.6558 708.164 94.7543 706.523 102.678C706.249 105.41 705.702 109.235 705.429 114.427C705.429 127.815 704.882 137.105 703.787 142.023C703.787 144.755 703.514 149.126 702.967 154.864L702.42 167.706C702.42 171.804 702.42 175.356 702.693 178.362L702.967 189.291C702.967 197.761 703.787 207.597 705.155 218.799C706.249 226.996 707.617 233.827 708.985 239.565C710.353 245.302 712.541 249.947 715.277 254.046C718.012 258.417 721.295 260.603 724.851 260.603ZM834.001 266.614C831.813 264.155 829.351 257.871 826.889 247.761C824.427 237.652 821.965 226.177 819.776 213.335C818.408 202.952 816.22 192.57 813.484 182.46C811.296 173.444 809.107 168.799 807.192 168.799H806.372C802.268 168.799 800.353 170.165 800.353 172.624C800.353 185.739 801.174 205.685 802.542 232.461C803.363 248.854 804.183 258.417 805.004 261.15L802.815 265.794H798.986L796.797 263.609C793.788 179.455 792.42 122.077 792.42 91.4756C792.42 89.563 792.42 87.9236 792.694 86.5574C792.967 85.1913 793.788 84.0984 794.609 83.0055C795.429 81.6394 796.524 81.0929 798.439 81.0929C807.74 81.0929 815.126 83.2787 820.87 87.9236C826.615 92.5684 829.351 99.1259 829.351 107.596V127.542C829.351 131.093 828.256 135.738 825.794 141.476C823.606 147.214 821.144 152.678 818.408 157.597L814.852 164.427C816.767 173.717 820.87 190.384 826.615 214.701C832.633 238.745 835.916 251.587 836.463 252.953C836.737 253.226 836.737 253.499 837.01 254.319C837.284 255.139 838.104 256.232 838.925 257.598C840.293 260.057 840.84 262.243 840.84 264.155C840.84 266.614 839.746 267.98 837.831 267.98L834.001 266.614ZM801.721 161.968C805.277 161.968 808.287 160.329 811.022 156.777C813.758 153.225 815.946 148.853 817.588 143.389C820.597 132.186 821.964 123.443 821.964 116.886C821.964 112.787 821.691 109.235 821.144 106.503C820.87 103.771 820.05 100.765 818.955 97.7598C816.767 91.4755 811.569 88.1968 803.363 88.1968C802.542 88.1968 801.721 89.0165 801.174 90.6558C800.627 92.022 800.353 93.6614 800.353 95.3007C800.353 107.596 800.627 118.525 800.901 128.361C801.174 138.197 801.174 149.127 801.174 161.422L801.721 161.968Z" stroke="#8F8F57" stroke-width="1.54967" mask="url(#path-133-outside-1_151:320)"/>
</svg>
