<svg width="509" height="185" viewBox="0 0 509 185" fill="none" xmlns="http://www.w3.org/2000/svg">
<path d="M1.22092 57.2812C1.22092 25.7867 26.7523 0.255371 58.2467 0.255371C89.7412 0.255371 115.273 25.7867 115.273 57.2812V183.78H1.22092V57.2812Z" fill="#827344"/>
<path d="M1.33671 57.281L1.22092 58.7863L1.51039 59.2494L1.33671 57.281Z" fill="#827344"/>
<path d="M0.468079 64.4605L0.583867 67.0657C1.2786 65.5605 1.04702 67.5868 1.56807 63.5342C1.45228 62.0868 1.2207 58.9605 0.931233 59.3658C0.931233 60.4079 1.2207 61.8552 1.16281 63.4184C0.989127 62.7815 0.989127 61.1605 0.699656 60.4079C0.468079 62.8394 0.873338 61.971 0.75755 64.6341L0.468079 64.4605Z" fill="#827344"/>
<path d="M1.1627 67.5287C1.04691 67.2971 0.931127 67.0656 0.815338 67.0656C0.931127 67.2971 1.10481 68.5708 1.1627 67.5287Z" fill="#827344"/>
<path d="M1.22068 69.0918C1.22068 70.7128 0.989108 69.0918 0.931213 69.2076L1.39437 71.0602L1.22068 69.0918Z" fill="#827344"/>
<path d="M1.22092 75.8655C1.22092 76.1549 1.22092 76.3865 1.27881 76.6181C1.33671 76.3865 1.27881 76.1549 1.22092 75.8655Z" fill="#827344"/>
<path d="M1.2789 79.223C1.45259 78.5282 1.3368 77.7177 1.2789 76.6177C1.2789 76.6756 1.2789 76.6756 1.2789 76.7335C1.16311 77.6598 0.815749 76.7914 0.931537 75.2862C0.873643 73.723 1.16311 73.8388 0.989431 72.4493L0.757854 74.302C0.642066 76.8493 1.10522 78.2388 1.2789 79.223Z" fill="#827344"/>
<path d="M1.22054 75.865C1.22054 75.5755 1.22054 75.2861 1.22054 74.9966C1.10475 75.4018 1.16264 75.6334 1.22054 75.865Z" fill="#827344"/>
<path d="M1.22077 72.4494L1.16288 71.6389L1.04709 71.8126L1.22077 72.4494Z" fill="#827344"/>
<path d="M1.2786 84.7808C0.873339 84.3756 1.33649 80.7861 0.989127 80.3809C0.989127 82.5808 0.699656 84.3177 0.468079 83.8545L0.583867 86.2861C0.75755 87.0966 1.04702 86.0545 1.2786 84.7808Z" fill="#827344"/>
<path d="M0.178925 89.5862C0.236819 89.7599 0.236819 89.9335 0.236819 90.1651C0.236819 89.8757 0.236819 89.6441 0.178925 89.5862Z" fill="#827344"/>
<path d="M0.93134 101.86L0.468186 96.1867C0.583974 96.7077 0.757657 96.534 0.815552 97.8077C0.873446 95.2604 0.583975 94.9709 0.641869 92.8867C1.04713 92.2499 0.699763 96.534 1.04713 95.3762C1.04713 93.9288 0.989235 91.7288 0.699763 90.513L0.989235 88.1973L0.52608 89.0078C0.410292 89.9341 0.873446 90.9183 0.583974 91.4972C0.410292 91.7867 0.352397 90.8604 0.294503 90.1657C0.410292 91.6709 -0.0528623 94.2762 0.00503198 97.2867C0.00503198 100.529 0.699763 99.7761 0.93134 101.86Z" fill="#827344"/>
<path d="M0.469596 102.092L0.294403 102.5L0.527994 102.208L0.469596 102.092Z" fill="#827344"/>
<path d="M0.989256 108.286L0.699785 105.333C0.757679 104.986 0.815574 104.812 0.931362 104.639C0.815574 104.755 0.641891 103.944 0.583996 104.06C0.178737 105.391 0.699785 107.707 0.757679 109.27C0.583996 113.497 0.526102 109.097 0.178737 110.718C0.178737 109.56 0.294525 109.502 0.294525 107.881C-0.168629 110.428 0.236631 113.67 0.35242 115.349C0.410314 114.886 0.526102 114.77 0.468208 113.844L0.583996 115.581C0.989256 113.786 1.04715 112.281 0.989256 108.286Z" fill="#827344"/>
<path d="M0.989108 103.018C1.047 104.118 0.989108 104.523 0.931213 104.639C1.047 104.349 1.16279 103.944 0.989108 103.018Z" fill="#827344"/>
<path d="M0.873232 114.539L0.815338 116.623L0.989021 115.812C0.989021 115.523 0.989021 114.481 0.873232 114.539Z" fill="#827344"/>
<path d="M11.3525 184.706C11.1788 184.533 10.4262 184.475 8.80514 184.475C8.97882 184.243 11.063 184.301 12.0472 184.185C9.90513 184.07 12.1051 183.954 11.5262 183.722C9.1525 183.722 8.11041 184.012 5.56306 183.954C5.67885 183.896 5.62095 183.78 5.33148 183.722C4.75254 183.722 4.1157 183.78 3.42097 183.78C2.66835 183.78 1.91572 183.838 1.1052 183.838C1.04731 182.449 1.04731 181.175 1.04731 179.959C1.04731 178.743 1.04731 177.585 1.1052 176.659C1.1631 173.822 1.1052 171.68 0.989416 168.554C1.1052 158.191 0.873627 147.423 1.1052 136.307L0.699945 134.744C0.931521 134.223 0.699945 132.081 0.989416 132.428C0.931521 133.007 0.989416 133.586 0.989416 134.338C1.33678 131.965 0.931521 128.028 1.1052 125.191C1.04731 125.539 0.64205 126.002 0.584156 125.133C1.04731 125.365 0.584156 121.775 1.1052 120.907C1.22099 118.07 0.699944 120.791 0.757838 117.839C0.468367 117.549 0.64205 120.675 0.410473 121.196C0.178896 120.27 0.526262 118.533 0.236791 118.649C0.121002 123.396 0.699944 132.254 0.815733 139.549L0.584156 138.796C0.757838 142.502 0.757839 148.58 0.352579 151.533C0.584156 150.838 0.23679 157.033 0.757838 156.454C0.64205 157.38 0.64205 157.67 0.584156 159.001L0.757838 159.349C0.757838 161.259 0.468367 160.97 0.468367 163.112C0.699944 161.665 0.757839 163.286 0.989416 163.922C0.699945 166.412 0.468368 169.364 0.236791 171.622C0.294685 171.449 0.410473 171.217 0.526262 170.464C0.468367 171.97 0.699944 171.738 0.757838 172.143C0.757838 173.591 0.468367 173.475 0.294684 173.359C0.178896 176.022 0.815733 177.238 0.584156 179.264L0.815733 178.57C0.815733 179.438 0.815733 180.306 0.815733 181.117C0.815733 181.522 0.757838 181.928 0.757838 182.391C0.757838 182.97 0.699945 183.549 0.699945 184.127C1.33678 184.127 1.97362 184.127 2.61045 184.185C3.1315 184.185 3.65255 184.185 4.1736 184.185C4.81044 184.301 4.46307 184.417 3.71044 184.475C3.36308 184.475 2.89993 184.533 2.43677 184.533C1.68415 184.533 0.931521 184.591 0.236791 184.591C0.236791 184.127 0.178896 183.722 0.178896 183.375C0.178896 183.722 0.121002 184.185 0.121002 184.706C0.64205 184.706 1.22099 184.764 1.74204 184.764C1.85783 184.764 1.97362 184.764 2.1473 184.764C2.26309 184.764 2.37888 184.764 2.43677 184.764C2.55256 184.764 2.66835 184.822 2.72624 184.822C4.05781 184.649 6.1999 184.417 7.82094 184.243C6.43147 184.706 10.3104 184.706 11.3525 184.706Z" fill="#827344"/>
<path d="M2.84201 184.88C2.61043 184.938 1.79991 184.996 1.45255 184.996C1.74202 184.996 2.03149 184.996 2.37885 184.996C2.49464 184.996 2.61043 184.996 2.72622 184.996C2.84201 184.996 2.8999 184.996 3.01569 184.996C3.01569 184.938 2.9578 184.938 2.84201 184.88Z" fill="#827344"/>
<path d="M11.3521 184.707C11.3521 184.707 11.411 184.707 11.411 184.766C11.7055 184.766 11.6466 184.707 11.3521 184.707Z" fill="#827344"/>
<path d="M0.00509644 174.054C0.0629907 173.475 0.178779 172.665 0.294568 171.738C0.178779 171.97 0.0629907 172.201 0.00509644 174.054Z" fill="#827344"/>
<path d="M0.294684 155.412C0.23679 154.833 0.178896 155.18 0.121002 154.775C0.121002 155.933 0.178896 156.338 0.294684 155.412Z" fill="#827344"/>
<path d="M6.19962 184.938L8.51538 184.88L9.3838 184.822L6.19962 184.938Z" fill="#827344"/>
<path d="M53.2678 183.664C51.2415 183.375 48.231 183.548 45.6837 183.49C41.0522 183.664 45.1047 184.127 40.7048 184.185L41.4574 183.548C37.0574 183.606 30.8049 183.433 27.0996 184.012C26.7523 183.954 25.9996 183.838 27.1575 183.78C24.2049 183.78 25.6523 184.648 21.7155 184.475C25.3628 184.069 20.4997 184.127 21.5418 183.722L22.1207 183.664C19.6313 183.722 16.3313 183.896 14.7103 183.896C14.6524 184.069 16.0418 184.301 13.8997 184.301C14.7682 184.359 14.4208 184.533 14.3629 184.648C16.6208 184.475 17.8945 184.59 19.226 184.359C20.4997 184.59 18.3576 184.417 19.6313 184.648L21.4839 184.475C22.8155 184.533 20.0944 184.706 22.1786 184.706C22.4102 184.59 24.0891 184.475 25.7681 184.475L25.3049 184.533C26.5786 184.475 28.3154 184.533 27.7365 184.185L29.1838 184.533L28.9523 184.301C32.368 184.417 33.6417 184.938 38.0995 184.648C37.0574 184.59 37.9838 184.475 38.5627 184.417C36.7101 184.243 36.3048 184.59 34.568 184.648C34.3364 184.417 37.289 184.127 35.1469 184.012C37.4627 184.301 39.5469 183.954 40.5311 184.533C43.31 184.59 44.41 184.301 47.2468 184.417L47.1889 184.475C47.71 184.069 49.5047 184.648 51.6468 184.243L50.1415 184.185C50.1994 184.012 50.9521 184.012 51.9363 184.012C51.8205 184.069 51.8205 184.069 52.1678 184.127C52.4573 183.838 55.6994 183.78 56.1047 183.722C54.7731 183.664 53.0942 183.896 51.531 183.954C52.1678 183.838 51.9363 183.606 53.2678 183.664Z" fill="#827344"/>
<path d="M24.3207 184.649L25.247 184.533C24.8417 184.591 24.4944 184.591 24.3207 184.649Z" fill="#827344"/>
<path d="M66.0045 184.127C67.7993 184.185 65.5414 184.359 67.2203 184.475C69.015 184.301 65.1361 184.07 66.9308 183.78C68.0308 183.954 69.8256 183.664 70.5203 183.664C69.7098 183.838 70.1729 184.185 70.5203 184.243C71.215 184.127 72.7782 184.301 73.9361 184.359C71.0413 184.127 76.3676 184.243 73.7624 183.954C73.9361 183.722 76.715 183.606 77.815 183.722C77.7571 183.896 76.8308 183.838 76.0781 183.838C75.4992 184.127 77.9308 184.012 78.336 184.243C81.1149 183.838 89.9149 183.838 87.4254 183.201C86.4991 183.085 85.6886 183.259 84.6465 183.259C87.5412 183.375 84.6465 183.606 84.4149 183.722C83.1991 183.606 81.1149 183.838 81.5781 183.606L83.5465 183.375C77.2939 183.259 68.7835 183.317 61.6625 183.375H64.7888C64.4414 183.549 62.9361 183.549 61.8362 183.664L63.3414 184.127C62.473 184.07 61.6046 184.185 61.6625 184.012C60.5625 184.185 61.0835 184.301 61.7204 184.475C59.4046 184.533 59.0572 184.359 57.2625 184.649C61.0835 184.996 60.5046 184.359 64.9045 184.649L66.0045 184.127Z" fill="#827344"/>
<path d="M57.552 184.417L58.4783 184.186L57.0888 184.301L57.552 184.417Z" fill="#827344"/>
<path d="M59.057 183.433C59.1149 183.549 58.5359 183.549 58.5938 183.664C60.3307 183.722 60.157 183.607 59.057 183.433Z" fill="#827344"/>
<path d="M80.6516 184.36L82.9674 184.302L81.4621 184.244C81.52 184.302 80.9411 184.36 80.6516 184.36Z" fill="#827344"/>
<path d="M96.8622 183.259C93.6201 183.317 92.2885 183.491 88.6412 183.259C86.8465 183.549 89.4517 183.78 88.6991 184.07C90.4938 184.128 90.2622 183.664 92.1727 183.549C92.8675 183.78 94.8938 183.491 96.6885 183.549C96.4569 183.433 96.4569 183.317 96.8622 183.259Z" fill="#827344"/>
<path d="M107.978 184.186C109.425 184.186 110.93 184.012 112.088 184.128C111.915 184.301 111.046 184.359 110.178 184.301C110.757 184.649 111.799 184.243 113.362 184.475C113.246 184.417 112.667 184.359 113.073 184.301C113.594 184.301 113.999 184.301 114.578 184.301C115.099 184.301 115.446 184.301 115.794 184.301C115.794 183.838 115.736 183.491 115.736 183.143C115.736 182.854 115.678 182.565 115.678 182.159C115.62 181.522 115.62 180.538 115.736 178.686C115.62 177.933 115.62 177.238 115.388 177.354C115.678 174.459 115.678 175.907 115.967 172.433C115.851 172.549 115.504 173.707 115.215 173.707C115.62 168.786 115.157 168.67 115.446 165.486C115.446 165.833 115.562 166.238 115.504 167.107C115.909 166.701 115.446 164.444 115.504 162.707L115.851 162.88C115.794 161.259 115.562 158.481 115.794 156.396L115.967 156.859C115.678 152.691 115.851 147.886 115.678 144.354L115.909 142.444C115.62 137.581 115.794 147.249 115.273 143.717C115.909 143.196 115.041 141.228 115.33 138.449C115.562 137.118 115.446 141.228 115.736 139.781C115.388 139.144 115.62 138.333 115.562 136.828C115.851 137.175 115.62 133.76 115.967 134.686L115.388 129.475C115.562 128.665 115.562 127.16 115.504 126.002C115.504 128.781 115.041 125.249 114.925 128.375C115.099 132.949 115.157 140.591 115.041 146.323C115.446 146.96 115.041 149.97 115.388 150.896C115.273 151.012 115.157 151.475 114.983 151.591C115.099 155.296 115.215 150.723 115.388 151.649C115.446 153.27 115.215 154.544 115.041 154.428C115.041 157.091 115.157 154.717 115.388 156.049L114.925 157.786C114.983 161.549 115.099 165.891 115.157 170.349C115.215 172.607 115.215 174.865 115.215 177.122C115.215 178.28 115.215 179.38 115.215 180.48C115.215 181.522 115.215 182.565 115.157 183.607C114.404 183.607 113.651 183.549 112.899 183.549L113.594 183.838C109.367 183.665 106.473 184.475 102.709 183.838L101.436 184.07C102.131 183.954 100.683 183.607 101.783 183.433C100.625 183.549 99.4095 183.433 98.1937 183.491L100.336 183.607C98.8305 183.838 97.2095 183.722 96.7464 183.491C93.5622 183.78 98.6569 184.012 99.3516 184.243C103.809 183.722 103.867 184.764 108.152 184.533C110.699 184.417 107.804 184.359 107.978 184.186Z" fill="#827344"/>
<path d="M102.42 183.375C102.131 183.375 101.957 183.433 101.783 183.433C102.015 183.433 102.246 183.433 102.42 183.375Z" fill="#827344"/>
<path d="M115.504 126.002C115.504 125.655 115.504 125.307 115.504 124.786C115.388 124.323 115.446 124.96 115.504 126.002Z" fill="#827344"/>
<path d="M94.5464 184.243L95.7622 184.301L95.5306 184.128L94.5464 184.243Z" fill="#827344"/>
<path d="M115.859 113.439H115.678C115.738 113.559 115.798 113.62 115.859 113.439Z" fill="#827344"/>
<path d="M87.4832 7.89729C85.5148 6.85519 82.8517 5.58152 81.2307 5.17626L81.4622 5.11836C81.1728 5.00257 80.7675 4.82889 80.3044 4.7131C79.8412 4.59731 79.3202 4.42363 78.9728 4.30784C78.2202 4.13416 77.8149 4.13416 78.9149 4.7131L79.4938 4.82889C80.1886 5.00257 80.5938 5.17626 80.9412 5.34994C81.2307 5.52362 81.4622 5.63941 81.6359 5.7552C81.9833 6.04467 82.2728 6.27625 83.1991 6.79729C84.357 7.37624 85.399 7.66571 86.2675 8.07097C86.7306 8.24465 87.1938 8.47623 87.6569 8.64991C88.1201 8.88149 88.5832 9.17096 89.0464 9.51832C89.9148 10.0394 89.6832 10.0973 89.3938 10.0394C91.3043 11.3709 92.2885 11.5446 93.62 12.5288C93.5621 12.8762 93.9095 13.2815 94.4885 13.8025C95.0095 14.3235 95.82 14.9025 96.6305 15.5972C98.3095 16.9867 100.22 18.6077 101.03 20.1709C102.536 21.734 104.273 24.1077 105.952 26.3077C104.909 25.2077 107.341 28.5076 106.704 28.2182C107.167 28.3918 108.151 30.1287 108.962 31.9234C109.425 32.7918 109.773 33.7181 110.12 34.355C110.467 35.0497 110.757 35.5128 110.988 35.5128C111.567 37.3076 111.625 37.3655 111.683 37.4233C111.741 37.5391 111.857 37.7128 112.436 39.797C112.32 39.797 112.088 39.1023 111.973 38.8707C112.378 40.5496 113.13 41.3023 113.13 42.8075C113.883 46.2233 113.478 43.3286 114.172 45.297C114.751 48.9443 114.462 47.9022 114.404 49.9864C114.636 50.1022 114.751 50.739 114.867 51.5495C114.983 52.3601 115.041 53.3443 115.215 54.2127C115.215 53.7495 115.099 51.2601 115.388 52.8811C115.446 53.4022 115.446 53.8653 115.504 54.2706C115.504 54.6758 115.562 55.0232 115.562 55.3127C115.62 55.8916 115.678 56.2969 115.678 56.7021C115.794 57.5126 115.909 58.3232 115.967 60.2916C115.504 62.3179 115.967 56.3548 115.62 59.8284C115.446 57.339 115.388 55.3706 114.983 54.0969C115.041 55.7758 115.099 57.6284 115.099 59.5389C115.157 61.4495 115.215 63.4179 115.272 65.2705C115.215 67.2968 115.041 64.2284 115.041 65.8494C114.867 69.4968 115.504 71.4652 115.272 74.3599L115.041 73.7809C115.33 75.5757 114.983 80.2072 115.157 83.623C115.272 83.1598 115.33 82.9282 115.446 83.3335C114.867 83.2756 115.736 88.0229 115.33 91.3808C115.678 91.0913 115.909 94.3913 115.967 96.4176C115.851 97.1702 115.736 96.9965 115.62 96.9965C115.851 93.6387 115.215 93.7544 115.041 91.0913C115.215 93.2913 115.041 96.9965 115.33 98.907L115.041 98.1544C114.983 101.223 115.678 100.818 115.446 104.06L115.215 103.712C115.272 110.196 114.867 117.781 115.33 122.933C115.504 123.396 115.909 120.791 116.025 120.617C115.851 117.549 115.562 115.754 115.388 113.381L115.736 113.438C115.504 112.917 115.388 110.081 115.215 111.644C115.041 109.733 115.504 110.196 115.33 107.996C115.678 108.17 115.736 109.502 116.025 109.502L115.851 107.591C115.967 108.228 115.967 106.433 116.083 107.012C115.678 103.423 116.257 102.033 116.083 98.3281L116.025 100.354C115.851 100.354 115.851 99.1386 115.794 98.2702C116.083 97.286 116.025 96.6492 116.141 94.7965C115.967 93.1755 115.62 92.2492 115.62 90.0492C115.967 90.5124 115.794 86.4019 116.141 85.9966C115.794 85.5335 116.025 81.7124 115.794 81.423C115.736 80.2651 115.736 78.644 115.967 78.644C115.967 78.8177 116.025 79.1651 116.025 79.5125V78.3546C116.083 78.4704 116.083 78.4125 116.083 78.5862C116.083 77.5441 115.851 77.5441 116.025 76.1546C116.141 76.1546 116.141 76.9072 116.141 77.4862C116.199 74.7072 115.562 72.5651 115.909 70.2494C115.736 69.7862 115.736 66.5441 115.33 67.2389C115.446 66.3705 115.794 66.7178 115.736 64.3442C115.388 63.0126 115.851 61.7389 115.62 59.9442C115.967 62.3179 115.736 59.9442 116.025 62.0284C116.083 61.2179 116.025 60.2337 115.909 59.0758C115.851 58.4968 115.794 57.9179 115.794 57.2811C115.736 56.6442 115.736 55.9495 115.736 55.2548C115.794 54.9653 115.909 54.9653 115.967 54.6758C115.794 53.6337 115.446 52.4758 115.62 51.4338L115.388 51.6074C115.33 50.6811 115.215 49.5232 115.099 48.3654C114.925 47.2075 114.809 46.0496 114.694 45.0075C114.346 44.2549 114.057 43.5022 113.709 42.7496C113.594 41.9391 113.42 41.0707 113.188 40.2023C112.899 39.3339 112.609 38.4654 112.262 37.6549C111.915 36.8444 111.509 36.0339 111.104 35.3392C110.699 34.6444 110.294 34.0076 109.946 33.4865C109.83 33.1971 109.715 32.9076 109.599 32.6181C109.483 32.3287 109.309 32.0392 109.194 31.7497C108.962 31.2287 108.788 30.8234 108.846 30.7655C109.02 30.9971 109.251 31.3445 109.599 31.8076C109.194 31.055 108.846 30.1287 108.441 29.376C108.036 28.6234 107.63 27.9287 107.225 27.6392C106.183 26.1919 106.762 26.4234 106.067 25.2656C105.43 24.5708 104.794 23.7024 104.099 22.7761C103.346 21.8498 102.652 20.8077 101.899 19.9393C101.552 19.4761 101.146 19.0709 100.799 18.6656C100.452 18.2604 100.104 17.913 99.7568 17.6235C99.12 17.0446 98.5989 16.6393 98.2516 16.5814C98.7726 17.1025 99.4674 17.913 100.278 18.7814C100.683 19.2446 101.088 19.7656 101.552 20.2867C101.783 20.5182 102.015 20.8077 102.188 21.0393C102.42 21.3288 102.594 21.5603 102.825 21.8498C102.304 21.3287 102.536 21.8498 101.899 21.0972C100.973 20.0551 100.336 19.1867 99.641 18.434C99.2937 18.0288 98.9463 17.6235 98.541 17.2183C98.1358 16.813 97.6726 16.4077 97.1516 15.9446L97.7305 15.8288C96.1674 13.9762 94.2569 12.6446 92.4622 11.4288C91.5358 10.8499 90.6674 10.2709 89.799 9.7499C88.9885 9.17096 88.2359 8.53412 87.4832 7.89729Z" fill="#827344"/>
<path d="M110.93 34.5289L110.294 32.5605L110.178 32.85C110.467 33.3711 110.757 33.95 110.93 34.5289Z" fill="#827344"/>
<path d="M110.178 32.8504C110.004 32.5031 109.772 32.1557 109.541 31.8083C109.772 32.2136 109.946 32.561 110.12 32.9083L110.178 32.8504Z" fill="#827344"/>
<path d="M80.1886 4.36594C79.7833 4.19226 78.9728 3.84489 78.1044 3.55542C78.6254 3.787 79.7254 4.25015 80.1886 4.36594Z" fill="#827344"/>
<path d="M77.9307 3.61353L78.857 4.07668H79.0307L77.9307 3.61353Z" fill="#827344"/>
<path d="M22.1783 13.5133C21.4257 14.3239 20.6731 15.0765 19.9783 15.887C19.7468 16.0028 18.9362 16.7554 18.3573 17.3344C17.7784 17.9133 17.3152 18.3765 17.6626 17.8554C16.5626 19.4186 13.6679 22.4291 14.9994 21.5606C16.5047 19.7659 18.1836 17.7975 20.2099 16.0028C22.2362 14.1502 24.4362 12.4133 26.8099 10.7344C29.2414 9.11338 31.7888 7.66602 34.394 6.39235C36.9993 5.11867 39.6624 4.07658 42.2676 3.15027C41.7466 3.38185 41.1676 3.61342 40.6466 3.90289C40.994 3.78711 41.2834 3.61342 41.5729 3.49764C41.8624 3.38185 42.2097 3.32395 42.4992 3.20816C43.0781 3.03448 43.5992 2.8608 44.1202 2.74501C45.1623 2.51343 46.0886 2.33975 46.9571 2.16607C47.8255 2.05028 48.6939 1.8766 49.6202 1.70291C50.5465 1.52923 51.4728 1.29765 52.6307 0.950288C52.457 1.12397 52.2254 1.29765 52.0518 1.47134C52.6886 1.41344 53.3254 1.35555 53.9623 1.23976C54.5991 1.18187 55.178 1.00818 55.8149 0.950288C57.0886 0.8345 58.3622 0.660817 59.6938 0.950288L59.4622 0.776605C60.1569 0.776605 60.4464 0.892394 61.199 0.892394L60.9096 0.8345C62.8201 0.776606 63.978 0.892394 65.8306 1.23976C65.9464 1.41344 64.9622 1.18187 64.3832 1.12397C65.1937 1.41344 66.699 1.23976 68.1464 1.52923C69.2463 1.8766 68.0885 1.70291 67.9148 1.76081C68.4358 1.8187 68.9569 1.93449 69.42 1.99238C69.8832 2.05028 70.3463 2.16607 70.7516 2.28186C71.5621 2.45554 72.3147 2.62922 73.0095 2.8608C73.7042 3.03448 74.341 3.20816 75.0358 3.38185C75.7305 3.55553 76.4252 3.67132 77.1779 3.78711C77.5252 3.78711 76.1937 3.20816 77.6989 3.67132C76.3673 3.09238 75.0937 2.68712 73.82 2.39764C72.5463 2.05028 71.3305 1.93449 69.999 1.70291L70.6937 1.8766C69.5937 1.93449 69.2463 1.8187 68.6674 1.64502C68.3779 1.52923 68.0885 1.47134 67.6253 1.35555C67.3937 1.29765 67.1622 1.23976 66.8148 1.18187C66.5253 1.12397 66.1201 1.12397 65.7148 1.12397C66.6411 0.950288 68.0885 1.23976 68.6674 1.23976C66.7569 0.602923 65.3674 0.602923 64.1516 0.487134C63.5148 0.42924 62.9359 0.487134 62.3569 0.371346C61.778 0.313452 61.199 0.197663 60.5622 0.0239806H60.8517C60.2727 -0.0339136 59.2306 0.0239803 58.3622 0.0818746C58.6517 0.139769 59.5201 0.255558 60.0991 0.313452C59.1727 0.371346 58.7675 0.602923 58.4201 0.718711C57.4359 0.42924 57.0886 0.892394 55.5254 0.776605C54.9465 0.545028 56.857 0.487134 57.4359 0.371346L55.5254 0.602923C53.7886 0.718712 53.7886 0.42924 52.9202 0.371346C51.4728 0.660817 53.7886 0.42924 52.6307 0.776605C51.7044 0.718711 49.2149 0.950288 46.5518 1.47134C43.8887 2.05028 41.0519 2.97659 39.315 3.72921C40.5308 3.26606 39.6624 3.32395 41.2255 2.8608C40.6466 2.97659 38.7361 3.78711 38.794 3.96079C36.3624 5.00288 33.294 6.27656 31.0361 7.31866C31.2677 7.26076 31.4993 7.20287 31.7888 7.14497C30.1098 8.41865 27.0993 9.46074 24.2625 11.8344L24.3204 11.7765C23.8573 12.1818 23.5099 12.587 23.0467 13.1081C22.5836 13.5712 22.0625 14.2081 21.1941 14.8449C21.5415 14.3818 22.4099 13.6291 22.1783 13.5133Z" fill="#827344"/>
<path d="M13.6101 23.0662L14.1311 21.9662C13.7259 22.4872 13.3206 23.0662 13.0311 23.5872C12.7996 24.1083 12.7417 24.4556 12.8575 24.3977C13.3206 23.6451 14.1311 22.8346 14.0732 22.603C14.0153 22.6609 13.9574 22.5451 13.6101 23.0662Z" fill="#827344"/>
<path d="M3.42084 44.892C3.36294 45.3552 3.47873 45.2394 3.53662 45.471C4.05767 42.9815 4.86819 40.2026 5.67871 37.8868C6.54713 35.5711 7.47343 33.6606 7.99448 32.7921C8.8629 31.2869 8.57342 30.8237 9.61552 28.8553L10.3681 28.1606C10.5997 27.6396 11.2945 26.6554 11.7576 25.9027C12.2787 25.208 12.5681 24.687 12.0471 25.0922C11.9313 25.1501 11.6418 26.0185 11.005 26.829L10.9471 26.5975C10.5418 27.2922 10.1366 27.929 9.7892 28.6238C9.8471 28.3922 9.90499 28.1027 10.0208 27.8711C8.16816 30.4764 9.32605 30.0711 7.47343 33.4869L7.12607 33.3132C6.60502 34.529 6.19976 35.3974 5.85239 36.2658C5.50503 37.1342 5.15766 37.9447 4.69451 39.0447C4.69451 39.0447 4.86819 39.1026 4.92609 38.6974C5.09977 38.2921 5.38924 37.8289 5.44713 38.1184C4.46293 41.9394 5.44713 37.4816 4.40504 40.0289C4.17346 40.8394 3.99978 41.8815 3.7682 42.9236C3.53662 44.0236 3.30505 45.1815 3.13137 46.2815C2.95768 47.3815 2.72611 48.4236 2.61032 49.3499C2.49453 50.2762 2.32085 50.9709 2.20506 51.4341C2.43663 50.6815 2.49453 50.8551 2.55242 51.492C2.61032 52.1288 2.55242 53.1709 2.49453 54.0972C2.32085 54.9656 2.32085 53.5183 2.20506 53.1709C2.14716 53.6341 2.08927 53.9814 2.03137 54.3867C1.97348 54.792 1.97348 55.1972 1.97348 55.6025C2.20506 54.5025 2.49453 55.2551 2.55242 57.2235C2.66821 56.1235 2.66821 55.0814 2.66821 54.0393C2.72611 52.9972 2.72611 52.013 2.72611 51.0288C2.784 49.1183 2.89979 47.092 3.42084 44.892Z" fill="#827344"/>
<path d="M3.47874 46.2817C3.53664 45.8185 3.59453 45.6448 3.53664 45.5291C3.36295 46.108 3.30506 46.7448 3.18927 47.2659L3.47874 46.2817Z" fill="#827344"/>
<path d="M24.842 135.322C26.5209 124.785 32.9472 113.612 36.9998 106.665C36.9998 119.98 46.9576 121.196 50.8944 132.717C54.0207 141.98 47.7102 154.717 39.026 154.717C30.3419 154.717 23.3946 144.296 24.842 135.322Z" fill="white"/>
<path d="M24.9001 135.322L24.8417 135.673L24.9585 135.789L24.9001 135.322Z" fill="#827344"/>
<path d="M24.2049 136.828C24.2049 137.002 24.2049 137.233 24.2628 137.407C24.726 137.117 24.5523 137.523 24.8997 136.654C24.8418 136.365 24.7839 135.67 24.6102 135.728C24.6102 135.959 24.726 136.307 24.6681 136.596C24.5523 136.423 24.6102 136.075 24.4365 135.902C24.2628 136.423 24.4944 136.249 24.3786 136.828H24.2049Z" fill="#827344"/>
<path d="M24.6167 137.526C24.5572 137.466 24.4382 137.407 24.3788 137.407C24.4977 137.466 24.5572 137.764 24.6167 137.526Z" fill="#827344"/>
<path d="M24.6697 137.812C24.6697 138.162 24.4945 137.812 24.4945 137.87L24.7865 138.279L24.6697 137.812Z" fill="#827344"/>
<path d="M24.7263 139.317C24.7263 139.377 24.7263 139.437 24.7865 139.498C24.7865 139.377 24.7263 139.377 24.7263 139.317Z" fill="#827344"/>
<path d="M24.8418 140.012C24.8997 139.838 24.8418 139.665 24.7839 139.491C24.726 139.723 24.4945 139.549 24.5524 139.202C24.4945 138.854 24.6681 138.854 24.5524 138.565C24.4945 138.68 24.4366 138.854 24.4366 138.97C24.3787 139.549 24.726 139.78 24.8418 140.012Z" fill="#827344"/>
<path d="M24.7278 139.324C24.7278 139.264 24.7278 139.204 24.7278 139.143C24.6675 139.204 24.6675 139.264 24.7278 139.324Z" fill="#827344"/>
<path d="M24.6729 138.572L24.6127 138.391L24.5525 138.451L24.6729 138.572Z" fill="#827344"/>
<path d="M25.0156 141.17C24.7261 141.112 24.8998 140.301 24.6682 140.244C24.7261 140.707 24.6103 141.112 24.4945 141.054C24.5524 141.228 24.6103 141.401 24.6682 141.575C24.8419 141.749 24.9577 141.459 25.0156 141.17Z" fill="#827344"/>
<path d="M24.6104 142.328C24.6703 142.328 24.6703 142.388 24.6703 142.448C24.6703 142.388 24.6104 142.328 24.6104 142.328Z" fill="#827344"/>
<path d="M25.8841 144.701C25.6525 144.354 25.421 144.007 25.1894 143.659C25.3052 143.717 25.3631 143.659 25.4789 143.949C25.3631 143.428 25.1315 143.428 25.0157 142.965C25.1894 142.791 25.3052 143.717 25.421 143.428C25.3052 143.138 25.1894 142.675 24.8999 142.502C24.8999 142.328 24.8999 142.154 24.9578 141.98L24.7262 142.212C24.7262 142.444 25.0736 142.559 24.8999 142.733C24.7841 142.849 24.7262 142.617 24.6683 142.502C24.7841 142.791 24.7262 143.428 24.9578 144.065C25.3052 144.644 25.5946 144.354 25.8841 144.701Z" fill="#827344"/>
<path d="M25.6544 144.875L25.5944 144.995L25.7143 144.875H25.6544Z" fill="#827344"/>
<path d="M26.5206 145.975L26.0575 145.454C26.0575 145.396 26.1154 145.338 26.1154 145.281C26.0575 145.338 25.8838 145.223 25.8838 145.281C25.768 145.686 26.2891 145.975 26.4627 146.265C26.8101 147.133 26.347 146.265 26.2891 146.728C26.1733 146.496 26.2312 146.438 26.0575 146.149C26.0575 146.786 26.6364 147.307 26.868 147.538C26.8101 147.423 26.868 147.365 26.7522 147.191L27.0417 147.48C27.0996 147.017 26.9259 146.728 26.5206 145.975Z" fill="#827344"/>
<path d="M26.0576 144.933C26.1744 145.167 26.1743 145.225 26.1743 145.283C26.1743 145.167 26.2327 145.108 26.0576 144.933Z" fill="#827344"/>
<path d="M27.0465 147.661C27.0465 147.601 26.9862 147.541 26.926 147.48C26.9862 147.541 26.9862 147.601 27.0465 147.661Z" fill="#827344"/>
<path d="M27.0994 147.191L27.333 147.6V147.366C27.2746 147.308 27.1578 147.133 27.0994 147.191Z" fill="#827344"/>
<path d="M41.4574 154.949C41.3995 154.833 41.2258 154.833 40.8784 154.949C40.8784 154.833 41.3416 154.717 41.5153 154.601C41.0521 154.659 41.4574 154.428 41.3416 154.37C40.8784 154.485 40.6469 154.717 40.1258 154.717C40.1258 154.659 40.1258 154.601 40.0679 154.601C39.4311 154.775 38.3311 154.891 37.6942 154.659C37.1153 154.543 36.6522 154.485 35.9574 154.37C33.8153 153.675 31.7311 152.517 30.1101 150.78L29.7048 150.722C29.7048 150.549 29.2996 150.317 29.4733 150.259C29.5312 150.375 29.6469 150.433 29.7627 150.549C29.5891 150.028 28.8364 149.564 28.547 148.985C28.547 149.043 28.4312 149.275 28.3154 149.159C28.6049 149.043 27.8522 148.58 28.0259 148.233C27.7364 147.654 27.7943 148.349 27.5049 147.77C27.3312 147.828 27.7943 148.349 27.7364 148.522C27.5049 148.407 27.447 148.001 27.3312 148.117C27.8522 149.043 29.2996 150.375 30.5733 151.359H30.3417C31.0364 151.822 32.0206 152.633 32.4838 153.212C32.4259 153.038 33.468 153.906 33.5838 153.559C33.6995 153.733 33.8153 153.733 34.0469 153.906L34.1627 153.849C34.5101 154.022 34.3943 154.138 34.8574 154.312C34.6259 154.08 34.9732 154.138 35.1469 154.08C35.3785 154.254 35.6101 154.428 35.8995 154.601C36.189 154.775 36.4206 154.891 36.6521 155.006C36.6521 154.949 36.5943 154.891 36.4206 154.775C36.71 154.891 36.71 154.775 36.8258 154.717C37.1153 154.775 37.0574 154.949 37.0574 155.064C37.6364 155.238 37.9837 154.891 38.389 155.064L38.2732 154.891C38.5627 154.891 38.8521 154.949 39.1416 155.006C39.4311 155.064 39.7205 155.064 40.0679 155.006C40.4153 155.18 39.5469 155.238 39.2574 155.296C39.3732 155.354 39.7205 155.354 39.7784 155.412C40.0679 155.296 40.5311 155.064 40.8784 154.949C40.3574 155.238 41.2258 155.006 41.4574 154.949Z" fill="#827344"/>
<path d="M39.5517 155.412C39.4922 155.471 39.3732 155.471 39.3732 155.531C39.4327 155.531 39.4922 155.471 39.6112 155.531C39.6112 155.412 39.6112 155.412 39.5517 155.412Z" fill="#827344"/>
<path d="M41.4575 154.949C41.4575 155.007 41.5155 155.007 41.4575 154.949C41.5735 154.949 41.5155 154.949 41.4575 154.949Z" fill="#827344"/>
<path d="M37.0039 155.298C36.8871 155.24 36.7119 155.123 36.5367 155.064C36.5367 155.123 36.5951 155.181 37.0039 155.298Z" fill="#827344"/>
<path d="M33.1256 153.675C33.0066 153.616 33.0661 153.735 32.9471 153.735C33.1256 153.854 33.2446 153.854 33.1256 153.675Z" fill="#827344"/>
<path d="M40.3577 155.354C40.5313 155.296 40.705 155.296 40.8787 155.238L41.0524 155.18C40.8208 155.238 40.5892 155.296 40.3577 155.354Z" fill="#827344"/>
<path d="M48.2311 148.986C47.8258 149.217 47.5364 149.796 47.189 150.201C46.6101 151.012 47.4206 150.549 46.7837 151.301L46.6101 150.896C45.9732 151.591 44.9311 152.401 44.468 153.096C44.4101 153.096 44.2364 153.154 44.4101 152.98C43.889 153.328 44.4101 153.617 43.5996 153.965C44.1785 153.386 43.2522 153.907 43.368 153.559L43.4838 153.501C43.0206 153.791 42.4417 154.138 42.0943 154.254C42.0943 154.37 42.4417 154.37 41.9785 154.543C42.1522 154.486 42.1522 154.601 42.1522 154.717C42.6153 154.486 42.8469 154.37 43.0785 154.138C43.368 154.138 42.9048 154.254 43.2522 154.254L43.5417 153.965C43.8311 153.849 43.3101 154.196 43.7732 154.022C43.7732 153.965 44.0627 153.675 44.4101 153.501L44.3522 153.617C44.5838 153.443 44.9311 153.27 44.6995 153.154H45.1048L44.989 153.096C45.3364 152.922 45.568 152.807 45.8574 152.691C46.1469 152.575 46.3785 152.401 46.6679 151.996C46.4943 152.112 46.5522 151.938 46.6679 151.822C46.3206 151.996 46.3785 152.228 46.089 152.517C45.9732 152.459 46.3206 151.88 45.9153 152.112C46.4364 151.88 46.6101 151.475 47.0153 151.533C47.4785 151.128 47.4785 150.78 47.9416 150.375L47.9995 150.433C47.8837 150.201 48.4048 150.086 48.4627 149.565C48.4048 149.622 48.289 149.738 48.2311 149.796C48.1732 149.738 48.2311 149.622 48.3469 149.391C48.3469 149.449 48.3469 149.449 48.4627 149.391C48.3469 149.217 48.7521 148.638 48.7521 148.522C48.5785 148.754 48.4627 149.101 48.3469 149.449C48.1732 149.275 47.9995 149.217 48.2311 148.986Z" fill="#827344"/>
<path d="M44.1207 153.798L44.2411 153.617C44.2411 153.677 44.1809 153.737 44.1207 153.798Z" fill="#827344"/>
<path d="M49.852 146.786C50.0835 146.438 49.9099 146.959 50.1414 146.67C50.1993 146.265 49.7362 146.959 49.7362 146.554C49.9678 146.38 49.9099 145.975 49.9677 145.802C49.9677 145.975 50.2572 145.975 50.3151 145.975C50.3151 145.802 50.5467 145.57 50.6625 145.28C50.3151 145.802 50.7783 144.759 50.4309 145.223C50.3151 145.107 50.4309 144.586 50.6046 144.354C50.6625 144.412 50.6046 144.586 50.5467 144.702C50.6625 144.875 50.7783 144.354 50.952 144.354C50.952 144.007 51.0677 143.428 51.1256 142.907C51.1835 142.444 51.1256 142.096 50.8941 142.27C50.7783 142.444 50.8362 142.617 50.7783 142.849C51.0098 142.27 51.0098 142.907 51.0677 142.965C50.952 143.196 50.952 143.659 50.8362 143.544L50.7783 143.081C50.373 144.354 49.7362 146.033 49.0414 147.365C49.1572 147.191 49.273 146.959 49.3309 146.786C49.3888 146.902 49.273 147.191 49.2151 147.423L49.6204 147.249C49.5046 147.423 49.4467 147.596 49.3888 147.538C49.3888 147.828 49.5046 147.77 49.6204 147.654C49.4467 148.117 49.273 148.117 49.2151 148.58C49.5625 148.291 49.5625 148.117 49.6204 147.886C49.6783 147.712 49.7362 147.48 50.0256 147.075L49.852 146.786Z" fill="#827344"/>
<path d="M49.1003 148.467V148.233L48.9835 148.525L49.1003 148.467Z" fill="#827344"/>
<path d="M48.7521 147.887C48.811 147.887 48.7521 148.005 48.811 148.063C49.0466 147.769 48.9288 147.769 48.7521 147.887Z" fill="#827344"/>
<path d="M51.1257 143.89L51.2415 143.369L51.1257 143.659C51.1836 143.717 51.1257 143.833 51.1257 143.89Z" fill="#827344"/>
<path d="M51.1839 140.359C51.126 141.054 51.1839 141.343 50.8945 142.038C50.9524 142.443 51.2418 141.922 51.3576 142.154C51.4734 141.806 51.1839 141.749 51.1839 141.343C51.3576 141.228 51.2418 140.764 51.3576 140.417C51.2997 140.475 51.2418 140.475 51.1839 140.359Z" fill="#827344"/>
<path d="M51.9362 138.044C51.9362 137.696 51.8204 137.407 51.8783 137.175C51.9941 137.233 51.9941 137.407 51.9941 137.58C52.2257 137.465 51.9362 137.233 52.052 136.886C52.052 136.944 51.9941 137.059 51.9362 136.944C51.9362 136.075 51.7625 136.48 51.7046 135.38C51.5888 135.207 51.5889 135.091 51.4731 135.149C51.531 134.512 51.6467 134.801 51.5888 134.049C51.531 134.107 51.3573 134.396 51.1836 134.396C51.1836 133.296 50.8941 133.354 50.8362 132.659C50.8941 132.717 50.952 132.775 50.952 133.007C51.1836 132.833 50.7204 132.486 50.6046 132.138L50.8362 132.08C50.6625 131.791 50.3152 131.27 50.3152 130.807L50.431 130.865C50.1994 130.459 49.9099 130.054 49.7362 129.649C49.5047 129.244 49.331 128.838 49.0994 128.549L48.9836 128.144C48.2889 127.333 49.4468 129.07 48.8099 128.607C49.0994 128.317 48.4047 128.202 48.231 127.623C48.231 127.275 48.6362 128.086 48.5784 127.738C48.3468 127.738 48.3468 127.507 48.1731 127.275C48.3468 127.217 47.8257 126.696 48.1152 126.754L47.1889 126.059C47.1889 125.828 46.9573 125.596 46.7836 125.423C47.131 125.886 46.4363 125.481 46.7836 126.059C47.0731 126.407 47.5363 126.928 47.9415 127.449C48.2889 128.028 48.6941 128.607 48.9257 129.186C49.2152 129.186 49.2731 129.88 49.5626 129.938C49.5047 129.996 49.5047 130.112 49.3889 130.17C49.7941 130.865 49.4468 129.938 49.6204 130.054C49.7941 130.344 49.7941 130.691 49.6783 130.691C49.9099 131.212 49.7941 130.691 50.0257 130.923L49.9099 131.386C50.2573 132.196 50.7204 133.065 51.0099 134.107C51.2994 135.091 51.4731 136.191 51.4152 137.175L51.5888 137.001C51.531 137.928 52.052 138.507 51.5888 139.317L51.7046 139.607C51.6467 139.433 51.4152 139.722 51.2994 139.491C51.3573 139.722 51.2415 140.012 51.2994 140.244L51.4152 139.78C51.531 140.128 51.4152 140.475 51.2415 140.533C51.2994 141.228 51.5889 140.186 51.7625 140.012C51.531 139.028 52.1678 139.086 52.052 138.101C52.1099 137.465 52.052 138.101 51.9362 138.044Z" fill="#827344"/>
<path d="M51.4154 139.201C51.4154 139.261 51.4154 139.321 51.4753 139.321C51.4154 139.321 51.4154 139.261 51.4154 139.201Z" fill="#827344"/>
<path d="M46.9057 125.255C46.8462 125.195 46.7867 125.136 46.7272 125.076C46.6082 124.957 46.7272 125.076 46.9057 125.255Z" fill="#827344"/>
<path d="M51.7641 140.945L51.8236 140.707H51.7046L51.7641 140.945Z" fill="#827344"/>
<path d="M45.3366 123.049L45.2784 123.107C45.2784 123.107 45.3366 123.049 45.3366 123.049Z" fill="#827344"/>
<path d="M40.7047 117.491L40.8246 117.611C40.7647 117.551 40.7647 117.551 40.7047 117.491Z" fill="#827344"/>
<path d="M33.9889 111.47C33.8153 111.933 33.5258 112.512 33.5258 112.86L33.4679 112.802C33.41 113.033 33.1205 113.844 33.5258 113.439V113.265C33.6995 112.686 33.8732 112.975 34.1626 112.57C34.3942 112.049 34.2205 111.586 34.5679 111.181C34.6837 111.007 34.7416 111.065 34.7416 111.181C35.031 110.775 34.8574 110.428 35.031 110.139C35.3784 110.254 35.5521 109.907 35.6679 109.444C35.7258 109.212 35.8416 108.981 35.8995 108.807C36.0152 108.633 36.131 108.46 36.1889 108.575C36.2468 108.402 36.3626 108.228 36.4784 108.054C36.5942 107.881 36.71 107.649 36.8837 107.186C36.8258 107.418 36.8258 107.475 36.8258 107.475C36.8258 107.533 36.8258 107.533 36.8258 107.591C36.8258 107.707 36.8258 107.881 36.71 108.112C36.8837 107.533 36.8837 108.054 36.8258 108.402C36.8258 108.749 36.8258 108.981 37.0573 108.923C36.9995 109.733 37.1152 108.923 37.1152 109.907C37.0573 109.907 37.0573 109.733 36.9995 109.675C36.9416 110.081 37.2889 110.196 37.1152 110.544C37.1731 111.296 37.2889 110.66 37.4626 111.065C37.5784 111.817 37.4626 111.644 37.3468 112.107C37.6363 112.107 37.6363 112.57 37.81 112.917C37.81 112.802 37.6942 112.281 37.8679 112.628C37.9258 113.091 38.0994 113.207 38.2152 113.381C38.331 113.496 38.4468 113.67 38.6205 114.017C38.5047 114.539 38.331 113.265 38.3889 114.017C38.0994 113.554 37.9258 113.207 37.6363 112.975C37.7521 113.323 37.9258 113.67 38.0994 114.075C38.2731 114.423 38.4468 114.828 38.6784 115.175C38.8521 115.581 38.4468 115.06 38.6205 115.349C38.91 116.102 39.431 116.275 39.6626 116.854L39.4889 116.796C39.8363 117.028 40.1836 118.012 40.7626 118.475C40.7626 118.36 40.7626 118.302 40.8784 118.302C40.5889 118.533 41.631 118.996 41.9205 119.691C42.0363 119.517 42.6152 119.923 42.9047 120.27C42.9626 120.444 42.8468 120.444 42.8468 120.502C42.4994 119.865 42.2099 120.154 41.7468 119.749C42.152 120.038 42.5573 120.733 42.9626 120.907H42.731C43.1362 121.428 43.4257 121.081 43.7731 121.717L43.6573 121.775C44.5836 122.817 45.5099 124.149 46.4362 124.844C46.6099 124.844 46.4362 124.265 46.4941 124.149C45.9731 123.686 45.5678 123.512 45.1625 123.223L45.3362 123.107C45.1625 123.107 44.6994 122.702 44.8152 123.049C44.4678 122.817 44.7573 122.702 44.352 122.412C44.5257 122.296 44.7573 122.47 44.8731 122.354L44.5257 122.123C44.6994 122.181 44.4099 121.891 44.5836 121.949C43.8889 121.544 43.9468 121.081 43.3099 120.56L43.5994 120.907C43.4836 120.965 43.3678 120.791 43.1941 120.675C43.1941 120.386 43.0783 120.328 42.8468 119.981C42.5573 119.807 42.2678 119.749 41.9784 119.402C42.2099 119.344 41.5731 118.707 41.6889 118.533C41.4573 118.591 41.1099 117.838 40.9363 117.896C40.7626 117.723 40.5889 117.433 40.6468 117.375C40.6468 117.375 40.7047 117.433 40.7626 117.491L40.6468 117.26C40.7047 117.26 40.7047 117.26 40.7047 117.26C40.5889 117.086 40.4731 117.144 40.4152 116.854C40.4731 116.796 40.531 116.97 40.6468 117.028C40.3573 116.507 39.7784 116.333 39.7205 115.812C39.6047 115.754 39.2573 115.175 39.0836 115.407C39.0836 115.175 39.2573 115.175 39.0258 114.77C38.6784 114.596 38.8521 114.249 38.6205 113.96C39.0257 114.365 38.6784 113.96 39.0258 114.249C38.9679 113.902 38.5626 113.554 38.3889 112.975C38.3889 112.917 38.4468 112.86 38.5047 112.802C38.3889 112.628 38.1573 112.396 38.2731 112.165L38.1573 112.223C38.1573 111.817 37.9258 111.296 37.9837 110.833L37.6363 110.37C37.7521 110.023 37.6942 109.617 37.5784 109.27C37.5205 109.096 37.4626 108.865 37.4047 108.691C37.3468 108.518 37.2889 108.402 37.231 108.344C37.231 108.112 37.231 107.649 37.2889 107.533C37.2889 107.533 37.3468 107.591 37.4047 107.649C37.4047 107.418 37.4047 107.07 37.4047 106.839C37.4047 106.549 37.4047 106.375 37.2889 106.607C37.231 106.491 37.2889 106.318 37.2889 106.086C37.2889 106.028 37.2889 105.97 37.3468 105.912C37.3468 105.854 37.3468 105.854 37.3468 105.796C37.3468 105.739 37.3468 105.739 37.2889 105.796C36.9416 106.723 36.6521 107.07 36.3047 107.591C35.9574 108.054 35.61 108.633 35.7837 108.865C35.8416 108.749 36.0152 108.517 36.131 108.344C36.2468 108.112 36.4205 107.939 36.5363 107.649C36.4784 107.881 36.5363 107.996 36.4205 108.17C36.2468 108.575 36.0152 108.575 35.7258 109.154L35.4942 108.923C34.6258 109.791 34.7995 110.949 33.9889 111.47Z" fill="#827344"/>
<path d="M37.289 108.517C37.3469 108.286 37.3469 108.054 37.4048 107.765L37.289 107.996C37.3469 108.17 37.3469 108.344 37.289 108.517Z" fill="#827344"/>
<path d="M37.2898 107.998C37.2898 107.881 37.2314 107.823 37.2314 107.765C37.2314 107.881 37.2314 107.998 37.2898 108.057V107.998Z" fill="#827344"/>
<path d="M33.2386 112.975C33.1802 113.034 33.0634 113.209 33.005 113.384C33.1218 113.326 33.2386 113.092 33.2386 112.975Z" fill="#827344"/>
<path d="M33.063 113.503L33.2414 113.324L33.1819 113.265L33.063 113.503Z" fill="#827344"/>
<path d="M27.968 125.075C27.968 125.307 27.9101 125.538 27.9101 125.77C27.7943 125.828 27.6207 126.638 27.5628 126.349C27.6207 126.812 27.0996 127.564 27.5628 127.391C28.0838 125.422 29.3575 122.933 30.0522 120.675L29.9943 121.08C30.2838 119.865 30.9785 119.691 30.9206 118.591L31.0943 118.822C31.3838 118.359 31.2101 117.665 31.7312 117.259H31.6154C31.6733 117.143 31.7312 117.086 31.8469 116.97L31.7891 117.028C31.9048 116.622 32.0206 116.391 32.2522 116.043C32.368 116.043 32.1943 116.217 32.1364 116.333C32.3101 116.217 32.3101 115.87 32.4259 115.58C32.5996 115.407 32.5417 115.638 32.5417 115.696C32.889 114.828 33.2943 114.538 33.2943 113.786C33.2364 113.67 33.0627 113.959 33.1785 113.612C32.7733 114.075 32.6575 114.596 32.4838 115.175L32.5417 115.059C32.6575 115.638 32.3101 115.349 32.1364 116.043C32.0785 115.812 32.2522 115.522 32.1943 115.349C31.5575 115.986 31.8469 116.507 31.268 116.854V116.796C31.1522 116.912 31.1522 117.143 31.0943 117.317C31.1522 117.259 31.268 117.143 31.3838 117.028C31.3259 117.201 31.4417 117.375 31.4996 117.491C31.268 117.607 31.4417 117.78 31.2101 118.07C31.0364 118.128 31.2101 117.722 31.2101 117.607L31.0943 118.012C30.9206 118.359 30.8048 118.243 30.6312 118.417C30.6312 118.765 30.8048 118.301 30.8048 118.591C30.4575 118.88 29.7628 120.443 29.5891 121.254C29.7049 120.965 29.4733 121.08 29.647 120.791C29.5891 120.907 29.4733 121.312 29.5891 121.37C29.4733 121.949 29.1259 122.586 28.7786 122.991L28.9522 122.875C28.9522 123.338 28.3733 123.859 28.1996 124.612C28.1417 124.843 28.3154 125.191 28.0838 125.596C27.968 125.307 28.0838 125.075 27.968 125.075Z" fill="#827344"/>
<path d="M27.2734 127.738L27.2155 127.449C27.0997 127.68 27.2155 128.086 27.3313 128.086C27.3313 127.912 27.505 127.68 27.4471 127.623C27.3313 127.623 27.2734 127.623 27.2734 127.738Z" fill="#827344"/>
<path d="M25.8837 132.775C25.8837 132.891 25.9416 132.891 25.9995 132.949C26.1153 132.428 26.2311 131.791 26.3469 131.27C26.4627 130.749 26.6363 130.343 26.7521 130.112C26.9258 129.764 26.6942 129.649 26.7521 129.185L26.9837 129.012C26.9837 128.722 27.389 128.085 27.0416 128.259C26.9837 128.259 27.0995 128.491 26.9837 128.722L26.9258 128.664L26.81 129.128L26.7521 128.954C26.4048 129.533 26.9258 129.533 26.6363 130.285L26.4048 130.228C26.2311 130.749 26.2311 131.038 25.9416 131.501C25.9416 131.501 26.0574 131.559 26.0574 131.443C26.1153 131.328 26.2311 131.27 26.289 131.328C26.289 132.196 26.1732 131.154 25.9416 131.733C25.9416 132.485 25.7679 133.817 25.5364 134.222C25.7679 133.933 25.8258 134.454 25.71 134.859C25.5942 135.033 25.5942 134.685 25.5364 134.628C25.4785 134.801 25.3627 134.917 25.3627 135.149C25.5364 134.917 25.71 135.091 25.71 135.554C25.9416 134.57 25.5942 133.701 25.8837 132.775Z" fill="#827344"/>
<path d="M26.0001 133.124C26.0001 133.007 26.0001 133.007 26.0001 132.949C26.0001 133.066 25.9417 133.182 25.9417 133.299L26.0001 133.124Z" fill="#827344"/>
<path d="M59.2956 54.4473C44.1852 66.3156 39.2063 90.3996 38.7431 101.689C43.9536 87.7365 66.0113 87.447 78.3428 77.026C86.1585 70.4261 91.369 57.2841 91.7743 48.021C84.3059 45.1263 71.1639 45.1263 59.2956 54.4473Z" fill="white"/>
<path d="M59.2306 54.3903L59.6394 54.1568L59.6978 53.9816L59.2306 54.3903Z" fill="#827344"/>
<path d="M61.3149 53.5185C61.5464 53.3448 61.7201 53.1712 61.9517 52.9975C61.3149 52.8817 61.8938 52.6501 60.7359 53.1133C60.4465 53.4027 59.7517 54.0975 59.9254 54.1554C60.157 53.9817 60.4465 53.5764 60.8517 53.3448C60.7359 53.5764 60.3307 53.8659 60.2728 54.0975C60.9675 53.7501 60.5622 53.7501 61.3149 53.2869V53.5185Z" fill="#827344"/>
<path d="M61.836 52.6505C61.836 52.7673 61.7776 52.8257 61.836 52.8841C61.8944 52.7673 62.1864 52.4753 61.836 52.6505Z" fill="#827344"/>
<path d="M62.2413 52.3607C62.6466 52.1291 62.2992 52.4765 62.3571 52.4765L62.7045 51.9554L62.2413 52.3607Z" fill="#827344"/>
<path d="M64.0359 51.265C64.0961 51.2048 64.1564 51.1445 64.2166 51.1445C64.1564 51.1445 64.0961 51.2048 64.0359 51.265Z" fill="#827344"/>
<path d="M64.9043 50.7396C64.6728 50.7396 64.4991 50.9133 64.2096 51.1449C64.2096 51.1449 64.2096 51.1449 64.2675 51.1449C64.557 51.087 64.4412 51.3765 63.978 51.5501C63.5728 51.8396 63.5149 51.6659 63.2254 52.0133L63.8043 51.8396C64.4412 51.3765 64.6728 50.9712 64.9043 50.7396Z" fill="#827344"/>
<path d="M64.0422 51.2606C63.9827 51.3201 63.8638 51.3796 63.8043 51.3796C63.9233 51.3796 63.9827 51.3201 64.0422 51.2606Z" fill="#827344"/>
<path d="M63.1146 51.7817L62.9361 51.9602L62.9956 52.0197L63.1146 51.7817Z" fill="#827344"/>
<path d="M66.4096 49.9291C66.4096 50.2186 65.3096 50.4501 65.3096 50.7396C65.8886 50.3922 66.4675 50.3343 66.4096 50.5659L67.0465 50.1607C67.2201 49.9291 66.8149 49.8712 66.4096 49.9291Z" fill="#827344"/>
<path d="M68.0307 49.933C68.0906 49.8731 68.0906 49.8731 68.1506 49.8131C68.0906 49.8731 68.0307 49.933 68.0307 49.933Z" fill="#827344"/>
<path d="M71.3887 48.1924C71.0992 48.3082 70.8676 48.424 70.5782 48.5976L69.8255 49.0608C69.9413 48.945 69.8834 48.8871 70.2308 48.7134C69.4782 48.945 69.4782 49.1766 68.8413 49.3503C68.5519 49.1766 69.8834 48.945 69.4782 48.8292C69.0729 49.0029 68.4361 49.2345 68.2045 49.5818L67.5098 49.6976L67.8571 49.8713C68.1466 49.8134 68.3203 49.4082 68.5519 49.5239C68.6677 49.5818 68.4361 49.7555 68.2624 49.8713C68.6677 49.5818 69.4782 49.6397 70.3466 49.2345C71.1571 48.8292 70.8097 48.5397 71.3887 48.1924Z" fill="#827344"/>
<path d="M71.5044 48.4838L71.6851 48.5441L71.5646 48.4236L71.5044 48.4838Z" fill="#827344"/>
<path d="M73.241 47.5551C72.9515 47.6709 72.662 47.7867 72.4305 47.9604C72.3147 47.9604 72.2568 47.9025 72.1989 47.9025C72.2568 47.9604 72.0252 48.1341 72.0831 48.192C72.3147 48.2499 72.5463 48.1341 72.8357 48.0183C73.0673 47.9025 73.3568 47.7288 73.5884 47.6709C74.862 47.4972 73.5884 47.7867 74.1094 47.9025C73.762 47.9604 73.762 47.9025 73.241 48.0183C74.0515 48.1341 74.9199 47.613 75.441 47.4393C75.2673 47.4393 75.2673 47.3814 74.9778 47.4393C75.1515 47.3814 75.3252 47.3236 75.4989 47.2657C74.862 47.2078 74.3989 47.2657 73.241 47.5551Z" fill="#827344"/>
<path d="M71.6778 48.0196C71.9698 47.9028 72.145 47.9028 72.145 47.9028C72.0866 47.9028 71.9698 47.8444 71.6778 48.0196Z" fill="#827344"/>
<path d="M75.6753 47.4396C75.6169 47.4396 75.5001 47.4396 75.3833 47.498C75.5001 47.4396 75.5585 47.4396 75.6753 47.4396Z" fill="#827344"/>
<path d="M75.0936 47.2079L75.7305 47.1501L75.441 47.0922C75.3831 47.0922 75.0936 47.1501 75.0936 47.2079Z" fill="#827344"/>
<path d="M90.0885 55.2553C90.2043 55.1974 90.3201 55.0237 90.378 54.5026C90.4937 54.5605 90.3201 55.1974 90.3201 55.4868C90.5516 54.85 90.4937 55.5447 90.6095 55.4289C90.7832 54.7342 90.6674 54.3868 90.899 53.6342C90.899 53.6921 91.0148 53.6921 91.0727 53.5763C91.1306 53.1132 91.1885 52.4763 91.2464 51.8395C91.3043 51.2027 91.3622 50.6237 91.4779 50.1606C91.5937 49.7553 91.5937 49.35 91.5937 48.9448C91.5937 48.7711 91.5937 48.5395 91.5937 48.3658C91.5937 48.2501 91.5937 48.1922 91.5937 48.0764C91.5358 48.0185 91.4201 48.0185 91.3043 47.9606C90.9569 47.8448 90.6095 47.6711 90.2043 47.5553C89.799 47.4395 89.4516 47.3237 89.0464 47.208C88.6411 47.0922 88.2359 47.0343 87.8306 46.9185C87.4253 46.8606 87.0201 46.7448 86.6148 46.6869C85.8043 46.5711 84.9938 46.4553 84.1254 46.3974C83.3149 46.2816 82.4464 46.2816 81.578 46.2238C81.4043 46.3395 81.2307 46.3974 81.1149 46.4553C80.9412 46.3395 80.3044 46.5132 80.4201 46.3395C80.5938 46.3395 80.7675 46.3395 80.9991 46.3395C80.2465 46.1659 79.0886 46.4553 78.2202 46.4553C78.3359 46.5132 78.5096 46.6869 78.2202 46.7448C78.2781 46.4553 77.1781 46.8606 76.8886 46.5711C76.0202 46.629 76.8886 46.8027 76.0202 46.9185C75.9623 47.0922 76.8886 46.8606 77.0623 46.9764C76.8307 47.1501 76.2518 47.0343 76.3096 47.208C77.0044 47.0922 78.0465 46.9185 79.1465 46.7448C79.7254 46.6869 80.3044 46.5711 80.8833 46.5132C81.4622 46.4553 82.0412 46.4553 82.6201 46.3974L82.3885 46.5711C82.678 46.5711 83.0254 46.5132 83.3727 46.5132C83.7201 46.5132 84.0675 46.5711 84.4148 46.5711C85.1096 46.629 85.8043 46.8027 86.2096 46.9764C86.0938 46.9185 86.499 46.9764 86.9622 47.0343C87.3675 47.0922 87.7727 47.1501 87.7727 46.9764C88.0622 47.0922 88.1201 47.0922 88.5253 47.208L88.6411 47.1501C89.2201 47.3237 89.0464 47.4395 89.6832 47.6132C89.278 47.3816 89.799 47.4395 90.0306 47.3816C90.2043 47.4395 90.378 47.5553 90.5516 47.6711L90.8411 47.8448C90.899 47.9027 91.0148 47.9606 91.0727 47.9606C91.1306 48.0185 91.1306 48.0185 91.1885 48.0764C91.1885 48.1343 91.2464 48.1343 91.2464 48.1922C91.1885 48.3079 91.1885 48.3658 91.1306 48.4237C91.1885 48.3658 91.2464 48.3658 91.3043 48.2501C91.2464 48.4816 91.3622 48.4816 91.4201 48.5974C91.4201 49.0606 91.1885 49.0027 91.1306 48.9448C91.0148 49.7553 91.3043 50.1606 91.1306 50.7395L91.3043 50.5658C91.2464 51.4342 90.9569 52.0711 90.8411 52.9974C90.5516 53.4026 90.7832 52.1869 90.7832 51.8395C90.7253 52.0132 90.6095 52.4184 90.5516 52.5342C90.5516 52.7658 90.6095 52.9974 90.6095 53.2869C90.6095 53.5763 90.6095 53.8658 90.6095 54.0974C90.3779 53.75 90.1464 54.9079 90.0885 55.2553Z" fill="#827344"/>
<path d="M90.4945 52.7103C90.4945 52.5935 90.4945 52.4767 90.4361 52.4183C90.4361 52.5351 90.4361 52.5935 90.3777 52.7103C90.4361 52.7687 90.4945 52.7103 90.4945 52.7103Z" fill="#827344"/>
<path d="M90.0895 55.2555C90.0301 55.2555 90.0301 55.2555 90.0895 55.2555C90.0301 55.3149 90.0301 55.3149 90.0895 55.2555Z" fill="#827344"/>
<path d="M91.5361 50.0448C91.5361 50.1032 91.5361 50.1032 91.4777 50.1616C91.4777 50.22 91.4777 50.2784 91.4777 50.3368L91.5361 50.0448Z" fill="#827344"/>
<path d="M90.8988 49.292C90.9567 49.1183 91.0146 48.8868 91.1304 48.5973C91.0725 48.7131 91.0146 48.771 90.8988 49.292Z" fill="#827344"/>
<path d="M87.4273 47.3815C87.2521 47.3815 87.3689 47.4399 87.1937 47.4399C87.6025 47.5567 87.7193 47.5567 87.4273 47.3815Z" fill="#827344"/>
<path d="M90.2619 53.6918L90.1461 54.3865V54.6181L90.2619 53.6918Z" fill="#827344"/>
<path d="M85.978 67.355C86.4411 66.8918 86.7885 66.0234 87.1359 65.3287C87.6569 63.9971 86.8464 64.9813 87.4253 63.7655L87.6569 64.1129C88.2359 62.8971 88.9885 61.1024 89.0464 59.9445C89.1043 59.8866 89.278 59.655 89.1622 60.0024C89.4516 59.134 88.8148 59.3656 89.278 58.2656C89.1622 59.4234 89.6253 57.9761 89.7411 58.3235V58.4971C89.9727 57.7445 90.1464 56.7603 90.2622 56.2972C90.1464 56.2393 89.9148 56.6445 90.0885 56.0077C89.9727 56.2393 89.9148 56.1235 89.8569 56.0656C89.799 56.7603 89.6253 57.1077 89.6253 57.5708C89.3938 57.9182 89.6832 57.3393 89.4516 57.6287L89.3938 58.2077C89.2201 58.6129 89.3938 57.7445 89.1622 58.3814C89.2201 58.4971 89.1043 59.0182 88.9306 59.4813V59.3077C88.8727 59.655 88.5832 60.1761 88.8727 60.0603L88.5253 60.4077H88.699C88.2938 61.3919 87.8306 61.6234 87.4832 62.8971C87.6569 62.6076 87.599 62.8971 87.5411 63.0708C87.8306 62.6076 87.7148 62.3761 87.8885 61.9129C88.0622 61.9129 87.8885 62.7813 88.178 62.2024C87.7148 62.7813 87.7148 63.476 87.1938 63.5918C86.7885 64.3445 86.8464 64.7497 86.3833 65.4444L86.3254 65.3866C86.4411 65.6181 85.9201 65.9655 85.8043 66.6602L86.0359 66.255C86.0938 66.3129 86.0359 66.5444 85.8622 66.776C85.8622 66.7181 85.8622 66.7181 85.7464 66.776C85.8622 66.9497 85.399 67.8181 85.399 67.9339C85.6306 67.5865 85.7464 67.0655 85.9201 66.6023C86.0359 67.0076 86.2096 67.0076 85.978 67.355Z" fill="#827344"/>
<path d="M83.7198 70.5392C83.3725 71.0024 83.6619 70.3076 83.3146 70.7129C83.083 71.234 83.8935 70.3076 83.7198 70.8866C83.4303 71.1182 83.2567 71.6392 83.1409 71.8129C83.1988 71.5234 82.9093 71.5234 82.8514 71.5813C82.7935 71.8129 82.3882 72.1024 82.2146 72.3918C82.8514 71.755 81.8093 73.0287 82.4461 72.5076C82.504 72.6234 82.0409 73.3182 81.7514 73.5497C81.6935 73.4918 81.8672 73.2603 82.0409 73.0866C82.0409 72.855 81.5777 73.4339 81.404 73.4339C81.2883 73.6076 81.1725 73.8971 80.9409 74.2445C80.7093 74.5339 80.4777 74.8234 80.2462 75.1129C79.8409 75.6918 79.5514 76.0971 79.9567 75.9813C80.2462 75.8076 80.3041 75.576 80.5356 75.3444C79.8409 75.9234 80.362 75.1708 80.362 75.1129C80.6514 74.8813 80.9988 74.3024 80.9988 74.5339L80.7093 75.055C82.0988 73.7234 83.7198 71.5813 84.8198 69.6708L84.2988 70.4813C84.2409 70.3077 84.5303 69.9603 84.6461 69.6129L84.183 69.8445C84.3567 69.6129 84.4724 69.3813 84.5303 69.4392C84.5882 69.0919 84.4724 69.2077 84.2988 69.3234C84.6461 68.6866 84.7619 68.6287 84.8777 68.1077C84.1251 68.9761 84.5303 69.034 83.6619 70.0761L83.7198 70.5392Z" fill="#827344"/>
<path d="M84.9357 68.2821V68.6325L85.1109 68.1653L84.9357 68.2821Z" fill="#827344"/>
<path d="M85.227 68.9785C85.1686 68.9785 85.227 68.8033 85.1686 68.7449C84.8766 69.2705 84.9934 69.2121 85.227 68.9785Z" fill="#827344"/>
<path d="M80.8831 74.0131L80.42 74.5341L80.7673 74.2446C80.7094 74.1867 80.8252 74.071 80.8831 74.0131Z" fill="#827344"/>
<path d="M77.7567 77.9499C78.5094 77.313 78.741 76.9078 79.6673 76.271C79.9567 75.7499 79.262 76.2131 79.3199 75.9236C78.9146 76.2709 79.1462 76.4446 78.7409 76.8499C78.5094 76.9078 78.1041 77.4288 77.641 77.7183C77.7567 77.7762 77.8146 77.8341 77.7567 77.9499Z" fill="#827344"/>
<path d="M74.6304 79.3968C74.2252 79.6284 73.9357 79.9758 73.5883 80.0916C73.5883 79.9758 73.8199 79.8021 74.0515 79.6863C73.8199 79.5705 73.6462 79.9758 73.1831 80.0916C73.241 80.0916 73.4146 80.0337 73.2988 80.1495C72.1989 80.6705 72.7778 80.6705 71.3304 81.2494C71.1568 81.4231 70.9831 81.481 71.041 81.5968C70.1726 81.8284 70.5778 81.6547 69.5357 81.9442C69.5936 82.0021 69.9989 82.0021 70.0568 82.1758C68.5515 82.581 68.6673 82.8705 67.6831 83.1021C67.7989 83.0442 67.8568 82.9284 68.1463 82.8705C67.9147 82.6968 67.4515 83.2757 66.9305 83.3915L66.8726 83.16C66.4094 83.3915 65.7147 83.8547 65.0779 83.9705L65.1937 83.7968C64.0937 84.4336 62.6463 84.8968 61.72 85.3599L61.1411 85.4178C59.8095 86.1126 62.5305 84.9547 61.6621 85.6494C61.3726 85.3599 60.9674 86.0547 60.1569 86.2284C59.7516 86.2284 60.9095 85.8231 60.4463 85.8231C60.3305 86.0547 60.0411 86.0547 59.6358 86.2863C59.6358 86.0547 58.7674 86.5757 58.9411 86.2863L57.6095 87.2126C57.32 87.2126 56.9148 87.3862 56.6253 87.5599C57.4358 87.2705 56.5095 87.9073 57.4358 87.6178C58.7095 87.0389 60.8516 86.1126 62.5305 85.5915C62.5884 85.302 63.5726 85.1863 63.7463 84.8968C63.8042 84.9547 63.9779 84.9547 64.0358 85.0126C65.0779 84.5494 63.7463 84.9547 63.9779 84.781C64.441 84.5494 64.8463 84.5494 64.8463 84.6652C65.5989 84.3757 64.9042 84.5494 65.2515 84.26L65.8305 84.3178C68.1463 83.2757 71.0989 81.7126 73.7041 80.381L73.4146 80.3231C74.5725 79.7442 75.0357 78.8758 76.2515 78.5284L76.483 78.1811C76.3672 78.3547 76.8304 78.2968 76.5988 78.5863C76.8304 78.2968 77.1778 78.1811 77.4672 77.8916C77.2935 78.0074 77.062 78.1232 76.8883 78.1811C77.1778 77.7758 77.6409 77.5442 77.8146 77.5442C78.4514 76.7916 77.1778 77.66 76.8883 77.66C75.962 78.76 75.6146 78.1811 74.5725 78.9916C73.8199 79.7442 74.6304 79.3389 74.6304 79.3968Z" fill="#827344"/>
<path d="M76.3094 78.8827C76.3697 78.8225 76.4299 78.7623 76.4299 78.702C76.3697 78.7623 76.3697 78.8225 76.3094 78.8827Z" fill="#827344"/>
<path d="M56.4551 87.6763C56.3383 87.7347 56.2215 87.7347 56.1047 87.8515C55.9879 87.9099 56.1631 87.7931 56.4551 87.6763Z" fill="#827344"/>
<path d="M77.8754 76.9657L77.5834 77.1993L77.7002 77.2577L77.8754 76.9657Z" fill="#827344"/>
<path d="M52.8045 88.9496L52.8644 89.0695C52.8644 89.0095 52.8644 88.9496 52.8045 88.9496Z" fill="#827344"/>
<path d="M43.7151 94.1644L43.8958 94.0439C43.8356 94.1042 43.7753 94.1644 43.7151 94.1644Z" fill="#827344"/>
<path d="M41.3994 85.9389C41.5151 85.2441 41.6888 84.3757 41.6888 83.8547L41.7467 83.9126C41.8046 83.5652 41.9783 82.3494 41.573 83.0442L41.6309 83.2178C41.5151 84.0863 41.2836 83.7968 41.052 84.4336C40.8783 85.2441 41.1099 85.7652 40.8783 86.4599C40.8204 86.7494 40.7046 86.6915 40.7046 86.5757C40.5309 87.2704 40.7046 87.6178 40.6467 88.081C39.8941 88.1388 40.3573 90.2809 39.7204 91.2651C39.6625 91.9599 39.4309 92.8283 39.4309 93.6967C39.3152 93.2335 39.3152 94.5072 39.1415 94.2756C39.4888 94.5651 38.6204 96.7072 39.1415 96.9388C38.852 98.0967 39.1415 96.9967 38.9099 98.3282C38.852 98.3282 38.852 98.0967 38.852 97.9809C38.6783 98.5019 39.0257 98.8493 38.7362 99.2545C38.6204 100.355 38.852 99.4282 38.9678 100.123C38.852 101.223 38.7941 100.933 38.5046 101.512C38.5625 101.512 38.5625 101.57 38.6204 101.628L38.9099 101.686C38.9099 101.455 39.1415 100.991 39.2573 100.528C39.1994 100.644 38.852 101.339 38.9678 100.818C39.2573 100.239 39.3152 99.9493 39.4309 99.7177C39.4888 99.4861 39.5467 99.1966 39.8362 98.6756C40.1257 98.5019 39.952 98.7335 39.8362 98.9651C39.7204 99.1966 39.6046 99.3124 39.952 98.9072C39.7783 99.2545 39.6625 99.6019 39.5467 99.8914C39.4309 100.181 39.3731 100.412 39.3731 100.644C39.6046 100.181 39.8362 99.6598 40.1257 99.1388C40.4151 98.6177 40.7046 98.0967 40.9941 97.6335C41.3993 97.1703 40.8783 97.9809 41.2257 97.5756C41.573 97.1704 41.8625 96.823 42.0362 96.4756C42.2678 96.1283 42.4414 95.7809 42.8467 95.5493L42.7888 95.7809C43.0204 95.2598 44.2362 94.4493 45.0467 93.7546C44.873 93.7546 44.8151 93.8125 44.873 93.6967C45.0467 93.9862 45.9151 92.6546 46.9572 92.3651C46.7835 92.1914 47.5361 91.5546 48.1151 91.2651C48.3467 91.2072 48.3467 91.323 48.3467 91.3809C47.3625 91.7862 47.594 92.0757 46.9572 92.5967C47.4782 92.1336 48.5203 91.6704 48.9256 91.2651L48.8098 91.5546C49.6203 91.1493 49.3309 90.802 50.3151 90.5125V90.6862C52.1098 89.7599 54.3098 89.0652 55.6992 88.1967C55.815 88.0231 54.9466 88.1389 54.8887 88.0231C54.0203 88.4862 53.615 88.8915 52.9782 89.2388L52.9203 89.0652C52.8045 89.2388 52.0519 89.702 52.5729 89.5862C52.1098 89.9336 52.1098 89.5862 51.5308 89.9915C51.4729 89.7599 51.8203 89.5862 51.7624 89.4125L51.2993 89.7599C51.4151 89.5862 50.9519 89.8757 51.0677 89.702C50.1993 90.3967 49.6203 90.2809 48.694 90.9178C48.8677 90.802 49.0993 90.7441 49.273 90.6283C49.3309 90.7441 48.9835 90.9178 48.7519 91.0336C48.4046 91.0336 48.2309 91.1493 47.7098 91.3809C47.3046 91.7283 47.1888 92.0757 46.6098 92.423C46.6098 92.1335 45.6256 92.9441 45.3941 92.8862C45.3941 93.1178 44.352 93.7546 44.352 93.9283C44.0625 94.1599 43.7151 94.5072 43.5993 94.3914C43.6572 94.3335 43.7151 94.2756 43.773 94.1598L43.4835 94.3914C43.4835 94.3335 43.4835 94.3335 43.4835 94.3335C43.252 94.5651 43.3099 94.6809 42.9625 94.8546C42.9046 94.7967 43.0783 94.6809 43.1941 94.5072C42.8467 94.7967 42.6151 95.144 42.4414 95.4335C42.2099 95.723 42.0362 96.0125 41.6888 96.244C41.6888 96.4177 40.9941 97.1703 41.3415 97.1703C41.1099 97.344 40.9941 97.1125 40.5888 97.7493C40.473 98.2124 40.0678 98.3861 39.8941 98.9072C40.1257 98.1545 39.8362 98.8493 40.0099 98.2124C39.8362 98.3861 39.7204 98.6756 39.5467 99.023C39.4309 99.3703 39.3152 99.7756 39.0836 100.123C39.0257 100.181 38.9678 100.123 38.852 100.239C38.7941 100.586 38.7941 100.991 38.5046 101.223H38.6783C38.6204 101.339 38.5625 101.455 38.5046 101.628L39.0836 101.744C39.1415 101.223 39.1415 100.644 39.3152 100.181L39.0836 99.4282C39.4309 98.5019 39.3152 97.1704 39.1994 96.3598C39.2573 96.0125 39.3731 95.4914 39.4309 95.4914C39.4309 95.5493 39.4309 95.723 39.4888 95.8967C39.5467 95.3756 39.8362 94.7388 39.6625 94.4493C39.6625 93.9283 39.8941 94.102 40.0099 93.6967C39.8362 92.5388 40.8204 90.5704 40.4151 90.1651C40.2994 90.6283 40.0678 91.4388 39.952 92.2493C39.952 92.0178 39.8362 92.1914 39.8362 91.8441C39.952 90.9757 40.2415 90.5704 40.2994 89.7599L40.5888 89.9336C41.1099 88.4283 40.7046 86.981 41.3994 85.9389Z" fill="#827344"/>
<path d="M39.3728 96.7072L39.6044 96.1283L39.4886 96.1862C39.4307 96.3599 39.4307 96.5914 39.3728 96.7072Z" fill="#827344"/>
<path d="M41.9784 83.5654C42.0363 83.4496 42.152 83.1602 42.152 82.9286C42.0941 83.0444 41.9784 83.3917 41.9784 83.5654Z" fill="#827344"/>
<path d="M42.0952 82.8125L41.9784 83.1045V83.1629L42.0952 82.8125Z" fill="#827344"/>
<path d="M49.0993 65.9658L49.4466 64.9816C49.6203 64.8658 50.1414 63.8816 50.0835 64.2869C50.1993 63.65 51.1835 62.7237 50.6045 62.8974C48.9835 65.3869 46.7835 68.8605 45.6256 72.1026L45.7414 71.5237C45.2204 73.2605 44.4677 73.6657 44.4098 75.171L44.2362 74.8815C43.8888 75.6341 44.0046 76.4447 43.4835 77.1394L43.5993 77.0815C43.5414 77.3131 43.4256 77.371 43.3678 77.5447L43.4256 77.4868C43.3099 78.0657 43.1941 78.4131 42.9046 78.9341C42.7888 78.9341 42.9625 78.6446 43.0204 78.471C42.8467 78.7025 42.8467 79.1657 42.7309 79.6288C42.5572 79.9183 42.6151 79.5709 42.6151 79.5131C42.3257 80.8446 41.8625 81.3657 41.9783 82.4078C42.0362 82.5236 42.2099 82.1183 42.0941 82.5814C42.4414 81.7709 42.5572 81.0183 42.673 80.2078L42.6151 80.4394C42.4414 79.6867 42.8467 79.9762 43.0204 78.9341C43.0783 79.2236 42.9046 79.6867 42.9625 79.8604C43.6572 78.8183 43.3099 78.1236 43.9467 77.5447V77.6604C44.0625 77.4868 44.0625 77.1973 44.1204 76.9078C44.0625 76.9657 43.9467 77.1973 43.8309 77.371C43.8888 77.0815 43.773 76.9078 43.773 76.792C44.0625 76.5604 43.8309 76.3868 44.1204 75.9236C44.352 75.8078 44.1204 76.3868 44.1204 76.5605L44.2362 75.9815C44.4098 75.4605 44.5835 75.5762 44.7572 75.3447C44.8151 74.8815 44.5835 75.5762 44.5835 75.171C44.9888 74.7078 45.9151 72.3921 46.2625 71.2921C46.0888 71.6973 46.3782 71.4658 46.1467 71.9289C46.2625 71.7552 46.4361 71.1763 46.3204 71.1184C46.6098 70.3079 47.1309 69.4395 47.594 68.8026L47.3625 68.9184C47.4782 68.2237 48.2888 67.5868 48.7519 66.5447C48.9256 66.1974 48.8098 65.7921 49.2151 65.2711C49.1572 65.6184 48.9256 65.9658 49.0993 65.9658Z" fill="#827344"/>
<path d="M51.0675 62.4918L51.0096 62.8971C51.2991 62.6076 51.4149 62.0287 51.2412 62.0287C51.1254 62.2603 50.8359 62.5497 50.8938 62.6076C50.8938 62.6076 50.9517 62.6655 51.0675 62.4918Z" fill="#827344"/>
<path d="M55.9887 56.6443C56.0466 56.5285 55.9887 56.4706 55.9887 56.4127C54.8308 57.5706 53.5571 59.0758 53.0361 59.539C52.6308 59.9443 52.7466 60.1758 52.3992 60.7548L52.0519 60.8706C51.9361 61.2179 51.0677 62.0284 51.5308 61.8548C51.5887 61.8548 51.6466 61.5074 51.8782 61.2758L51.9361 61.3916L52.3413 60.8127L52.2834 61.0442C53.0361 60.3495 52.4571 60.2916 53.3255 59.4232L53.4992 59.5969C54.0203 58.9601 54.2518 58.6127 54.8308 58.2074C54.8308 58.2074 54.7729 58.1495 54.715 58.2653C54.5992 58.3811 54.4255 58.439 54.4255 58.3232C55.1203 57.2811 54.4255 58.5548 55.0624 57.9758C55.3518 57.5706 55.8729 56.9338 56.336 56.4127C56.8571 55.8917 57.3202 55.4864 57.6097 55.3706C57.1466 55.6022 57.6097 54.9653 58.0729 54.618C58.3623 54.5022 58.015 54.8496 58.015 54.9653C58.2465 54.7917 58.4781 54.7338 58.6518 54.5022C58.3044 54.618 58.3623 54.3285 58.8255 53.8654C58.2465 54.2706 57.7834 54.7338 57.3781 55.1969C56.915 55.6601 56.5097 56.1811 55.9887 56.6443Z" fill="#827344"/>
<path d="M56.1632 56.1829C56.0465 56.2997 56.0464 56.3581 56.0464 56.4165C56.1632 56.2997 56.3384 56.1245 56.4552 56.0077L56.1632 56.1829Z" fill="#827344"/>
<mask id="path-133-outside-1_27_376" maskUnits="userSpaceOnUse" x="162.199" y="42.0562" width="347" height="118" fill="black">
<rect fill="white" x="162.199" y="42.0562" width="347" height="118"/>
<path d="M166.313 156.085C165.175 149.196 164.524 141.323 164.524 132.466C164.524 129.021 164.687 123.936 165.012 117.211L165.337 101.957C164.524 100.481 164.199 99.1686 164.199 98.1844C165.337 96.3802 165.825 91.4594 165.825 83.0942C165.825 63.2471 165.5 52.5854 165.012 51.2732C165.988 48.4848 166.801 47.1726 167.289 47.1726H174.446C175.584 47.1726 177.374 47.8287 179.488 48.9769C181.765 50.1251 183.717 51.2733 185.181 52.5855C187.946 55.0459 189.247 61.6068 189.247 71.9404C189.247 77.5173 189.085 81.782 188.759 84.7344C188.597 86.8667 188.109 88.507 187.621 89.6552C187.133 90.8033 186.482 92.2796 185.506 93.7558C183.88 96.2162 181.115 98.5125 177.211 100.317C175.584 101.137 173.307 102.121 170.379 102.941V122.46C170.379 125.249 170.705 130.497 171.193 138.535L171.518 143.783L171.843 154.445C171.843 156.413 170.867 157.397 168.753 157.397L166.313 156.085ZM171.518 97.3643C174.608 97.3643 177.374 95.8881 179.488 92.9357C180.301 91.7875 180.952 90.3112 181.603 88.507C182.253 86.7027 182.741 84.8984 182.904 83.0942C183.554 79.9777 183.88 76.2051 183.88 72.1045V67.6758C183.88 66.1995 183.88 64.7233 183.717 63.2471C183.554 61.7709 183.392 60.4587 183.066 59.1465C182.578 57.6703 182.09 56.5221 181.277 55.7019C180.627 54.7178 179.651 53.8977 178.512 53.2416C177.211 52.5855 175.584 52.2574 173.795 52.2574C172.494 52.2574 171.518 52.5855 171.03 53.2416C170.542 53.8977 170.217 55.0459 170.217 56.6861C170.217 59.3105 170.379 63.2471 170.705 68.4959L171.03 80.3057C171.03 83.0941 170.867 85.7186 170.705 88.0149L170.379 95.7241L171.518 97.3643ZM209.742 156.249C208.278 156.249 207.302 154.937 206.976 152.477C207.139 151.821 207.302 150.016 207.302 147.064C207.302 137.058 207.464 122.132 207.79 102.285C208.115 82.6021 208.278 68.3319 208.278 59.6385L208.603 53.7336L209.091 48.8129C209.091 47.9927 209.416 47.6647 210.229 47.6647C210.717 47.6647 211.531 47.8287 212.507 48.1568L212.995 48.3208C212.995 50.7812 212.995 52.9135 212.832 54.8818V61.2788V79.1575C212.995 84.4063 212.995 90.3113 212.995 97.0363C212.832 97.5284 212.832 98.8405 212.832 100.645L212.669 104.089C212.507 106.222 212.507 108.518 212.507 110.814C212.507 113.275 212.507 115.571 212.669 117.703L212.832 124.757L212.344 126.069L212.507 125.905C212.507 126.233 212.507 126.397 212.344 126.561V127.217C212.344 128.037 212.507 128.857 212.832 129.513L212.344 145.26V146.244C212.344 148.048 212.344 149.196 212.507 149.524C212.507 150.016 212.832 150.344 213.32 150.344L221.778 150.672C224.218 150.672 226.007 150.672 226.82 150.837C227.796 150.837 228.447 150.837 228.609 150.837H229.097C229.585 150.837 230.236 151.165 230.724 151.821C231.212 152.313 231.537 152.969 231.537 153.625C231.537 154.937 230.724 155.593 228.935 155.757C227.145 155.593 222.591 155.593 215.434 155.593L215.76 155.757C214.621 155.757 213.645 155.757 212.669 155.921C211.693 156.085 210.717 156.249 209.742 156.249ZM279.357 155.593C277.731 155.593 276.755 155.429 276.267 154.937C275.779 154.609 275.453 153.625 275.291 151.985C274.315 143.947 273.664 139.027 273.502 137.058L272.688 130.497C270.249 130.005 267.646 129.677 264.556 129.677L258.7 129.349C256.098 129.021 254.146 128.857 253.007 128.857C252.357 128.857 252.031 129.185 251.869 129.677C251.869 130.005 251.869 130.169 251.706 130.169L251.381 133.45C251.218 135.418 250.73 139.355 249.592 145.26C249.104 148.212 248.453 150.508 247.64 152.149C246.826 153.953 246.013 154.937 245.2 154.937C244.549 154.937 243.899 154.609 243.085 154.117C242.272 153.461 241.947 152.805 241.947 152.149L242.11 151.657L242.272 151.165C244.224 143.455 245.851 135.746 247.152 128.037L249.104 117.867L251.055 105.402C251.055 105.402 251.706 101.793 252.845 94.5759C253.333 91.6235 254.309 86.8667 255.772 80.3057C257.236 72.9246 258.212 67.8398 258.538 65.0514C258.7 64.7233 258.863 62.755 259.188 58.9824C259.676 54.8818 260.001 51.7653 260.327 49.797C260.652 47.0086 260.977 45.3684 261.303 44.8763H262.441C262.767 45.0403 263.092 45.0403 263.58 45.0403C264.881 45.0403 265.857 44.7123 266.508 44.0562C267.321 44.0562 267.971 44.3842 268.459 44.8763C269.11 45.3684 269.435 45.8604 269.435 46.5165C269.435 51.7653 269.761 57.8343 270.574 64.5593C271.062 68.0038 271.387 70.9563 271.55 73.2526C272.688 87.3588 275.779 113.767 280.658 152.641V153.133C280.658 154.281 280.17 155.101 279.357 155.593ZM271.875 126.069C270.737 110.322 268.785 87.0307 265.694 56.358L256.911 100.153C254.471 112.783 253.17 120.656 253.17 123.936C253.17 124.428 255.284 124.921 259.351 125.413C263.417 125.905 267.158 126.069 270.249 126.069H271.875ZM339.702 154.773C338.888 154.773 338.238 154.445 337.75 153.789C337.424 153.133 337.099 152.149 336.774 150.837C336.611 150.016 336.448 149.196 336.123 148.54L336.286 148.048C335.473 142.963 333.521 136.566 330.756 129.185L327.828 120.656C327.665 120.492 326.527 117.703 324.737 112.291L323.436 108.354C313.677 78.0094 307.496 61.4428 305.056 58.9824C304.243 61.9349 303.755 65.7075 303.755 70.4642C303.755 72.9246 303.755 75.2209 303.918 77.0252L304.08 83.4222L303.918 87.3588C303.755 88.5069 303.755 89.8192 303.755 91.2954C303.755 93.7558 303.918 95.7241 304.08 97.5283C304.243 100.973 304.406 102.777 304.406 102.777H303.918C303.918 120.984 304.243 131.153 305.056 132.958V147.72C305.544 148.54 305.707 149.688 305.707 151.165C305.707 151.985 305.382 152.805 304.731 153.461C304.243 154.117 303.43 154.445 302.617 154.445C300.339 154.445 299.201 151.493 299.201 145.588L299.526 140.339C299.689 138.699 299.851 136.894 299.851 134.926C299.851 129.677 299.689 121.804 299.364 111.306C299.038 100.809 298.876 92.9356 298.876 87.6868C298.876 84.5704 299.038 79.6496 299.364 73.0886C299.689 66.6916 299.851 61.7709 299.851 58.6544V56.5221C299.851 51.1092 300.827 47.6647 302.779 46.0245L303.267 46.5165L304.894 46.1885C305.382 46.3525 305.87 46.6805 306.358 47.1726C306.846 47.6647 307.008 48.1568 307.008 48.6489L307.334 49.633C307.334 49.797 307.334 50.1251 307.334 50.2891C307.496 50.4532 307.496 50.4531 307.496 50.4531C309.285 58.1623 313.189 69.152 319.207 83.0942C325.388 97.8564 329.292 107.698 330.756 112.455C331.894 116.227 332.707 119.672 333.358 122.624C335.473 131.974 337.912 139.027 340.677 144.111L341.003 143.619C343.443 119.344 344.744 89.4911 344.744 54.2257L344.581 52.2574C344.418 51.7653 344.419 50.9452 344.419 50.1251C344.419 47.8287 345.232 46.6806 346.696 46.6806C347.672 46.6806 348.485 47.1726 349.135 48.1568C349.949 49.1409 350.274 50.2891 350.274 51.4373V62.427L349.461 63.7392C349.461 74.0727 348.81 91.1314 347.672 114.915C346.533 138.699 345.394 151.493 344.256 153.625L341.491 154.281V154.445L341.328 154.281L339.702 154.773ZM383.781 151.821L383.618 145.752C383.455 143.947 383.455 141.979 383.455 139.847C383.455 138.699 383.455 137.879 383.618 137.058L383.781 134.106C383.781 132.958 383.618 131.646 383.13 130.169C383.13 122.788 382.642 109.174 381.503 89.3271C380.365 70.1362 379.877 57.0142 379.714 50.1251C373.046 50.1251 368.491 49.961 366.214 49.633C364.1 49.1409 362.961 48.1568 362.961 47.0086C363.449 45.8605 364.587 45.2043 366.051 45.2043C369.304 45.2043 374.021 45.3684 380.202 45.8604C385.895 46.3525 390.612 46.6806 394.353 46.6806H397.769L401.185 46.5165C403.136 46.5165 404.112 47.1727 404.112 48.6489C404.112 49.305 403.787 49.7971 402.974 50.2891C402.323 50.6172 401.51 50.7812 400.534 50.7812C398.419 50.7812 396.142 50.6171 393.702 50.4531L386.708 50.1251C386.22 50.1251 386.058 50.2891 386.058 50.6172C385.895 50.9452 385.895 51.9293 385.895 53.7336C385.895 64.3953 386.546 80.4698 387.847 101.957C388.986 124.264 389.636 140.339 389.636 150.016C389.636 150.836 389.148 151.493 388.172 152.149C387.359 152.805 386.383 153.133 385.57 153.133L383.781 151.821ZM438.269 157.233C425.583 157.233 419.239 137.058 419.239 96.8723V91.1314C419.239 60.6227 423.143 45.3684 430.95 45.3684C431.438 45.3684 432.251 45.5324 433.227 45.8604C436.643 47.0086 440.059 47.8287 443.474 48.1568C445.589 48.6489 447.541 50.7812 449.655 54.5537C451.932 58.4904 453.559 63.7392 454.697 70.1361C455.836 76.5331 456.487 83.2582 456.487 89.9832L456.161 90.8033C456.161 94.4119 456.161 97.6923 456.324 100.481L456.487 110.322C456.487 115.899 456.324 120.984 455.836 125.413C455.185 132.138 454.047 138.043 452.583 142.963C451.607 145.916 450.468 148.376 449.167 150.344C448.029 152.313 446.402 153.953 444.613 155.265C442.824 156.577 440.709 157.233 438.269 157.233ZM437.619 152.477C441.848 152.477 444.938 149.524 447.053 143.455C449.167 137.386 450.306 131.154 450.794 124.757C451.282 118.196 451.444 112.947 451.444 109.01C451.444 104.581 451.119 98.1845 450.468 89.6552C449.981 80.1417 449.655 73.7447 449.655 70.3002L449.005 68.988L449.33 68.1679C449.33 63.4111 448.029 59.1465 445.264 55.7019C442.661 52.2574 439.408 50.4531 435.667 50.4531C430.625 50.4531 427.697 52.9135 426.721 57.6703C426.558 59.3105 426.233 61.6068 426.07 64.7233C426.07 72.7606 425.745 78.3374 425.095 81.2899C425.095 82.9301 424.932 85.5545 424.607 88.999L424.281 96.7082C424.281 99.1686 424.281 101.301 424.444 103.105L424.607 109.666C424.607 114.751 425.095 120.656 425.908 127.381C426.558 132.302 427.372 136.402 428.185 139.847C428.998 143.291 430.299 146.08 431.926 148.54C433.553 151.165 435.504 152.477 437.619 152.477ZM502.518 156.085C501.216 154.609 499.752 150.836 498.289 144.768C496.825 138.699 495.361 131.81 494.06 124.1C493.246 117.867 491.945 111.634 490.319 105.566C489.017 100.153 487.716 97.3643 486.578 97.3643H486.09C483.65 97.3643 482.511 98.1844 482.511 99.6606C482.511 107.534 482.999 119.508 483.812 135.582C484.3 145.424 484.788 151.165 485.276 152.805L483.975 155.593H481.698L480.397 154.281C478.607 103.761 477.794 69.316 477.794 50.9452C477.794 49.7971 477.794 48.8129 477.957 47.9927C478.12 47.1726 478.607 46.5165 479.095 45.8604C479.583 45.0403 480.234 44.7122 481.373 44.7122C486.903 44.7122 491.294 46.0244 494.71 48.8129C498.126 51.6013 499.752 55.5379 499.752 60.6227V72.5965C499.752 74.7288 499.102 77.5173 497.638 80.9618C496.337 84.4063 494.873 87.6868 493.246 90.6393L491.132 94.7399C492.27 100.317 494.71 110.322 498.126 124.921C501.704 139.355 503.656 147.064 503.981 147.884C504.144 148.048 504.144 148.212 504.307 148.704C504.469 149.196 504.957 149.852 505.445 150.672C506.259 152.149 506.584 153.461 506.584 154.609C506.584 156.085 505.933 156.905 504.795 156.905L502.518 156.085ZM483.324 93.2637C485.439 93.2637 487.228 92.2795 488.855 90.1472C490.481 88.0149 491.782 85.3905 492.758 82.11C494.548 75.385 495.361 70.1361 495.361 66.1995C495.361 63.7392 495.198 61.6069 494.873 59.9666C494.71 58.3264 494.222 56.5221 493.572 54.7178C492.27 50.9452 489.18 48.9769 484.3 48.9769C483.812 48.9769 483.324 49.469 482.999 50.4531C482.674 51.2732 482.511 52.2574 482.511 53.2416C482.511 60.6227 482.674 67.1837 482.836 73.0886C482.999 78.9935 482.999 85.5545 482.999 92.9357L483.324 93.2637Z"/>
</mask>
<path d="M166.313 156.085C165.175 149.196 164.524 141.323 164.524 132.466C164.524 129.021 164.687 123.936 165.012 117.211L165.337 101.957C164.524 100.481 164.199 99.1686 164.199 98.1844C165.337 96.3802 165.825 91.4594 165.825 83.0942C165.825 63.2471 165.5 52.5854 165.012 51.2732C165.988 48.4848 166.801 47.1726 167.289 47.1726H174.446C175.584 47.1726 177.374 47.8287 179.488 48.9769C181.765 50.1251 183.717 51.2733 185.181 52.5855C187.946 55.0459 189.247 61.6068 189.247 71.9404C189.247 77.5173 189.085 81.782 188.759 84.7344C188.597 86.8667 188.109 88.507 187.621 89.6552C187.133 90.8033 186.482 92.2796 185.506 93.7558C183.88 96.2162 181.115 98.5125 177.211 100.317C175.584 101.137 173.307 102.121 170.379 102.941V122.46C170.379 125.249 170.705 130.497 171.193 138.535L171.518 143.783L171.843 154.445C171.843 156.413 170.867 157.397 168.753 157.397L166.313 156.085ZM171.518 97.3643C174.608 97.3643 177.374 95.8881 179.488 92.9357C180.301 91.7875 180.952 90.3112 181.603 88.507C182.253 86.7027 182.741 84.8984 182.904 83.0942C183.554 79.9777 183.88 76.2051 183.88 72.1045V67.6758C183.88 66.1995 183.88 64.7233 183.717 63.2471C183.554 61.7709 183.392 60.4587 183.066 59.1465C182.578 57.6703 182.09 56.5221 181.277 55.7019C180.627 54.7178 179.651 53.8977 178.512 53.2416C177.211 52.5855 175.584 52.2574 173.795 52.2574C172.494 52.2574 171.518 52.5855 171.03 53.2416C170.542 53.8977 170.217 55.0459 170.217 56.6861C170.217 59.3105 170.379 63.2471 170.705 68.4959L171.03 80.3057C171.03 83.0941 170.867 85.7186 170.705 88.0149L170.379 95.7241L171.518 97.3643ZM209.742 156.249C208.278 156.249 207.302 154.937 206.976 152.477C207.139 151.821 207.302 150.016 207.302 147.064C207.302 137.058 207.464 122.132 207.79 102.285C208.115 82.6021 208.278 68.3319 208.278 59.6385L208.603 53.7336L209.091 48.8129C209.091 47.9927 209.416 47.6647 210.229 47.6647C210.717 47.6647 211.531 47.8287 212.507 48.1568L212.995 48.3208C212.995 50.7812 212.995 52.9135 212.832 54.8818V61.2788V79.1575C212.995 84.4063 212.995 90.3113 212.995 97.0363C212.832 97.5284 212.832 98.8405 212.832 100.645L212.669 104.089C212.507 106.222 212.507 108.518 212.507 110.814C212.507 113.275 212.507 115.571 212.669 117.703L212.832 124.757L212.344 126.069L212.507 125.905C212.507 126.233 212.507 126.397 212.344 126.561V127.217C212.344 128.037 212.507 128.857 212.832 129.513L212.344 145.26V146.244C212.344 148.048 212.344 149.196 212.507 149.524C212.507 150.016 212.832 150.344 213.32 150.344L221.778 150.672C224.218 150.672 226.007 150.672 226.82 150.837C227.796 150.837 228.447 150.837 228.609 150.837H229.097C229.585 150.837 230.236 151.165 230.724 151.821C231.212 152.313 231.537 152.969 231.537 153.625C231.537 154.937 230.724 155.593 228.935 155.757C227.145 155.593 222.591 155.593 215.434 155.593L215.76 155.757C214.621 155.757 213.645 155.757 212.669 155.921C211.693 156.085 210.717 156.249 209.742 156.249ZM279.357 155.593C277.731 155.593 276.755 155.429 276.267 154.937C275.779 154.609 275.453 153.625 275.291 151.985C274.315 143.947 273.664 139.027 273.502 137.058L272.688 130.497C270.249 130.005 267.646 129.677 264.556 129.677L258.7 129.349C256.098 129.021 254.146 128.857 253.007 128.857C252.357 128.857 252.031 129.185 251.869 129.677C251.869 130.005 251.869 130.169 251.706 130.169L251.381 133.45C251.218 135.418 250.73 139.355 249.592 145.26C249.104 148.212 248.453 150.508 247.64 152.149C246.826 153.953 246.013 154.937 245.2 154.937C244.549 154.937 243.899 154.609 243.085 154.117C242.272 153.461 241.947 152.805 241.947 152.149L242.11 151.657L242.272 151.165C244.224 143.455 245.851 135.746 247.152 128.037L249.104 117.867L251.055 105.402C251.055 105.402 251.706 101.793 252.845 94.5759C253.333 91.6235 254.309 86.8667 255.772 80.3057C257.236 72.9246 258.212 67.8398 258.538 65.0514C258.7 64.7233 258.863 62.755 259.188 58.9824C259.676 54.8818 260.001 51.7653 260.327 49.797C260.652 47.0086 260.977 45.3684 261.303 44.8763H262.441C262.767 45.0403 263.092 45.0403 263.58 45.0403C264.881 45.0403 265.857 44.7123 266.508 44.0562C267.321 44.0562 267.971 44.3842 268.459 44.8763C269.11 45.3684 269.435 45.8604 269.435 46.5165C269.435 51.7653 269.761 57.8343 270.574 64.5593C271.062 68.0038 271.387 70.9563 271.55 73.2526C272.688 87.3588 275.779 113.767 280.658 152.641V153.133C280.658 154.281 280.17 155.101 279.357 155.593ZM271.875 126.069C270.737 110.322 268.785 87.0307 265.694 56.358L256.911 100.153C254.471 112.783 253.17 120.656 253.17 123.936C253.17 124.428 255.284 124.921 259.351 125.413C263.417 125.905 267.158 126.069 270.249 126.069H271.875ZM339.702 154.773C338.888 154.773 338.238 154.445 337.75 153.789C337.424 153.133 337.099 152.149 336.774 150.837C336.611 150.016 336.448 149.196 336.123 148.54L336.286 148.048C335.473 142.963 333.521 136.566 330.756 129.185L327.828 120.656C327.665 120.492 326.527 117.703 324.737 112.291L323.436 108.354C313.677 78.0094 307.496 61.4428 305.056 58.9824C304.243 61.9349 303.755 65.7075 303.755 70.4642C303.755 72.9246 303.755 75.2209 303.918 77.0252L304.08 83.4222L303.918 87.3588C303.755 88.5069 303.755 89.8192 303.755 91.2954C303.755 93.7558 303.918 95.7241 304.08 97.5283C304.243 100.973 304.406 102.777 304.406 102.777H303.918C303.918 120.984 304.243 131.153 305.056 132.958V147.72C305.544 148.54 305.707 149.688 305.707 151.165C305.707 151.985 305.382 152.805 304.731 153.461C304.243 154.117 303.43 154.445 302.617 154.445C300.339 154.445 299.201 151.493 299.201 145.588L299.526 140.339C299.689 138.699 299.851 136.894 299.851 134.926C299.851 129.677 299.689 121.804 299.364 111.306C299.038 100.809 298.876 92.9356 298.876 87.6868C298.876 84.5704 299.038 79.6496 299.364 73.0886C299.689 66.6916 299.851 61.7709 299.851 58.6544V56.5221C299.851 51.1092 300.827 47.6647 302.779 46.0245L303.267 46.5165L304.894 46.1885C305.382 46.3525 305.87 46.6805 306.358 47.1726C306.846 47.6647 307.008 48.1568 307.008 48.6489L307.334 49.633C307.334 49.797 307.334 50.1251 307.334 50.2891C307.496 50.4532 307.496 50.4531 307.496 50.4531C309.285 58.1623 313.189 69.152 319.207 83.0942C325.388 97.8564 329.292 107.698 330.756 112.455C331.894 116.227 332.707 119.672 333.358 122.624C335.473 131.974 337.912 139.027 340.677 144.111L341.003 143.619C343.443 119.344 344.744 89.4911 344.744 54.2257L344.581 52.2574C344.418 51.7653 344.419 50.9452 344.419 50.1251C344.419 47.8287 345.232 46.6806 346.696 46.6806C347.672 46.6806 348.485 47.1726 349.135 48.1568C349.949 49.1409 350.274 50.2891 350.274 51.4373V62.427L349.461 63.7392C349.461 74.0727 348.81 91.1314 347.672 114.915C346.533 138.699 345.394 151.493 344.256 153.625L341.491 154.281V154.445L341.328 154.281L339.702 154.773ZM383.781 151.821L383.618 145.752C383.455 143.947 383.455 141.979 383.455 139.847C383.455 138.699 383.455 137.879 383.618 137.058L383.781 134.106C383.781 132.958 383.618 131.646 383.13 130.169C383.13 122.788 382.642 109.174 381.503 89.3271C380.365 70.1362 379.877 57.0142 379.714 50.1251C373.046 50.1251 368.491 49.961 366.214 49.633C364.1 49.1409 362.961 48.1568 362.961 47.0086C363.449 45.8605 364.587 45.2043 366.051 45.2043C369.304 45.2043 374.021 45.3684 380.202 45.8604C385.895 46.3525 390.612 46.6806 394.353 46.6806H397.769L401.185 46.5165C403.136 46.5165 404.112 47.1727 404.112 48.6489C404.112 49.305 403.787 49.7971 402.974 50.2891C402.323 50.6172 401.51 50.7812 400.534 50.7812C398.419 50.7812 396.142 50.6171 393.702 50.4531L386.708 50.1251C386.22 50.1251 386.058 50.2891 386.058 50.6172C385.895 50.9452 385.895 51.9293 385.895 53.7336C385.895 64.3953 386.546 80.4698 387.847 101.957C388.986 124.264 389.636 140.339 389.636 150.016C389.636 150.836 389.148 151.493 388.172 152.149C387.359 152.805 386.383 153.133 385.57 153.133L383.781 151.821ZM438.269 157.233C425.583 157.233 419.239 137.058 419.239 96.8723V91.1314C419.239 60.6227 423.143 45.3684 430.95 45.3684C431.438 45.3684 432.251 45.5324 433.227 45.8604C436.643 47.0086 440.059 47.8287 443.474 48.1568C445.589 48.6489 447.541 50.7812 449.655 54.5537C451.932 58.4904 453.559 63.7392 454.697 70.1361C455.836 76.5331 456.487 83.2582 456.487 89.9832L456.161 90.8033C456.161 94.4119 456.161 97.6923 456.324 100.481L456.487 110.322C456.487 115.899 456.324 120.984 455.836 125.413C455.185 132.138 454.047 138.043 452.583 142.963C451.607 145.916 450.468 148.376 449.167 150.344C448.029 152.313 446.402 153.953 444.613 155.265C442.824 156.577 440.709 157.233 438.269 157.233ZM437.619 152.477C441.848 152.477 444.938 149.524 447.053 143.455C449.167 137.386 450.306 131.154 450.794 124.757C451.282 118.196 451.444 112.947 451.444 109.01C451.444 104.581 451.119 98.1845 450.468 89.6552C449.981 80.1417 449.655 73.7447 449.655 70.3002L449.005 68.988L449.33 68.1679C449.33 63.4111 448.029 59.1465 445.264 55.7019C442.661 52.2574 439.408 50.4531 435.667 50.4531C430.625 50.4531 427.697 52.9135 426.721 57.6703C426.558 59.3105 426.233 61.6068 426.07 64.7233C426.07 72.7606 425.745 78.3374 425.095 81.2899C425.095 82.9301 424.932 85.5545 424.607 88.999L424.281 96.7082C424.281 99.1686 424.281 101.301 424.444 103.105L424.607 109.666C424.607 114.751 425.095 120.656 425.908 127.381C426.558 132.302 427.372 136.402 428.185 139.847C428.998 143.291 430.299 146.08 431.926 148.54C433.553 151.165 435.504 152.477 437.619 152.477ZM502.518 156.085C501.216 154.609 499.752 150.836 498.289 144.768C496.825 138.699 495.361 131.81 494.06 124.1C493.246 117.867 491.945 111.634 490.319 105.566C489.017 100.153 487.716 97.3643 486.578 97.3643H486.09C483.65 97.3643 482.511 98.1844 482.511 99.6606C482.511 107.534 482.999 119.508 483.812 135.582C484.3 145.424 484.788 151.165 485.276 152.805L483.975 155.593H481.698L480.397 154.281C478.607 103.761 477.794 69.316 477.794 50.9452C477.794 49.7971 477.794 48.8129 477.957 47.9927C478.12 47.1726 478.607 46.5165 479.095 45.8604C479.583 45.0403 480.234 44.7122 481.373 44.7122C486.903 44.7122 491.294 46.0244 494.71 48.8129C498.126 51.6013 499.752 55.5379 499.752 60.6227V72.5965C499.752 74.7288 499.102 77.5173 497.638 80.9618C496.337 84.4063 494.873 87.6868 493.246 90.6393L491.132 94.7399C492.27 100.317 494.71 110.322 498.126 124.921C501.704 139.355 503.656 147.064 503.981 147.884C504.144 148.048 504.144 148.212 504.307 148.704C504.469 149.196 504.957 149.852 505.445 150.672C506.259 152.149 506.584 153.461 506.584 154.609C506.584 156.085 505.933 156.905 504.795 156.905L502.518 156.085ZM483.324 93.2637C485.439 93.2637 487.228 92.2795 488.855 90.1472C490.481 88.0149 491.782 85.3905 492.758 82.11C494.548 75.385 495.361 70.1361 495.361 66.1995C495.361 63.7392 495.198 61.6069 494.873 59.9666C494.71 58.3264 494.222 56.5221 493.572 54.7178C492.27 50.9452 489.18 48.9769 484.3 48.9769C483.812 48.9769 483.324 49.469 482.999 50.4531C482.674 51.2732 482.511 52.2574 482.511 53.2416C482.511 60.6227 482.674 67.1837 482.836 73.0886C482.999 78.9935 482.999 85.5545 482.999 92.9357L483.324 93.2637Z" fill="#827344"/>
<path d="M166.313 156.085C165.175 149.196 164.524 141.323 164.524 132.466C164.524 129.021 164.687 123.936 165.012 117.211L165.337 101.957C164.524 100.481 164.199 99.1686 164.199 98.1844C165.337 96.3802 165.825 91.4594 165.825 83.0942C165.825 63.2471 165.5 52.5854 165.012 51.2732C165.988 48.4848 166.801 47.1726 167.289 47.1726H174.446C175.584 47.1726 177.374 47.8287 179.488 48.9769C181.765 50.1251 183.717 51.2733 185.181 52.5855C187.946 55.0459 189.247 61.6068 189.247 71.9404C189.247 77.5173 189.085 81.782 188.759 84.7344C188.597 86.8667 188.109 88.507 187.621 89.6552C187.133 90.8033 186.482 92.2796 185.506 93.7558C183.88 96.2162 181.115 98.5125 177.211 100.317C175.584 101.137 173.307 102.121 170.379 102.941V122.46C170.379 125.249 170.705 130.497 171.193 138.535L171.518 143.783L171.843 154.445C171.843 156.413 170.867 157.397 168.753 157.397L166.313 156.085ZM171.518 97.3643C174.608 97.3643 177.374 95.8881 179.488 92.9357C180.301 91.7875 180.952 90.3112 181.603 88.507C182.253 86.7027 182.741 84.8984 182.904 83.0942C183.554 79.9777 183.88 76.2051 183.88 72.1045V67.6758C183.88 66.1995 183.88 64.7233 183.717 63.2471C183.554 61.7709 183.392 60.4587 183.066 59.1465C182.578 57.6703 182.09 56.5221 181.277 55.7019C180.627 54.7178 179.651 53.8977 178.512 53.2416C177.211 52.5855 175.584 52.2574 173.795 52.2574C172.494 52.2574 171.518 52.5855 171.03 53.2416C170.542 53.8977 170.217 55.0459 170.217 56.6861C170.217 59.3105 170.379 63.2471 170.705 68.4959L171.03 80.3057C171.03 83.0941 170.867 85.7186 170.705 88.0149L170.379 95.7241L171.518 97.3643ZM209.742 156.249C208.278 156.249 207.302 154.937 206.976 152.477C207.139 151.821 207.302 150.016 207.302 147.064C207.302 137.058 207.464 122.132 207.79 102.285C208.115 82.6021 208.278 68.3319 208.278 59.6385L208.603 53.7336L209.091 48.8129C209.091 47.9927 209.416 47.6647 210.229 47.6647C210.717 47.6647 211.531 47.8287 212.507 48.1568L212.995 48.3208C212.995 50.7812 212.995 52.9135 212.832 54.8818V61.2788V79.1575C212.995 84.4063 212.995 90.3113 212.995 97.0363C212.832 97.5284 212.832 98.8405 212.832 100.645L212.669 104.089C212.507 106.222 212.507 108.518 212.507 110.814C212.507 113.275 212.507 115.571 212.669 117.703L212.832 124.757L212.344 126.069L212.507 125.905C212.507 126.233 212.507 126.397 212.344 126.561V127.217C212.344 128.037 212.507 128.857 212.832 129.513L212.344 145.26V146.244C212.344 148.048 212.344 149.196 212.507 149.524C212.507 150.016 212.832 150.344 213.32 150.344L221.778 150.672C224.218 150.672 226.007 150.672 226.82 150.837C227.796 150.837 228.447 150.837 228.609 150.837H229.097C229.585 150.837 230.236 151.165 230.724 151.821C231.212 152.313 231.537 152.969 231.537 153.625C231.537 154.937 230.724 155.593 228.935 155.757C227.145 155.593 222.591 155.593 215.434 155.593L215.76 155.757C214.621 155.757 213.645 155.757 212.669 155.921C211.693 156.085 210.717 156.249 209.742 156.249ZM279.357 155.593C277.731 155.593 276.755 155.429 276.267 154.937C275.779 154.609 275.453 153.625 275.291 151.985C274.315 143.947 273.664 139.027 273.502 137.058L272.688 130.497C270.249 130.005 267.646 129.677 264.556 129.677L258.7 129.349C256.098 129.021 254.146 128.857 253.007 128.857C252.357 128.857 252.031 129.185 251.869 129.677C251.869 130.005 251.869 130.169 251.706 130.169L251.381 133.45C251.218 135.418 250.73 139.355 249.592 145.26C249.104 148.212 248.453 150.508 247.64 152.149C246.826 153.953 246.013 154.937 245.2 154.937C244.549 154.937 243.899 154.609 243.085 154.117C242.272 153.461 241.947 152.805 241.947 152.149L242.11 151.657L242.272 151.165C244.224 143.455 245.851 135.746 247.152 128.037L249.104 117.867L251.055 105.402C251.055 105.402 251.706 101.793 252.845 94.5759C253.333 91.6235 254.309 86.8667 255.772 80.3057C257.236 72.9246 258.212 67.8398 258.538 65.0514C258.7 64.7233 258.863 62.755 259.188 58.9824C259.676 54.8818 260.001 51.7653 260.327 49.797C260.652 47.0086 260.977 45.3684 261.303 44.8763H262.441C262.767 45.0403 263.092 45.0403 263.58 45.0403C264.881 45.0403 265.857 44.7123 266.508 44.0562C267.321 44.0562 267.971 44.3842 268.459 44.8763C269.11 45.3684 269.435 45.8604 269.435 46.5165C269.435 51.7653 269.761 57.8343 270.574 64.5593C271.062 68.0038 271.387 70.9563 271.55 73.2526C272.688 87.3588 275.779 113.767 280.658 152.641V153.133C280.658 154.281 280.17 155.101 279.357 155.593ZM271.875 126.069C270.737 110.322 268.785 87.0307 265.694 56.358L256.911 100.153C254.471 112.783 253.17 120.656 253.17 123.936C253.17 124.428 255.284 124.921 259.351 125.413C263.417 125.905 267.158 126.069 270.249 126.069H271.875ZM339.702 154.773C338.888 154.773 338.238 154.445 337.75 153.789C337.424 153.133 337.099 152.149 336.774 150.837C336.611 150.016 336.448 149.196 336.123 148.54L336.286 148.048C335.473 142.963 333.521 136.566 330.756 129.185L327.828 120.656C327.665 120.492 326.527 117.703 324.737 112.291L323.436 108.354C313.677 78.0094 307.496 61.4428 305.056 58.9824C304.243 61.9349 303.755 65.7075 303.755 70.4642C303.755 72.9246 303.755 75.2209 303.918 77.0252L304.08 83.4222L303.918 87.3588C303.755 88.5069 303.755 89.8192 303.755 91.2954C303.755 93.7558 303.918 95.7241 304.08 97.5283C304.243 100.973 304.406 102.777 304.406 102.777H303.918C303.918 120.984 304.243 131.153 305.056 132.958V147.72C305.544 148.54 305.707 149.688 305.707 151.165C305.707 151.985 305.382 152.805 304.731 153.461C304.243 154.117 303.43 154.445 302.617 154.445C300.339 154.445 299.201 151.493 299.201 145.588L299.526 140.339C299.689 138.699 299.851 136.894 299.851 134.926C299.851 129.677 299.689 121.804 299.364 111.306C299.038 100.809 298.876 92.9356 298.876 87.6868C298.876 84.5704 299.038 79.6496 299.364 73.0886C299.689 66.6916 299.851 61.7709 299.851 58.6544V56.5221C299.851 51.1092 300.827 47.6647 302.779 46.0245L303.267 46.5165L304.894 46.1885C305.382 46.3525 305.87 46.6805 306.358 47.1726C306.846 47.6647 307.008 48.1568 307.008 48.6489L307.334 49.633C307.334 49.797 307.334 50.1251 307.334 50.2891C307.496 50.4532 307.496 50.4531 307.496 50.4531C309.285 58.1623 313.189 69.152 319.207 83.0942C325.388 97.8564 329.292 107.698 330.756 112.455C331.894 116.227 332.707 119.672 333.358 122.624C335.473 131.974 337.912 139.027 340.677 144.111L341.003 143.619C343.443 119.344 344.744 89.4911 344.744 54.2257L344.581 52.2574C344.418 51.7653 344.419 50.9452 344.419 50.1251C344.419 47.8287 345.232 46.6806 346.696 46.6806C347.672 46.6806 348.485 47.1726 349.135 48.1568C349.949 49.1409 350.274 50.2891 350.274 51.4373V62.427L349.461 63.7392C349.461 74.0727 348.81 91.1314 347.672 114.915C346.533 138.699 345.394 151.493 344.256 153.625L341.491 154.281V154.445L341.328 154.281L339.702 154.773ZM383.781 151.821L383.618 145.752C383.455 143.947 383.455 141.979 383.455 139.847C383.455 138.699 383.455 137.879 383.618 137.058L383.781 134.106C383.781 132.958 383.618 131.646 383.13 130.169C383.13 122.788 382.642 109.174 381.503 89.3271C380.365 70.1362 379.877 57.0142 379.714 50.1251C373.046 50.1251 368.491 49.961 366.214 49.633C364.1 49.1409 362.961 48.1568 362.961 47.0086C363.449 45.8605 364.587 45.2043 366.051 45.2043C369.304 45.2043 374.021 45.3684 380.202 45.8604C385.895 46.3525 390.612 46.6806 394.353 46.6806H397.769L401.185 46.5165C403.136 46.5165 404.112 47.1727 404.112 48.6489C404.112 49.305 403.787 49.7971 402.974 50.2891C402.323 50.6172 401.51 50.7812 400.534 50.7812C398.419 50.7812 396.142 50.6171 393.702 50.4531L386.708 50.1251C386.22 50.1251 386.058 50.2891 386.058 50.6172C385.895 50.9452 385.895 51.9293 385.895 53.7336C385.895 64.3953 386.546 80.4698 387.847 101.957C388.986 124.264 389.636 140.339 389.636 150.016C389.636 150.836 389.148 151.493 388.172 152.149C387.359 152.805 386.383 153.133 385.57 153.133L383.781 151.821ZM438.269 157.233C425.583 157.233 419.239 137.058 419.239 96.8723V91.1314C419.239 60.6227 423.143 45.3684 430.95 45.3684C431.438 45.3684 432.251 45.5324 433.227 45.8604C436.643 47.0086 440.059 47.8287 443.474 48.1568C445.589 48.6489 447.541 50.7812 449.655 54.5537C451.932 58.4904 453.559 63.7392 454.697 70.1361C455.836 76.5331 456.487 83.2582 456.487 89.9832L456.161 90.8033C456.161 94.4119 456.161 97.6923 456.324 100.481L456.487 110.322C456.487 115.899 456.324 120.984 455.836 125.413C455.185 132.138 454.047 138.043 452.583 142.963C451.607 145.916 450.468 148.376 449.167 150.344C448.029 152.313 446.402 153.953 444.613 155.265C442.824 156.577 440.709 157.233 438.269 157.233ZM437.619 152.477C441.848 152.477 444.938 149.524 447.053 143.455C449.167 137.386 450.306 131.154 450.794 124.757C451.282 118.196 451.444 112.947 451.444 109.01C451.444 104.581 451.119 98.1845 450.468 89.6552C449.981 80.1417 449.655 73.7447 449.655 70.3002L449.005 68.988L449.33 68.1679C449.33 63.4111 448.029 59.1465 445.264 55.7019C442.661 52.2574 439.408 50.4531 435.667 50.4531C430.625 50.4531 427.697 52.9135 426.721 57.6703C426.558 59.3105 426.233 61.6068 426.07 64.7233C426.07 72.7606 425.745 78.3374 425.095 81.2899C425.095 82.9301 424.932 85.5545 424.607 88.999L424.281 96.7082C424.281 99.1686 424.281 101.301 424.444 103.105L424.607 109.666C424.607 114.751 425.095 120.656 425.908 127.381C426.558 132.302 427.372 136.402 428.185 139.847C428.998 143.291 430.299 146.08 431.926 148.54C433.553 151.165 435.504 152.477 437.619 152.477ZM502.518 156.085C501.216 154.609 499.752 150.836 498.289 144.768C496.825 138.699 495.361 131.81 494.06 124.1C493.246 117.867 491.945 111.634 490.319 105.566C489.017 100.153 487.716 97.3643 486.578 97.3643H486.09C483.65 97.3643 482.511 98.1844 482.511 99.6606C482.511 107.534 482.999 119.508 483.812 135.582C484.3 145.424 484.788 151.165 485.276 152.805L483.975 155.593H481.698L480.397 154.281C478.607 103.761 477.794 69.316 477.794 50.9452C477.794 49.7971 477.794 48.8129 477.957 47.9927C478.12 47.1726 478.607 46.5165 479.095 45.8604C479.583 45.0403 480.234 44.7122 481.373 44.7122C486.903 44.7122 491.294 46.0244 494.71 48.8129C498.126 51.6013 499.752 55.5379 499.752 60.6227V72.5965C499.752 74.7288 499.102 77.5173 497.638 80.9618C496.337 84.4063 494.873 87.6868 493.246 90.6393L491.132 94.7399C492.27 100.317 494.71 110.322 498.126 124.921C501.704 139.355 503.656 147.064 503.981 147.884C504.144 148.048 504.144 148.212 504.307 148.704C504.469 149.196 504.957 149.852 505.445 150.672C506.259 152.149 506.584 153.461 506.584 154.609C506.584 156.085 505.933 156.905 504.795 156.905L502.518 156.085ZM483.324 93.2637C485.439 93.2637 487.228 92.2795 488.855 90.1472C490.481 88.0149 491.782 85.3905 492.758 82.11C494.548 75.385 495.361 70.1361 495.361 66.1995C495.361 63.7392 495.198 61.6069 494.873 59.9666C494.71 58.3264 494.222 56.5221 493.572 54.7178C492.27 50.9452 489.18 48.9769 484.3 48.9769C483.812 48.9769 483.324 49.469 482.999 50.4531C482.674 51.2732 482.511 52.2574 482.511 53.2416C482.511 60.6227 482.674 67.1837 482.836 73.0886C482.999 78.9935 482.999 85.5545 482.999 92.9357L483.324 93.2637Z" stroke="#827344" stroke-width="3.6592" mask="url(#path-133-outside-1_27_376)"/>
</svg>
